<svg width="43" height="13" viewBox="0 0 43 13" fill="none" xmlns="http://www.w3.org/2000/svg">
<g id="Group">
<path id="Vector" d="M1.11459 2.89542C0.507324 4.27557 0.00356826 5.4142 0.000117876 5.43145C-0.00678288 5.45215 0.28995 5.45905 0.721247 5.4556L1.45273 5.44525L1.6632 4.94495L1.87712 4.44464H3.07786H4.28204L4.49596 4.94495L4.70644 5.44525L5.45862 5.4556C6.05553 5.4625 6.20735 5.4556 6.19355 5.4211C6.1832 5.39695 5.81056 4.5447 5.36201 3.53029C4.91346 2.51588 4.4166 1.39451 4.26134 1.03912L3.97841 0.390445H3.09856H2.21871L1.11459 2.89542ZM3.47465 2.50208C3.64717 2.91612 3.78863 3.26806 3.78863 3.28876C3.78863 3.30947 3.54021 3.32327 3.06406 3.32327H2.33948L2.37053 3.24391C2.42573 3.10589 3.03645 1.64983 3.05715 1.61878C3.08131 1.57738 3.11926 1.65328 3.47465 2.50208Z" fill="#2367CC"/>
<path id="Vector_2" d="M6.51465 2.92686V5.46289H7.17022H7.82579V3.62384C7.82924 2.08842 7.83614 1.80204 7.8741 1.8745C7.89825 1.9228 8.03972 2.28509 8.18463 2.68533C8.32955 3.08213 8.61593 3.86882 8.82295 4.42778L9.19904 5.44564H9.79251H10.386L10.7621 4.42778C10.9691 3.86882 11.2555 3.08213 11.4004 2.68533C11.5453 2.28509 11.6868 1.9228 11.7109 1.8745C11.7489 1.80204 11.7558 2.08842 11.7592 3.62384V5.46289H12.4148H13.0704V2.92686V0.390832H12.0249H10.976L10.417 1.9504C10.1065 2.80955 9.84081 3.53413 9.82701 3.56173C9.79596 3.61694 9.83391 3.70665 9.12314 1.75373L8.63663 0.408084L7.57392 0.397733L6.51465 0.390832V2.92686Z" fill="#2367CC"/>
<path id="Vector_3" d="M14.1396 2.92686V5.46289H16.2961H18.4526V4.89358V4.32427H16.969H15.4853V3.89297V3.46167H16.9345H18.3836V2.90961V2.35755H16.9345H15.4853V1.92625V1.49495H16.969H18.4526V0.942893V0.390832H16.2961H14.1396V2.92686Z" fill="#2367CC"/>
<path id="Vector_4" d="M19.3496 2.92686V5.46289H20.0224H20.6953V4.56579V3.66869H20.9644L21.2301 3.67214L22.0064 4.56579L22.7793 5.46289H23.5832C24.0249 5.46289 24.3872 5.45599 24.3872 5.44564C24.3872 5.43529 24.0214 5.02814 23.5763 4.54164C23.1312 4.05859 22.7655 3.64799 22.7655 3.63074C22.7655 3.61349 22.8069 3.58933 22.8621 3.57898C23.4556 3.43752 23.949 2.94411 24.0732 2.36445C24.156 1.97111 24.087 1.50531 23.8938 1.17752C23.6867 0.82213 23.2451 0.518497 22.8069 0.428787C22.6896 0.404634 22.0409 0.390832 20.9885 0.390832H19.3496V2.92686ZM22.4722 1.58121C22.8448 1.76753 22.869 2.29199 22.5171 2.48521C22.417 2.54042 22.2928 2.54732 21.551 2.55767L20.6953 2.56802V2.02976V1.48805L21.5164 1.50185C22.2514 1.51221 22.348 1.51911 22.4722 1.58121Z" fill="#2367CC"/>
<path id="Vector_5" d="M24.8711 2.92686V5.46289H25.5267H26.1822V2.92686V0.390832H25.5267H24.8711V2.92686Z" fill="#2367CC"/>
<path id="Vector_6" d="M28.838 0.44249C28.3204 0.546001 27.9823 0.725421 27.6269 1.07736C27.3301 1.37409 27.1335 1.72948 27.0231 2.18493C26.9264 2.57137 26.9334 3.34081 27.0403 3.73415C27.1818 4.26551 27.4544 4.68991 27.8304 4.96594C28.2755 5.29372 28.6861 5.42139 29.39 5.45244L29.8593 5.47314L30.1112 4.94179C30.2492 4.6485 30.3699 4.39318 30.3803 4.37247C30.3906 4.34142 30.2319 4.32762 29.8144 4.31727C29.1105 4.30002 28.9311 4.24481 28.6482 3.96533C28.4136 3.7376 28.3204 3.49263 28.2928 3.05788C28.2445 2.16078 28.6102 1.66738 29.3969 1.56386C29.5349 1.54661 29.98 1.52936 30.3837 1.52936H31.1152V0.960047V0.390735L30.0904 0.394185C29.39 0.397635 28.9898 0.411437 28.838 0.44249Z" fill="#2367CC"/>
<path id="Vector_7" d="M32.4337 1.17407C31.4814 3.32366 30.5878 5.34903 30.5739 5.40078C30.5567 5.45944 30.605 5.46289 31.2813 5.46289H32.0059L32.1853 5.02469C32.2853 4.78317 32.3819 4.55199 32.4027 4.50714L32.4372 4.42778H33.6344H34.8317L35.0525 4.94533L35.2699 5.46289H36.0186H36.7674L36.4983 4.84872C36.3499 4.51404 35.8461 3.37541 35.3803 2.32305L34.5384 0.408084L33.6586 0.397733L32.7822 0.390832L32.4337 1.17407ZM33.9864 2.39895C34.1727 2.8406 34.3314 3.23049 34.3452 3.26155C34.3659 3.3202 34.3176 3.32366 33.6344 3.32366C32.9513 3.32366 32.903 3.3202 32.9237 3.26155C33.0099 3.02692 33.6172 1.59847 33.6344 1.59847C33.6448 1.59847 33.8035 1.96076 33.9864 2.39895Z" fill="#2367CC"/>
<path id="Vector_8" d="M37.0498 2.92686V5.46289H37.7226H38.3955L38.4024 3.83776L38.4127 2.20918L39.4892 3.83776L40.5657 5.46289H41.38H42.1909V2.92686V0.390832H41.5353H40.8797V1.92625C40.8797 2.91651 40.8659 3.46167 40.8452 3.46167C40.828 3.46167 40.3518 2.77159 39.786 1.92625L38.7646 0.390832H37.9055H37.0498V2.92686Z" fill="#2367CC"/>
<path id="Vector_9" d="M6.51465 9.48253V12.0186H8.65388H10.7931V11.4665V10.9144H9.32671H7.8603L7.85685 10.7592C7.85685 10.6729 7.8534 10.5487 7.8534 10.4831C7.8534 10.4176 7.85685 10.2934 7.85685 10.2071L7.8603 10.0518H9.2922H10.7241V9.48253V8.91321H9.2853H7.84304V8.49917V8.08512H9.31981H10.7931V7.51581V6.9465H8.65388H6.51465V9.48253Z" fill="#00B0F0"/>
<path id="Vector_10" d="M11.1626 7.0224C11.6111 7.51581 13.3121 9.44802 13.3121 9.46527C13.3121 9.47562 12.8981 9.95178 12.3943 10.5211C11.8906 11.087 11.3834 11.6563 11.2695 11.7839L11.0625 12.0186H11.9044H12.7463L13.4295 11.225C13.8056 10.7868 14.1264 10.4314 14.1437 10.4314C14.1575 10.4314 14.4784 10.7868 14.8545 11.225L15.5376 12.0186H16.3968C17.2042 12.0186 17.2525 12.0151 17.2076 11.9599C17.1524 11.8874 16.0794 10.6695 15.4445 9.95178C15.1995 9.68265 15.0028 9.44802 15.0028 9.43422C15.0028 9.42387 15.4859 8.87181 16.0725 8.20934C16.6625 7.54686 17.1524 6.99135 17.1628 6.9741C17.1731 6.9603 16.8039 6.9465 16.3416 6.94995H15.5031L14.8821 7.67453C14.5405 8.07477 14.2368 8.42326 14.2092 8.44741C14.1609 8.49227 14.0781 8.40946 13.4881 7.72283L12.8187 6.9465H11.9561H11.0936L11.1626 7.0224Z" fill="#00B0F0"/>
<path id="Vector_11" d="M17.4863 9.47907V12.0186H18.1592H18.832V11.1905V10.3624H19.7739C20.602 10.3624 20.7504 10.3555 20.985 10.2934C21.3335 10.2071 21.5612 10.0794 21.7993 9.84482C22.5584 9.10643 22.379 7.68143 21.4646 7.19837C21.0264 6.96375 21.0575 6.9672 19.1874 6.9534L17.4863 6.94305V9.47907ZM20.5606 8.12308C20.8919 8.23694 21.0333 8.61993 20.8643 8.95117C20.74 9.19959 20.6434 9.22375 19.6704 9.22375H18.832V8.65443V8.08512H19.6394C20.15 8.08512 20.4847 8.09892 20.5606 8.12308Z" fill="#00B0F0"/>
<path id="Vector_12" d="M22.9043 9.47907V12.0186H23.5599H24.2154V11.1387V10.2554L24.4984 10.2658L24.7848 10.2761L25.5404 11.1456L26.2995 12.0186H27.1034C27.5451 12.0186 27.9073 12.0117 27.9073 12.0013C27.9073 11.991 27.552 11.5976 27.1138 11.1215C26.679 10.6488 26.3167 10.2451 26.3133 10.2244C26.3064 10.2037 26.4099 10.1519 26.541 10.1036C27.0171 9.93453 27.3553 9.62054 27.5278 9.18234C27.6037 8.99257 27.6141 8.91321 27.6141 8.55092C27.6141 8.15758 27.6072 8.12653 27.5037 7.9057C27.307 7.48821 26.9516 7.19147 26.4582 7.0293C26.2891 6.9741 26.0924 6.9672 24.5881 6.9534L22.9043 6.94305V9.47907ZM26.0441 8.17138C26.2029 8.26454 26.2926 8.42671 26.2926 8.61993C26.2926 8.8235 26.1994 8.97532 26.0269 9.06503C25.8992 9.13404 25.8337 9.13749 25.0608 9.13749H24.2327L24.2223 8.60958L24.212 8.08167L25.0677 8.09202C25.8544 8.10237 25.9337 8.10927 26.0441 8.17138Z" fill="#00B0F0"/>
<path id="Vector_13" d="M28.3896 9.48253V12.0186H30.5289H32.6681V11.4665V10.9144H31.2017H29.7353V10.4831V10.0518H31.1672H32.5991V9.48253V8.91321H31.1672H29.7353V8.49917V8.08512H31.2017H32.6681V7.51581V6.9465H30.5289H28.3896V9.48253Z" fill="#00B0F0"/>
<path id="Vector_14" d="M34.7041 6.98445C34.3314 7.03621 33.9933 7.20182 33.7311 7.45025C33.2722 7.88845 33.1549 8.69239 33.4654 9.29966C33.6207 9.60329 33.9933 9.88277 34.3901 9.99318C34.4591 10.0104 34.9353 10.038 35.4459 10.0484C36.2568 10.0656 36.3879 10.076 36.4672 10.1312C36.7053 10.2899 36.695 10.704 36.45 10.8385C36.3568 10.8903 36.1705 10.8972 34.9042 10.9075L33.4619 10.9179V11.4699V12.0186H35.0077C36.695 12.0186 36.7295 12.0151 37.147 11.8081C37.6645 11.5528 37.9819 11.0214 37.9819 10.4072C37.9819 9.65849 37.5921 9.15474 36.8778 8.97877C36.7916 8.95807 36.3258 8.93392 35.8427 8.92701C35.339 8.91666 34.9215 8.89251 34.8663 8.87181C34.5902 8.76485 34.5523 8.33355 34.8041 8.16448C34.8835 8.10927 35.025 8.09892 36.1325 8.08512L37.3678 8.06787L37.6231 7.51581C37.7646 7.21218 37.8784 6.9603 37.8784 6.95685C37.8784 6.93269 34.8697 6.95685 34.7041 6.98445Z" fill="#00B0F0"/>
<path id="Vector_15" d="M39.7139 6.98445C38.9375 7.11557 38.4303 7.60207 38.3268 8.3232C38.2337 8.98912 38.5235 9.59294 39.0617 9.85862C39.3964 10.0208 39.6207 10.0518 40.4937 10.0518C41.339 10.0518 41.4494 10.0691 41.5805 10.2175C41.6737 10.3175 41.6944 10.5349 41.6254 10.666C41.5081 10.8972 41.5046 10.8972 39.9071 10.9075L38.4648 10.9179V11.4665V12.0186H40.0106C41.2838 12.0186 41.5909 12.0082 41.7599 11.9668C42.4535 11.7874 42.8882 11.3147 42.9814 10.6384C43.0952 9.79651 42.6777 9.16509 41.8876 8.97877C41.7979 8.95807 41.3148 8.93046 40.8111 8.91666C39.9692 8.89596 39.8898 8.88906 39.8036 8.82695C39.6242 8.69584 39.5897 8.40946 39.7311 8.24729C39.8691 8.09547 39.9485 8.08512 41.1975 8.08512H42.381L42.6122 7.57447C42.7399 7.29498 42.8537 7.03966 42.8641 7.00515C42.8882 6.94995 42.8054 6.9465 41.3942 6.94995C40.5696 6.9534 39.8139 6.9672 39.7139 6.98445Z" fill="#00B0F0"/>
</g>
</svg>
