<svg width="39" height="16" viewBox="0 0 39 16" fill="none" xmlns="http://www.w3.org/2000/svg">
<g id="Apple logo" clip-path="url(#clip0_427_10644)">
<g id="Group">
<path id="Vector" d="M7.51147 2.41913C7.06862 2.94316 6.36007 3.35648 5.65152 3.29743C5.56295 2.58888 5.90984 1.83605 6.31579 1.37106C6.75863 0.832267 7.53361 0.448468 8.16097 0.418945C8.23478 1.15702 7.94693 1.88033 7.51147 2.41913ZM8.15359 3.43767C7.12767 3.37862 6.24936 4.02075 5.76223 4.02075C5.26772 4.02075 4.52227 3.46719 3.71038 3.48195C2.65494 3.49671 1.6733 4.09455 1.13451 5.04667C0.0273951 6.9509 0.846657 9.77034 1.91686 11.3203C2.4409 12.0879 3.06826 12.9293 3.8949 12.8998C4.67726 12.8703 4.98725 12.3905 5.93199 12.3905C6.8841 12.3905 7.15719 12.8998 7.98383 12.885C8.84 12.8703 9.37879 12.1174 9.90283 11.3498C10.5007 10.4789 10.7442 9.63011 10.759 9.58582C10.7442 9.57106 9.10571 8.9437 9.09094 7.05423C9.07618 5.47475 10.3826 4.72192 10.4416 4.67763C9.70355 3.58528 8.55215 3.46719 8.15359 3.43767ZM14.0803 1.29725V12.8038H15.8665V8.86989H18.339C20.5975 8.86989 22.1844 7.31994 22.1844 5.07619C22.1844 2.83245 20.627 1.29725 18.3981 1.29725H14.0803ZM15.8665 2.80292H17.9257C19.4756 2.80292 20.3613 3.62957 20.3613 5.08357C20.3613 6.53758 19.4756 7.3716 17.9183 7.3716H15.8665V2.80292ZM25.4467 12.8924C26.5685 12.8924 27.6092 12.3241 28.0816 11.4236H28.1185V12.8038H29.7718V7.07637C29.7718 5.41571 28.4432 4.3455 26.3988 4.3455C24.5019 4.3455 23.0996 5.43047 23.0479 6.92138H24.6569C24.7898 6.21283 25.4467 5.74784 26.3471 5.74784C27.4395 5.74784 28.0521 6.25711 28.0521 7.19446V7.82921L25.8231 7.96206C23.7491 8.08753 22.6272 8.93632 22.6272 10.4125C22.6272 11.9034 23.786 12.8924 25.4467 12.8924ZM25.9264 11.527C24.9743 11.527 24.3691 11.0694 24.3691 10.3682C24.3691 9.64487 24.9522 9.22417 26.0666 9.15774L28.0521 9.03227V9.68177C28.0521 10.7594 27.1369 11.527 25.9264 11.527ZM31.9786 15.9333C33.7205 15.9333 34.5397 15.269 35.2557 13.2541L38.3925 4.45621H36.5768L34.4733 11.2539H34.4364L32.3329 4.45621H30.4656L33.4917 12.8334L33.3293 13.3426C33.0562 14.2062 32.6134 14.5383 31.8236 14.5383C31.6834 14.5383 31.4103 14.5235 31.2996 14.5088V15.889C31.4029 15.9185 31.8458 15.9333 31.9786 15.9333Z" fill="#2367CC"/>
</g>
</g>
<defs>
<clipPath id="clip0_427_10644">
<rect width="37.7851" height="15.5716" fill="white" transform="translate(0.607422 0.418945)"/>
</clipPath>
</defs>
</svg>
