<svg width="30" height="25" viewBox="0 0 30 25" fill="none" xmlns="http://www.w3.org/2000/svg">
<path d="M6 20V11C6 7.68629 8.68629 5 12 5V5C15.3137 5 18 7.68629 18 11V20M6 20H18M6 20H4M18 20H20" stroke="#32395F" stroke-width="2" stroke-linecap="round" stroke-linejoin="round"/>
<path d="M11 23L13 23" stroke="#32395F" stroke-width="2" stroke-linecap="round" stroke-linejoin="round"/>
<circle cx="12" cy="4" r="1" stroke="#32395F" stroke-width="2"/>
<rect x="14.5" y="0.5" width="15" height="15" rx="7.5" fill="#FF0000"/>
<path d="M21.7415 3.65341C22.1307 3.65625 22.5142 3.72727 22.892 3.86648C23.2699 4.00568 23.6108 4.23295 23.9148 4.5483C24.2216 4.86364 24.4659 5.28977 24.6477 5.8267C24.8324 6.3608 24.9261 7.02557 24.929 7.82102C24.929 8.58523 24.8523 9.26562 24.6989 9.86222C24.5455 10.456 24.3253 10.9574 24.0384 11.3665C23.7543 11.7756 23.4091 12.0866 23.0028 12.2997C22.5966 12.5128 22.1392 12.6193 21.6307 12.6193C21.1108 12.6193 20.6491 12.517 20.2457 12.3125C19.8423 12.108 19.5142 11.8253 19.2614 11.4645C19.0085 11.1009 18.8509 10.6832 18.7884 10.2116H20.0881C20.1733 10.5866 20.3466 10.8906 20.608 11.1236C20.8722 11.3537 21.2131 11.4688 21.6307 11.4688C22.2699 11.4688 22.7685 11.1903 23.1264 10.6335C23.4844 10.0739 23.6648 9.29261 23.6676 8.28977H23.5994C23.4517 8.53409 23.267 8.74432 23.0455 8.92045C22.8267 9.09659 22.581 9.23295 22.3082 9.32955C22.0355 9.42614 21.7443 9.47443 21.4347 9.47443C20.9318 9.47443 20.4744 9.35085 20.0625 9.10369C19.6506 8.85653 19.3224 8.51705 19.0781 8.08523C18.8338 7.65341 18.7116 7.16051 18.7116 6.60653C18.7116 6.0554 18.8366 5.5554 19.0866 5.10653C19.3395 4.65767 19.6918 4.30256 20.1435 4.04119C20.598 3.77699 21.1307 3.64773 21.7415 3.65341ZM21.7457 4.76136C21.4134 4.76136 21.1136 4.84375 20.8466 5.00852C20.5824 5.17045 20.3736 5.39062 20.2202 5.66903C20.0668 5.9446 19.9901 6.25142 19.9901 6.58949C19.9901 6.92756 20.0639 7.23437 20.2116 7.50994C20.3622 7.78267 20.5668 8 20.8253 8.16193C21.0866 8.32102 21.3849 8.40057 21.7202 8.40057C21.9702 8.40057 22.2031 8.35227 22.419 8.25568C22.6349 8.15909 22.8239 8.02557 22.9858 7.85511C23.1477 7.68182 23.2741 7.4858 23.3651 7.26705C23.456 7.0483 23.5014 6.81818 23.5014 6.5767C23.5014 6.25568 23.4247 5.95739 23.2713 5.68182C23.1207 5.40625 22.9134 5.18466 22.6491 5.01705C22.3849 4.84659 22.0838 4.76136 21.7457 4.76136Z" fill="white"/>
<rect x="14.5" y="0.5" width="15" height="15" rx="7.5" stroke="white"/>
</svg>
