<svg width="109" height="44" viewBox="0 0 109 44" fill="none" xmlns="http://www.w3.org/2000/svg">
<path d="M5.74219 16.8184V22.2188C5.74219 23.3854 5.86979 24.11 6.125 24.3926C6.47135 24.7936 6.99544 24.9941 7.69727 24.9941H8.4082V25.5H0.464844V24.9941H1.16211C1.94596 24.9941 2.50651 24.7389 2.84375 24.2285C3.02604 23.946 3.11719 23.276 3.11719 22.2188V10.2422C3.11719 9.07552 2.99414 8.35091 2.74805 8.06836C2.39258 7.66732 1.86393 7.4668 1.16211 7.4668H0.464844V6.96094H7.25977C8.91862 6.96094 10.2266 7.13411 11.1836 7.48047C12.1406 7.81771 12.9473 8.39193 13.6035 9.20312C14.2598 10.0143 14.5879 10.9759 14.5879 12.0879C14.5879 13.6009 14.0866 14.8314 13.084 15.7793C12.0905 16.7272 10.6823 17.2012 8.85938 17.2012C8.41276 17.2012 7.92969 17.1693 7.41016 17.1055C6.89062 17.0417 6.33464 16.946 5.74219 16.8184ZM5.74219 16.0391C6.22526 16.1302 6.65365 16.1986 7.02734 16.2441C7.40104 16.2897 7.72005 16.3125 7.98438 16.3125C8.93229 16.3125 9.74805 15.9479 10.4316 15.2188C11.1243 14.4805 11.4707 13.528 11.4707 12.3613C11.4707 11.5592 11.3066 10.8164 10.9785 10.1328C10.6504 9.4401 10.1855 8.92513 9.58398 8.58789C8.98242 8.24154 8.29883 8.06836 7.5332 8.06836C7.06836 8.06836 6.47135 8.15495 5.74219 8.32812V16.0391ZM20.4876 6.05859V22.6699C20.4876 23.4538 20.5423 23.9733 20.6516 24.2285C20.7701 24.4837 20.9479 24.6797 21.1848 24.8164C21.4218 24.944 21.8639 25.0078 22.511 25.0078V25.5H16.3723V25.0078C16.9466 25.0078 17.3385 24.9486 17.5481 24.8301C17.7578 24.7116 17.9218 24.5156 18.0403 24.2422C18.1588 23.9688 18.218 23.4447 18.218 22.6699V11.2949C18.218 9.88216 18.1861 9.01628 18.1223 8.69727C18.0585 8.36914 17.9537 8.14583 17.8079 8.02734C17.6712 7.90885 17.4934 7.84961 17.2747 7.84961C17.0377 7.84961 16.7369 7.92253 16.3723 8.06836L16.1399 7.58984L19.8723 6.05859H20.4876ZM30.7896 23.6953C29.5045 24.6888 28.6978 25.263 28.3697 25.418C27.8775 25.6458 27.3534 25.7598 26.7974 25.7598C25.9315 25.7598 25.216 25.4635 24.6509 24.8711C24.0949 24.2786 23.817 23.4993 23.817 22.5332C23.817 21.9225 23.9537 21.3939 24.2271 20.9473C24.6008 20.3275 25.2479 19.7441 26.1685 19.1973C27.0982 18.6504 28.6386 17.985 30.7896 17.2012V16.709C30.7896 15.4603 30.5891 14.6035 30.188 14.1387C29.7961 13.6738 29.2219 13.4414 28.4654 13.4414C27.8912 13.4414 27.4354 13.5964 27.0982 13.9062C26.7518 14.2161 26.5787 14.5716 26.5787 14.9727L26.606 15.7656C26.606 16.1849 26.4966 16.5085 26.2779 16.7363C26.0683 16.9642 25.7903 17.0781 25.4439 17.0781C25.1067 17.0781 24.8287 16.9596 24.6099 16.7227C24.4003 16.4857 24.2955 16.1621 24.2955 15.752C24.2955 14.9681 24.6965 14.248 25.4986 13.5918C26.3007 12.9355 27.4263 12.6074 28.8755 12.6074C29.9875 12.6074 30.899 12.7943 31.6099 13.168C32.1477 13.4505 32.5442 13.8926 32.7994 14.4941C32.9634 14.8861 33.0455 15.6882 33.0455 16.9004V21.1523C33.0455 22.3464 33.0683 23.0801 33.1138 23.3535C33.1594 23.6178 33.2323 23.7956 33.3326 23.8867C33.442 23.9779 33.565 24.0234 33.7017 24.0234C33.8476 24.0234 33.9752 23.9915 34.0845 23.9277C34.2759 23.8092 34.6451 23.4766 35.192 22.9297V23.6953C34.1711 25.0625 33.1959 25.7461 32.2662 25.7461C31.8196 25.7461 31.4641 25.5911 31.1998 25.2812C30.9354 24.9714 30.7987 24.4427 30.7896 23.6953ZM30.7896 22.8066V18.0352C29.4133 18.582 28.5246 18.9694 28.1236 19.1973C27.4035 19.5983 26.8886 20.0176 26.5787 20.4551C26.2688 20.8926 26.1138 21.3711 26.1138 21.8906C26.1138 22.5469 26.3098 23.0938 26.7017 23.5312C27.0936 23.9596 27.5448 24.1738 28.0552 24.1738C28.7479 24.1738 29.6594 23.7181 30.7896 22.8066ZM39.5057 15.2598C40.9732 13.4915 42.3722 12.6074 43.703 12.6074C44.3866 12.6074 44.9745 12.7806 45.4666 13.127C45.9588 13.4642 46.3508 14.0247 46.6424 14.8086C46.8429 15.3555 46.9432 16.194 46.9432 17.3242V22.6699C46.9432 23.4629 47.007 24.0007 47.1346 24.2832C47.2349 24.5111 47.3944 24.6888 47.6131 24.8164C47.841 24.944 48.2557 25.0078 48.8573 25.0078V25.5H42.6639V25.0078H42.9237C43.507 25.0078 43.9126 24.9212 44.1405 24.748C44.3774 24.5658 44.5415 24.3014 44.6327 23.9551C44.6691 23.8184 44.6873 23.39 44.6873 22.6699V17.543C44.6873 16.4036 44.537 15.5788 44.2362 15.0684C43.9445 14.5488 43.4478 14.2891 42.7459 14.2891C41.6613 14.2891 40.5812 14.8815 39.5057 16.0664V22.6699C39.5057 23.5176 39.5558 24.0417 39.6561 24.2422C39.7837 24.5065 39.9569 24.7025 40.1756 24.8301C40.4035 24.9486 40.8592 25.0078 41.5428 25.0078V25.5H35.3495V25.0078H35.6229C36.2609 25.0078 36.6893 24.8483 36.908 24.5293C37.1359 24.2012 37.2498 23.5814 37.2498 22.6699V18.0215C37.2498 16.5176 37.2134 15.6016 37.1405 15.2734C37.0767 14.9453 36.9718 14.722 36.826 14.6035C36.6893 14.485 36.5024 14.4258 36.2655 14.4258C36.0103 14.4258 35.7049 14.4941 35.3495 14.6309L35.1444 14.1387L38.9178 12.6074H39.5057V15.2598ZM52.7609 6.05859C53.1437 6.05859 53.4672 6.19531 53.7316 6.46875C54.005 6.73307 54.1417 7.05664 54.1417 7.43945C54.1417 7.82227 54.005 8.15039 53.7316 8.42383C53.4672 8.69727 53.1437 8.83398 52.7609 8.83398C52.378 8.83398 52.0499 8.69727 51.7765 8.42383C51.503 8.15039 51.3663 7.82227 51.3663 7.43945C51.3663 7.05664 51.4985 6.73307 51.7628 6.46875C52.0363 6.19531 52.3689 6.05859 52.7609 6.05859ZM53.8956 12.6074V22.6699C53.8956 23.4538 53.9503 23.9779 54.0597 24.2422C54.1782 24.4974 54.3468 24.6888 54.5655 24.8164C54.7934 24.944 55.2036 25.0078 55.796 25.0078V25.5H49.712V25.0078C50.3227 25.0078 50.7329 24.9486 50.9425 24.8301C51.1521 24.7116 51.3162 24.5156 51.4347 24.2422C51.5623 23.9688 51.6261 23.4447 51.6261 22.6699V17.8438C51.6261 16.4857 51.5851 15.6061 51.503 15.2051C51.4392 14.9134 51.339 14.7129 51.2023 14.6035C51.0655 14.485 50.8787 14.4258 50.6417 14.4258C50.3865 14.4258 50.0766 14.4941 49.712 14.6309L49.5206 14.1387L53.2941 12.6074H53.8956Z" fill="#32395F"/>
<path d="M72.2641 20.373L72.7152 20.4688L71.1293 25.5H56.7738V24.9941H57.4711C58.2549 24.9941 58.8155 24.7389 59.1527 24.2285C59.3441 23.9368 59.4398 23.2624 59.4398 22.2051V10.2422C59.4398 9.08464 59.3122 8.36003 59.057 8.06836C58.7016 7.66732 58.1729 7.4668 57.4711 7.4668H56.7738V6.96094H65.1684V7.4668C64.184 7.45768 63.4913 7.54883 63.0902 7.74023C62.6983 7.93164 62.4294 8.17318 62.2836 8.46484C62.1378 8.75651 62.0648 9.45378 62.0648 10.5566V22.2051C62.0648 22.9616 62.1378 23.4811 62.2836 23.7637C62.393 23.9551 62.5616 24.0964 62.7895 24.1875C63.0173 24.2786 63.7283 24.3242 64.9223 24.3242H66.2758C67.6977 24.3242 68.6957 24.2194 69.2699 24.0098C69.8441 23.8001 70.3682 23.431 70.8422 22.9023C71.3161 22.3646 71.7901 21.5215 72.2641 20.373ZM77.111 6.05859C77.4938 6.05859 77.8174 6.19531 78.0817 6.46875C78.3552 6.73307 78.4919 7.05664 78.4919 7.43945C78.4919 7.82227 78.3552 8.15039 78.0817 8.42383C77.8174 8.69727 77.4938 8.83398 77.111 8.83398C76.7282 8.83398 76.4001 8.69727 76.1266 8.42383C75.8532 8.15039 75.7165 7.82227 75.7165 7.43945C75.7165 7.05664 75.8486 6.73307 76.113 6.46875C76.3864 6.19531 76.7191 6.05859 77.111 6.05859ZM78.2458 12.6074V22.6699C78.2458 23.4538 78.3005 23.9779 78.4098 24.2422C78.5283 24.4974 78.697 24.6888 78.9157 24.8164C79.1436 24.944 79.5537 25.0078 80.1462 25.0078V25.5H74.0622V25.0078C74.6729 25.0078 75.083 24.9486 75.2927 24.8301C75.5023 24.7116 75.6664 24.5156 75.7848 24.2422C75.9124 23.9688 75.9762 23.4447 75.9762 22.6699V17.8438C75.9762 16.4857 75.9352 15.6061 75.8532 15.2051C75.7894 14.9134 75.6891 14.7129 75.5524 14.6035C75.4157 14.485 75.2289 14.4258 74.9919 14.4258C74.7367 14.4258 74.4268 14.4941 74.0622 14.6309L73.8708 14.1387L77.6442 12.6074H78.2458ZM85.0888 15.2598C86.5563 13.4915 87.9554 12.6074 89.2861 12.6074C89.9697 12.6074 90.5576 12.7806 91.0498 13.127C91.542 13.4642 91.9339 14.0247 92.2255 14.8086C92.4261 15.3555 92.5263 16.194 92.5263 17.3242V22.6699C92.5263 23.4629 92.5901 24.0007 92.7177 24.2832C92.818 24.5111 92.9775 24.6888 93.1963 24.8164C93.4241 24.944 93.8388 25.0078 94.4404 25.0078V25.5H88.247V25.0078H88.5068C89.0901 25.0078 89.4957 24.9212 89.7236 24.748C89.9606 24.5658 90.1246 24.3014 90.2158 23.9551C90.2522 23.8184 90.2705 23.39 90.2705 22.6699V17.543C90.2705 16.4036 90.1201 15.5788 89.8193 15.0684C89.5276 14.5488 89.0309 14.2891 88.3291 14.2891C87.2444 14.2891 86.1643 14.8815 85.0888 16.0664V22.6699C85.0888 23.5176 85.139 24.0417 85.2392 24.2422C85.3668 24.5065 85.54 24.7025 85.7588 24.8301C85.9866 24.9486 86.4423 25.0078 87.1259 25.0078V25.5H80.9326V25.0078H81.206C81.844 25.0078 82.2724 24.8483 82.4912 24.5293C82.719 24.2012 82.833 23.5814 82.833 22.6699V18.0215C82.833 16.5176 82.7965 15.6016 82.7236 15.2734C82.6598 14.9453 82.555 14.722 82.4091 14.6035C82.2724 14.485 82.0856 14.4258 81.8486 14.4258C81.5934 14.4258 81.288 14.4941 80.9326 14.6309L80.7275 14.1387L84.5009 12.6074H85.0888V15.2598ZM98.8635 6.05859V18.5137L102.049 15.6152C102.724 14.9954 103.115 14.6035 103.225 14.4395C103.298 14.3301 103.334 14.2207 103.334 14.1113C103.334 13.929 103.257 13.7741 103.102 13.6465C102.956 13.5098 102.71 13.4323 102.364 13.4141V12.9766H107.805V13.4141C107.058 13.4323 106.433 13.5462 105.932 13.7559C105.44 13.9655 104.897 14.3392 104.305 14.877L101.092 17.8438L104.305 21.9043C105.198 23.0254 105.8 23.7363 106.11 24.0371C106.547 24.4655 106.93 24.7435 107.258 24.8711C107.486 24.9622 107.882 25.0078 108.448 25.0078V25.5H102.364V25.0078C102.71 24.9987 102.942 24.9486 103.061 24.8574C103.188 24.7572 103.252 24.6204 103.252 24.4473C103.252 24.2376 103.07 23.9004 102.705 23.4355L98.8635 18.5273V22.6836C98.8635 23.4948 98.9182 24.028 99.0276 24.2832C99.1461 24.5384 99.3101 24.7207 99.5198 24.8301C99.7294 24.9395 100.185 24.9987 100.887 25.0078V25.5H94.5159V25.0078C95.1539 25.0078 95.6324 24.9303 95.9514 24.7754C96.1428 24.6751 96.2886 24.5202 96.3889 24.3105C96.5256 24.0098 96.594 23.4902 96.594 22.752V11.3496C96.594 9.90039 96.5621 9.01628 96.4983 8.69727C96.4345 8.36914 96.3297 8.14583 96.1838 8.02734C96.038 7.89974 95.8466 7.83594 95.6096 7.83594C95.4182 7.83594 95.1311 7.91341 94.7483 8.06836L94.5159 7.58984L98.2346 6.05859H98.8635Z" fill="#FF0000"/>
<path d="M19.1533 39.0586V39.752H18.2646V41.5H17.459V39.752H14.6562V39.127L17.7275 34.7422H18.2646V39.0586H19.1533ZM17.459 39.0586V35.7725L15.1348 39.0586H17.459ZM19.5709 41.5V41.3193H19.8199C20.0999 41.3193 20.2984 41.2298 20.4156 41.0508C20.4872 40.9434 20.523 40.7025 20.523 40.3281V36.0508C20.523 35.6374 20.4775 35.3786 20.3863 35.2744C20.2594 35.1312 20.0706 35.0596 19.8199 35.0596H19.5709V34.8789H22.2662C23.2558 34.8789 24.0077 34.9912 24.5221 35.2158C25.0396 35.4404 25.4547 35.8148 25.7672 36.3389C26.0829 36.863 26.2408 37.4684 26.2408 38.1553C26.2408 39.0765 25.9609 39.8464 25.401 40.4648C24.7727 41.1549 23.8157 41.5 22.5299 41.5H19.5709ZM21.4605 41.0215C21.874 41.1126 22.2206 41.1582 22.5006 41.1582C23.2558 41.1582 23.8824 40.8929 24.3805 40.3623C24.8785 39.8317 25.1275 39.1123 25.1275 38.2041C25.1275 37.2894 24.8785 36.5684 24.3805 36.041C23.8824 35.5137 23.2428 35.25 22.4615 35.25C22.1686 35.25 21.8349 35.2972 21.4605 35.3916V41.0215ZM27.591 38.7119C27.5878 39.376 27.7489 39.8968 28.0744 40.2744C28.3999 40.652 28.7824 40.8408 29.2219 40.8408C29.5148 40.8408 29.7688 40.7611 29.9836 40.6016C30.2017 40.4388 30.384 40.1621 30.5305 39.7715L30.6818 39.8691C30.6135 40.3151 30.4149 40.722 30.0861 41.0898C29.7574 41.4544 29.3456 41.6367 28.8508 41.6367C28.3137 41.6367 27.8531 41.4284 27.4689 41.0117C27.0881 40.5918 26.8977 40.0286 26.8977 39.3223C26.8977 38.5573 27.093 37.9616 27.4836 37.5352C27.8775 37.1055 28.3706 36.8906 28.9631 36.8906C29.4644 36.8906 29.8762 37.0566 30.1984 37.3887C30.5207 37.7174 30.6818 38.1585 30.6818 38.7119H27.591ZM27.591 38.4287H29.6613C29.6451 38.1423 29.6109 37.9404 29.5588 37.8232C29.4774 37.641 29.3553 37.4977 29.1926 37.3936C29.0331 37.2894 28.8654 37.2373 28.6896 37.2373C28.4195 37.2373 28.177 37.3431 27.9621 37.5547C27.7505 37.763 27.6268 38.0544 27.591 38.4287ZM32.4861 37.8428C33.0102 37.2113 33.5099 36.8955 33.9852 36.8955C34.2293 36.8955 34.4393 36.9574 34.615 37.0811C34.7908 37.2015 34.9308 37.4017 35.035 37.6816C35.1066 37.877 35.1424 38.1764 35.1424 38.5801V40.4893C35.1424 40.7725 35.1652 40.9645 35.2107 41.0654C35.2466 41.1468 35.3035 41.2103 35.3816 41.2559C35.463 41.3014 35.6111 41.3242 35.826 41.3242V41.5H33.6141V41.3242H33.7068C33.9152 41.3242 34.06 41.2933 34.1414 41.2314C34.226 41.1663 34.2846 41.0719 34.3172 40.9482C34.3302 40.8994 34.3367 40.7464 34.3367 40.4893V38.6582C34.3367 38.2513 34.283 37.9567 34.1756 37.7744C34.0714 37.5889 33.894 37.4961 33.6434 37.4961C33.256 37.4961 32.8702 37.7077 32.4861 38.1309V40.4893C32.4861 40.792 32.504 40.9792 32.5398 41.0508C32.5854 41.1452 32.6473 41.2152 32.7254 41.2607C32.8068 41.3031 32.9695 41.3242 33.2137 41.3242V41.5H31.0018V41.3242H31.0994C31.3273 41.3242 31.4803 41.2673 31.5584 41.1533C31.6398 41.0361 31.6805 40.8148 31.6805 40.4893V38.8291C31.6805 38.292 31.6674 37.9648 31.6414 37.8477C31.6186 37.7305 31.5812 37.6507 31.5291 37.6084C31.4803 37.5661 31.4135 37.5449 31.3289 37.5449C31.2378 37.5449 31.1287 37.5693 31.0018 37.6182L30.9285 37.4424L32.2762 36.8955H32.4861V37.8428ZM37.3813 35.5576V37.0273H38.4262V37.3691H37.3813V40.2695C37.3813 40.5592 37.4219 40.7546 37.5033 40.8555C37.588 40.9564 37.6954 41.0068 37.8256 41.0068C37.933 41.0068 38.0372 40.9743 38.1381 40.9092C38.239 40.8408 38.3171 40.7415 38.3725 40.6113H38.5629C38.449 40.9303 38.2878 41.1712 38.0795 41.334C37.8712 41.4935 37.6563 41.5732 37.435 41.5732C37.2852 41.5732 37.1387 41.5326 36.9955 41.4512C36.8523 41.3665 36.7465 41.2477 36.6781 41.0947C36.6098 40.9385 36.5756 40.6992 36.5756 40.377V37.3691H35.8676V37.208C36.0466 37.1364 36.2289 37.016 36.4145 36.8467C36.6033 36.6742 36.7709 36.4707 36.9174 36.2363C36.9923 36.1126 37.0964 35.8864 37.2299 35.5576H37.3813ZM41.2998 40.8555C40.8408 41.2103 40.5527 41.4154 40.4355 41.4707C40.2598 41.5521 40.0726 41.5928 39.874 41.5928C39.5648 41.5928 39.3092 41.487 39.1074 41.2754C38.9089 41.0638 38.8096 40.7855 38.8096 40.4404C38.8096 40.2223 38.8584 40.0335 38.9561 39.874C39.0895 39.6527 39.3206 39.4443 39.6494 39.249C39.9814 39.0537 40.5316 38.8161 41.2998 38.5361V38.3604C41.2998 37.9144 41.2282 37.6084 41.085 37.4424C40.945 37.2764 40.7399 37.1934 40.4697 37.1934C40.2646 37.1934 40.1019 37.2487 39.9814 37.3594C39.8577 37.4701 39.7959 37.597 39.7959 37.7402L39.8057 38.0234C39.8057 38.1732 39.7666 38.2887 39.6885 38.3701C39.6136 38.4515 39.5143 38.4922 39.3906 38.4922C39.2702 38.4922 39.1709 38.4499 39.0928 38.3652C39.0179 38.2806 38.9805 38.165 38.9805 38.0186C38.9805 37.7386 39.1237 37.4814 39.4102 37.2471C39.6966 37.0127 40.0986 36.8955 40.6162 36.8955C41.0133 36.8955 41.3389 36.9622 41.5928 37.0957C41.7848 37.1966 41.9264 37.3545 42.0176 37.5693C42.0762 37.7093 42.1055 37.9958 42.1055 38.4287V39.9473C42.1055 40.3737 42.1136 40.6357 42.1299 40.7334C42.1462 40.8278 42.1722 40.8913 42.208 40.9238C42.2471 40.9564 42.291 40.9727 42.3398 40.9727C42.3919 40.9727 42.4375 40.9613 42.4766 40.9385C42.5449 40.8962 42.6768 40.7773 42.8721 40.582V40.8555C42.5075 41.3438 42.1592 41.5879 41.8271 41.5879C41.6676 41.5879 41.5407 41.5326 41.4463 41.4219C41.3519 41.3112 41.3031 41.1224 41.2998 40.8555ZM41.2998 40.5381V38.834C40.8083 39.0293 40.4909 39.1676 40.3477 39.249C40.0905 39.3923 39.9066 39.542 39.7959 39.6982C39.6852 39.8545 39.6299 40.0254 39.6299 40.2109C39.6299 40.4453 39.6999 40.6406 39.8398 40.7969C39.9798 40.9499 40.141 41.0264 40.3232 41.0264C40.5706 41.0264 40.8962 40.8636 41.2998 40.5381ZM44.6471 34.5566V40.4893C44.6471 40.7692 44.6666 40.9548 44.7057 41.0459C44.748 41.137 44.8115 41.207 44.8961 41.2559C44.9807 41.3014 45.1386 41.3242 45.3697 41.3242V41.5H43.1773V41.3242C43.3824 41.3242 43.5224 41.3031 43.5973 41.2607C43.6721 41.2184 43.7307 41.1484 43.773 41.0508C43.8154 40.9531 43.8365 40.766 43.8365 40.4893V36.4268C43.8365 35.9222 43.8251 35.613 43.8023 35.499C43.7796 35.3818 43.7421 35.3021 43.69 35.2598C43.6412 35.2174 43.5777 35.1963 43.4996 35.1963C43.415 35.1963 43.3076 35.2223 43.1773 35.2744L43.0943 35.1035L44.4273 34.5566H44.6471ZM53.4803 34.8789L53.5535 36.4316H53.368C53.3322 36.1582 53.2833 35.9629 53.2215 35.8457C53.1206 35.6569 52.9855 35.5186 52.8162 35.4307C52.6502 35.3395 52.4305 35.2939 52.157 35.2939H51.2244V40.3525C51.2244 40.7594 51.2684 41.0133 51.3563 41.1143C51.4799 41.251 51.6704 41.3193 51.9275 41.3193H52.157V41.5H49.3494V41.3193H49.5838C49.8637 41.3193 50.0623 41.2347 50.1795 41.0654C50.2511 40.9613 50.2869 40.7236 50.2869 40.3525V35.2939H49.491C49.1818 35.2939 48.962 35.3167 48.8318 35.3623C48.6626 35.4242 48.5177 35.543 48.3973 35.7188C48.2768 35.8945 48.2052 36.1322 48.1824 36.4316H47.9969L48.075 34.8789H53.4803ZM54.0687 38.7119C54.0655 39.376 54.2266 39.8968 54.5521 40.2744C54.8777 40.652 55.2602 40.8408 55.6996 40.8408C55.9926 40.8408 56.2465 40.7611 56.4613 40.6016C56.6794 40.4388 56.8617 40.1621 57.0082 39.7715L57.1596 39.8691C57.0912 40.3151 56.8926 40.722 56.5639 41.0898C56.2351 41.4544 55.8233 41.6367 55.3285 41.6367C54.7914 41.6367 54.3308 41.4284 53.9467 41.0117C53.5658 40.5918 53.3754 40.0286 53.3754 39.3223C53.3754 38.5573 53.5707 37.9616 53.9613 37.5352C54.3552 37.1055 54.8484 36.8906 55.4408 36.8906C55.9421 36.8906 56.3539 37.0566 56.6762 37.3887C56.9984 37.7174 57.1596 38.1585 57.1596 38.7119H54.0687ZM54.0687 38.4287H56.1391C56.1228 38.1423 56.0886 37.9404 56.0365 37.8232C55.9551 37.641 55.8331 37.4977 55.6703 37.3936C55.5108 37.2894 55.3432 37.2373 55.1674 37.2373C54.8972 37.2373 54.6547 37.3431 54.4398 37.5547C54.2283 37.763 54.1046 38.0544 54.0687 38.4287ZM61.459 39.8008C61.3385 40.39 61.1025 40.8441 60.751 41.1631C60.3994 41.4788 60.0104 41.6367 59.584 41.6367C59.0762 41.6367 58.6335 41.4235 58.2559 40.9971C57.8783 40.5706 57.6895 39.9945 57.6895 39.2686C57.6895 38.5654 57.8978 37.9941 58.3145 37.5547C58.7344 37.1152 59.2373 36.8955 59.8232 36.8955C60.2627 36.8955 60.624 37.0127 60.9072 37.2471C61.1904 37.4782 61.332 37.7191 61.332 37.9697C61.332 38.0934 61.2913 38.1943 61.21 38.2725C61.1318 38.3473 61.0212 38.3848 60.8779 38.3848C60.6859 38.3848 60.541 38.3229 60.4434 38.1992C60.388 38.1309 60.3506 38.0007 60.3311 37.8086C60.3148 37.6165 60.2497 37.4701 60.1357 37.3691C60.0218 37.2715 59.8639 37.2227 59.6621 37.2227C59.3366 37.2227 59.0745 37.3431 58.876 37.584C58.6123 37.903 58.4805 38.3245 58.4805 38.8486C58.4805 39.3825 58.6107 39.8545 58.8711 40.2646C59.1348 40.6715 59.4896 40.875 59.9355 40.875C60.2546 40.875 60.541 40.766 60.7949 40.5479C60.974 40.3981 61.1481 40.1263 61.3174 39.7324L61.459 39.8008ZM63.317 34.5566V37.8281C63.6783 37.431 63.9648 37.1771 64.1764 37.0664C64.388 36.9525 64.5995 36.8955 64.8111 36.8955C65.065 36.8955 65.2831 36.9655 65.4654 37.1055C65.6477 37.2454 65.7828 37.4652 65.8707 37.7646C65.9326 37.973 65.9635 38.3538 65.9635 38.9072V40.4893C65.9635 40.7725 65.9863 40.9661 66.0318 41.0703C66.0644 41.1484 66.1197 41.2103 66.1979 41.2559C66.276 41.3014 66.4192 41.3242 66.6275 41.3242V41.5H64.4303V41.3242H64.5328C64.7411 41.3242 64.886 41.2933 64.9674 41.2314C65.0488 41.1663 65.1057 41.0719 65.1383 40.9482C65.148 40.8962 65.1529 40.7432 65.1529 40.4893V38.9072C65.1529 38.4189 65.1269 38.0983 65.0748 37.9453C65.026 37.7923 64.9462 37.6784 64.8355 37.6035C64.7249 37.5254 64.5914 37.4863 64.4352 37.4863C64.2757 37.4863 64.1096 37.5286 63.9371 37.6133C63.7646 37.6979 63.5579 37.8688 63.317 38.126V40.4893C63.317 40.7952 63.3333 40.9857 63.3658 41.0605C63.4016 41.1354 63.4651 41.1989 63.5563 41.251C63.6507 41.2998 63.8118 41.3242 64.0396 41.3242V41.5H61.8229V41.3242C62.0214 41.3242 62.1777 41.2933 62.2916 41.2314C62.3567 41.1989 62.4088 41.137 62.4479 41.0459C62.4869 40.9548 62.5064 40.7692 62.5064 40.4893V36.4414C62.5064 35.9303 62.4934 35.6162 62.4674 35.499C62.4446 35.3818 62.4072 35.3021 62.3551 35.2598C62.3063 35.2174 62.2395 35.1963 62.1549 35.1963C62.0865 35.1963 61.9758 35.2223 61.8229 35.2744L61.7545 35.1035L63.0924 34.5566H63.317ZM68.2072 37.8428C68.7313 37.2113 69.231 36.8955 69.7062 36.8955C69.9504 36.8955 70.1604 36.9574 70.3361 37.0811C70.5119 37.2015 70.6519 37.4017 70.7561 37.6816C70.8277 37.877 70.8635 38.1764 70.8635 38.5801V40.4893C70.8635 40.7725 70.8863 40.9645 70.9318 41.0654C70.9676 41.1468 71.0246 41.2103 71.1027 41.2559C71.1841 41.3014 71.3322 41.3242 71.5471 41.3242V41.5H69.3352V41.3242H69.4279C69.6363 41.3242 69.7811 41.2933 69.8625 41.2314C69.9471 41.1663 70.0057 41.0719 70.0383 40.9482C70.0513 40.8994 70.0578 40.7464 70.0578 40.4893V38.6582C70.0578 38.2513 70.0041 37.9567 69.8967 37.7744C69.7925 37.5889 69.6151 37.4961 69.3645 37.4961C68.9771 37.4961 68.5913 37.7077 68.2072 38.1309V40.4893C68.2072 40.792 68.2251 40.9792 68.2609 41.0508C68.3065 41.1452 68.3684 41.2152 68.4465 41.2607C68.5279 41.3031 68.6906 41.3242 68.9348 41.3242V41.5H66.7229V41.3242H66.8205C67.0484 41.3242 67.2014 41.2673 67.2795 41.1533C67.3609 41.0361 67.4016 40.8148 67.4016 40.4893V38.8291C67.4016 38.292 67.3885 37.9648 67.3625 37.8477C67.3397 37.7305 67.3023 37.6507 67.2502 37.6084C67.2014 37.5661 67.1346 37.5449 67.05 37.5449C66.9589 37.5449 66.8498 37.5693 66.7229 37.6182L66.6496 37.4424L67.9973 36.8955H68.2072V37.8428ZM73.991 36.8955C74.6681 36.8955 75.2117 37.1527 75.6219 37.667C75.9702 38.1064 76.1443 38.611 76.1443 39.1807C76.1443 39.5811 76.0483 39.9863 75.8563 40.3965C75.6642 40.8066 75.3989 41.1159 75.0604 41.3242C74.7251 41.5326 74.3507 41.6367 73.9373 41.6367C73.2635 41.6367 72.728 41.3682 72.3309 40.8311C71.9956 40.3786 71.8279 39.8708 71.8279 39.3076C71.8279 38.8975 71.9288 38.4906 72.1307 38.0869C72.3357 37.68 72.6043 37.3805 72.9363 37.1885C73.2684 36.9932 73.6199 36.8955 73.991 36.8955ZM73.8396 37.2129C73.6671 37.2129 73.493 37.265 73.3172 37.3691C73.1447 37.4701 73.0047 37.6491 72.8973 37.9062C72.7898 38.1634 72.7361 38.4938 72.7361 38.8975C72.7361 39.5485 72.8647 40.11 73.1219 40.582C73.3823 41.054 73.7241 41.29 74.1473 41.29C74.463 41.29 74.7234 41.1598 74.9285 40.8994C75.1336 40.639 75.2361 40.1914 75.2361 39.5566C75.2361 38.7624 75.0652 38.1374 74.7234 37.6816C74.4923 37.3691 74.1977 37.2129 73.8396 37.2129ZM78.2416 34.5566V40.4893C78.2416 40.7692 78.2611 40.9548 78.3002 41.0459C78.3425 41.137 78.406 41.207 78.4906 41.2559C78.5753 41.3014 78.7331 41.3242 78.9643 41.3242V41.5H76.7719V41.3242C76.977 41.3242 77.1169 41.3031 77.1918 41.2607C77.2667 41.2184 77.3253 41.1484 77.3676 41.0508C77.4099 40.9531 77.4311 40.766 77.4311 40.4893V36.4268C77.4311 35.9222 77.4197 35.613 77.3969 35.499C77.3741 35.3818 77.3367 35.3021 77.2846 35.2598C77.2357 35.2174 77.1723 35.1963 77.0941 35.1963C77.0095 35.1963 76.9021 35.2223 76.7719 35.2744L76.6889 35.1035L78.0219 34.5566H78.2416ZM81.5742 36.8955C82.2513 36.8955 82.7949 37.1527 83.2051 37.667C83.5534 38.1064 83.7275 38.611 83.7275 39.1807C83.7275 39.5811 83.6315 39.9863 83.4395 40.3965C83.2474 40.8066 82.9821 41.1159 82.6436 41.3242C82.3083 41.5326 81.9339 41.6367 81.5205 41.6367C80.8467 41.6367 80.3112 41.3682 79.9141 40.8311C79.5788 40.3786 79.4111 39.8708 79.4111 39.3076C79.4111 38.8975 79.512 38.4906 79.7139 38.0869C79.9189 37.68 80.1875 37.3805 80.5195 37.1885C80.8516 36.9932 81.2031 36.8955 81.5742 36.8955ZM81.4229 37.2129C81.2503 37.2129 81.0762 37.265 80.9004 37.3691C80.7279 37.4701 80.5879 37.6491 80.4805 37.9062C80.373 38.1634 80.3193 38.4938 80.3193 38.8975C80.3193 39.5485 80.4479 40.11 80.7051 40.582C80.9655 41.054 81.3073 41.29 81.7305 41.29C82.0462 41.29 82.3066 41.1598 82.5117 40.8994C82.7168 40.639 82.8193 40.1914 82.8193 39.5566C82.8193 38.7624 82.6484 38.1374 82.3066 37.6816C82.0755 37.3691 81.7809 37.2129 81.4229 37.2129ZM85.483 39.8691C85.2096 39.7357 84.9996 39.5501 84.8531 39.3125C84.7066 39.0716 84.6334 38.8063 84.6334 38.5166C84.6334 38.0739 84.7994 37.693 85.1314 37.374C85.4667 37.055 85.8948 36.8955 86.4156 36.8955C86.8421 36.8955 87.2115 36.9997 87.524 37.208H88.4713C88.6113 37.208 88.6926 37.2129 88.7154 37.2227C88.7382 37.2292 88.7545 37.2422 88.7643 37.2617C88.7838 37.291 88.7936 37.3431 88.7936 37.418C88.7936 37.5026 88.7854 37.5612 88.7691 37.5938C88.7594 37.61 88.7415 37.623 88.7154 37.6328C88.6926 37.6426 88.6113 37.6475 88.4713 37.6475H87.8902C88.0725 37.8818 88.1637 38.1813 88.1637 38.5459C88.1637 38.9626 88.0042 39.319 87.6852 39.6152C87.3661 39.9115 86.9381 40.0596 86.401 40.0596C86.1796 40.0596 85.9534 40.027 85.7223 39.9619C85.579 40.0856 85.4814 40.1947 85.4293 40.2891C85.3805 40.3802 85.3561 40.4583 85.3561 40.5234C85.3561 40.5788 85.3821 40.6325 85.4342 40.6846C85.4895 40.7367 85.5953 40.7741 85.7516 40.7969C85.8427 40.8099 86.0706 40.8213 86.4352 40.8311C87.1057 40.8473 87.5403 40.8701 87.7389 40.8994C88.0416 40.9417 88.2825 41.054 88.4615 41.2363C88.6438 41.4186 88.735 41.6432 88.735 41.9102C88.735 42.278 88.5624 42.623 88.2174 42.9453C87.7096 43.4206 87.0471 43.6582 86.2301 43.6582C85.6018 43.6582 85.0712 43.5166 84.6383 43.2334C84.3941 43.0706 84.2721 42.9014 84.2721 42.7256C84.2721 42.6475 84.29 42.5693 84.3258 42.4912C84.3811 42.3708 84.4951 42.2031 84.6676 41.9883C84.6904 41.959 84.8564 41.7832 85.1656 41.4609C84.9964 41.36 84.8759 41.2705 84.8043 41.1924C84.7359 41.111 84.7018 41.0199 84.7018 40.9189C84.7018 40.805 84.7473 40.6715 84.8385 40.5186C84.9329 40.3656 85.1477 40.1491 85.483 39.8691ZM86.3326 37.1299C86.0917 37.1299 85.8899 37.2259 85.7271 37.418C85.5644 37.61 85.483 37.9046 85.483 38.3018C85.483 38.8161 85.5937 39.2148 85.815 39.498C85.9843 39.7129 86.1992 39.8203 86.4596 39.8203C86.707 39.8203 86.9104 39.7275 87.0699 39.542C87.2294 39.3564 87.3092 39.0651 87.3092 38.668C87.3092 38.1504 87.1969 37.7451 86.9723 37.4521C86.8063 37.2373 86.593 37.1299 86.3326 37.1299ZM85.4342 41.5C85.2812 41.666 85.1656 41.8206 85.0875 41.9639C85.0094 42.1071 84.9703 42.2389 84.9703 42.3594C84.9703 42.5156 85.0647 42.6523 85.2535 42.7695C85.579 42.9714 86.0494 43.0723 86.6646 43.0723C87.2506 43.0723 87.6819 42.9681 87.9586 42.7598C88.2385 42.5547 88.3785 42.335 88.3785 42.1006C88.3785 41.9313 88.2955 41.8109 88.1295 41.7393C87.9602 41.6676 87.6249 41.6253 87.1236 41.6123C86.3912 41.5928 85.8281 41.5553 85.4342 41.5ZM88.9328 37.0273H91.0178V37.208H90.9152C90.7688 37.208 90.6581 37.2406 90.5832 37.3057C90.5116 37.3675 90.4758 37.4456 90.4758 37.54C90.4758 37.667 90.5295 37.8428 90.6369 38.0674L91.7258 40.3232L92.7268 37.8525C92.7821 37.7191 92.8098 37.5872 92.8098 37.457C92.8098 37.3984 92.7984 37.3545 92.7756 37.3252C92.7495 37.2894 92.7089 37.2617 92.6535 37.2422C92.5982 37.2194 92.5005 37.208 92.3605 37.208V37.0273H93.8156V37.208C93.6952 37.221 93.6024 37.2471 93.5373 37.2861C93.4722 37.3252 93.4006 37.3984 93.3225 37.5059C93.2932 37.5514 93.2378 37.6768 93.1564 37.8818L91.3352 42.3447C91.1594 42.7777 90.9283 43.1048 90.6418 43.3262C90.3586 43.5475 90.0852 43.6582 89.8215 43.6582C89.6294 43.6582 89.4716 43.6029 89.3479 43.4922C89.2242 43.3815 89.1623 43.2546 89.1623 43.1113C89.1623 42.9746 89.2063 42.8639 89.2941 42.7793C89.3853 42.6979 89.509 42.6572 89.6652 42.6572C89.7727 42.6572 89.9191 42.693 90.1047 42.7646C90.2349 42.8135 90.3163 42.8379 90.3488 42.8379C90.4465 42.8379 90.5523 42.7874 90.6662 42.6865C90.7834 42.5856 90.9006 42.3903 91.0178 42.1006L91.3352 41.3242L89.7287 37.9502C89.6799 37.8493 89.6018 37.724 89.4943 37.5742C89.413 37.4603 89.3462 37.3838 89.2941 37.3447C89.2193 37.2926 89.0988 37.2471 88.9328 37.208V37.0273Z" fill="#00B0F0"/>
</svg>
