<svg width="16" height="16" viewBox="0 0 16 16" fill="none" xmlns="http://www.w3.org/2000/svg">
<path d="M9.41782 1.41582L9.41783 1.41582C9.51742 1.43714 9.60943 1.48492 9.68416 1.55411C9.7589 1.62331 9.81361 1.71137 9.84252 1.80903C9.87144 1.90669 9.87351 2.01034 9.8485 2.10907C9.82349 2.2078 9.77233 2.29797 9.7004 2.37009M9.41782 1.41582L9.6532 2.32301M9.41782 1.41582C8.95522 1.31683 8.48055 1.26634 7.99987 1.26634C4.28105 1.26634 1.26654 4.28086 1.26654 7.99967C1.26654 11.7185 4.28105 14.733 7.99987 14.733C11.7187 14.733 14.7332 11.7185 14.7332 7.99967C14.7332 7.73116 14.7177 7.46386 14.6861 7.20113M9.41782 1.41582L13.6986 6.89218C13.771 6.81018 13.8657 6.75091 13.971 6.72151C14.0764 6.69211 14.1881 6.69386 14.2925 6.72654C14.3969 6.75922 14.4897 6.82143 14.5595 6.90567C14.6293 6.98988 14.6733 7.09249 14.6861 7.20113M9.7004 2.37009L9.6532 2.32301M9.7004 2.37009C9.70041 2.37007 9.70043 2.37006 9.70044 2.37005L9.6532 2.32301M9.7004 2.37009C9.49913 2.57219 9.35551 2.8244 9.28442 3.10063C9.21332 3.37688 9.21733 3.6671 9.29604 3.94128C9.37475 4.21545 9.52529 4.46361 9.73209 4.66008C9.9389 4.85654 10.1944 4.99418 10.4723 5.05874M9.6532 2.32301C9.44353 2.53353 9.29392 2.79627 9.21986 3.08402C9.14579 3.37177 9.14997 3.67408 9.23196 3.95967C9.31395 4.24527 9.47076 4.50376 9.68618 4.70841C9.90159 4.91306 10.1678 5.05643 10.4572 5.12367M10.4723 5.05874C10.4723 5.05873 10.4722 5.05872 10.4722 5.05872L10.4572 5.12367M10.4723 5.05874C10.6073 5.08992 10.7262 5.16947 10.8065 5.28236C10.8867 5.39518 10.9229 5.53349 10.9082 5.67117L10.4572 5.12367M10.4723 5.05874L10.4572 5.12367M14.6861 7.20113C14.6861 7.2011 14.6861 7.20106 14.6861 7.20103L14.6199 7.20901L14.6861 7.20123C14.6861 7.2012 14.6861 7.20116 14.6861 7.20113ZM9.40387 1.481L9.40387 1.481L9.40387 1.481ZM13.5577 8.35378L13.5578 8.3538L13.5594 8.35305L13.5896 8.33935L13.5775 8.50367C13.5775 8.50386 13.5774 8.50406 13.5774 8.50425C13.4796 9.58571 13.0694 10.6154 12.3969 11.468C11.7242 12.3207 10.8182 12.9594 9.78898 13.3063C8.75979 13.6532 7.65194 13.6934 6.60034 13.4219C5.54874 13.1504 4.59878 12.579 3.86616 11.7772C3.13353 10.9754 2.64986 9.97793 2.47406 8.90617C2.29825 7.83442 2.43789 6.73467 2.87597 5.74086C3.31405 4.74705 4.03167 3.90208 4.94142 3.30885C5.85096 2.71575 6.91332 2.39988 7.99914 2.39967L8.23975 2.40496L8.32638 2.4103L8.30901 2.44912L8.3089 2.44906L8.30744 2.45296L8.24677 2.61496L8.24674 2.61495L8.24611 2.6168C8.15043 2.89701 8.09987 3.19428 8.09985 3.49967L8.09989 3.50134L8.10322 3.63467L8.10313 3.63468L8.10341 3.63824L8.11474 3.78224L8.11472 3.78224L8.1149 3.78395C8.16471 4.25983 8.33845 4.71432 8.61877 5.10208C8.8991 5.48984 9.27622 5.79731 9.71249 5.99379L9.71248 5.99382L9.71438 5.99461L9.77312 6.01892L9.77939 6.10265L9.77931 6.10266L9.77971 6.1059L9.79638 6.2399L9.79635 6.2399L9.79662 6.24165C9.89456 6.88847 10.2212 7.47872 10.7172 7.90526C11.2132 8.3318 11.8457 8.56636 12.4999 8.56637L12.5019 8.56631L12.6559 8.56164L12.6559 8.56175L12.6597 8.56142L12.8424 8.54542L12.8424 8.54548L12.8451 8.54512C13.0929 8.51303 13.3321 8.44883 13.5577 8.35378ZM10.5184 10.8145C10.3809 10.6769 10.1944 10.5997 9.99987 10.5997C9.80538 10.5997 9.61885 10.6769 9.48132 10.8145C9.3438 10.952 9.26654 11.1385 9.26654 11.333C9.26654 11.5275 9.3438 11.714 9.48132 11.8516C9.61885 11.9891 9.80538 12.0663 9.99987 12.0663C10.1944 12.0663 10.3809 11.9891 10.5184 11.8516C10.6559 11.714 10.7332 11.5275 10.7332 11.333C10.7332 11.1385 10.6559 10.952 10.5184 10.8145ZM5.85175 10.1478C5.71422 10.0103 5.52769 9.93301 5.3332 9.93301C5.13871 9.93301 4.95218 10.0103 4.81466 10.1478C4.67713 10.2853 4.59987 10.4718 4.59987 10.6663C4.59987 10.8608 4.67713 11.0474 4.81466 11.1849C4.95218 11.3224 5.13871 11.3997 5.3332 11.3997C5.52769 11.3997 5.71422 11.3224 5.85175 11.1849C5.98927 11.0474 6.06654 10.8608 6.06654 10.6663C6.06654 10.4718 5.98927 10.2853 5.85175 10.1478ZM8.51841 7.48113C8.38089 7.3436 8.19436 7.26634 7.99987 7.26634C7.80538 7.26634 7.61885 7.3436 7.48132 7.48113C7.3438 7.61866 7.26654 7.80518 7.26654 7.99967C7.26654 8.19417 7.3438 8.38069 7.48132 8.51822C7.61885 8.65575 7.80538 8.73301 7.99987 8.73301C8.19436 8.73301 8.38089 8.65575 8.51841 8.51822C8.65594 8.38069 8.7332 8.19417 8.7332 7.99967C8.7332 7.80518 8.65594 7.61866 8.51841 7.48113ZM5.18508 5.48113C5.04755 5.3436 4.86103 5.26634 4.66654 5.26634C4.47204 5.26634 4.28552 5.3436 4.14799 5.48113C4.01046 5.61866 3.9332 5.80518 3.9332 5.99967C3.9332 6.19417 4.01046 6.38069 4.14799 6.51822C4.28552 6.65575 4.47204 6.73301 4.66654 6.73301C4.86103 6.73301 5.04755 6.65575 5.18508 6.51822C5.32261 6.38069 5.39987 6.19417 5.39987 5.99967C5.39987 5.80518 5.32261 5.61866 5.18508 5.48113Z" fill="white" stroke="white" stroke-width="0.133333"/>
</svg>
