<svg width="286" height="309" viewBox="0 0 286 309" fill="none" xmlns="http://www.w3.org/2000/svg">
<g style="mix-blend-mode:luminosity">
<path d="M127.793 16.6024C127.215 17.5418 126.565 20.7216 126.276 23.7569L125.842 29.2492L121.434 31.345C118.977 32.5013 115.725 34.308 114.207 35.392C112.689 36.5483 111.172 37.4155 110.81 37.4155C110.521 37.4155 107.992 36.4038 105.318 35.1752C97.8022 31.7786 97.8022 31.7786 90.7922 43.8474C87.1788 49.9901 84.7217 54.9766 84.7217 56.2052C84.7217 57.795 85.5889 58.8068 89.7082 61.6975L94.6946 65.1664L94.6224 73.9831V82.7997L89.7082 86.4854C85.9502 89.2316 84.7217 90.6047 84.7217 91.9055C84.7217 94.1458 95.9955 113.803 97.8022 114.742C98.8862 115.32 100.476 114.959 105.173 112.935L111.172 110.334L115.941 113.586C118.615 115.32 121.867 117.127 123.24 117.561L125.698 118.428L126.493 125.004C126.998 129.991 127.504 131.87 128.516 132.592C129.455 133.243 133.069 133.532 141.958 133.532C156.845 133.532 156.556 133.676 157.351 124.643L157.857 118.428L160.386 117.561C161.759 117.127 165.011 115.32 167.685 113.586L172.455 110.334L178.525 112.935C184.018 115.32 184.668 115.465 186.114 114.525C186.981 113.947 190.45 108.672 193.774 102.818C198.544 94.5071 199.7 91.9055 199.122 90.966C198.76 90.3156 196.376 88.2198 193.774 86.2686L189.149 82.7275L189.076 74.0553V65.4554L193.774 61.842C196.376 59.8908 198.76 57.6505 199.049 56.9278C199.555 55.4825 198.688 53.748 191.534 41.3902C186.186 32.0677 185.68 31.8509 178.309 35.1752C175.635 36.4038 173.105 37.4155 172.744 37.4155C172.455 37.4155 170.576 36.3315 168.697 35.0307C166.818 33.8021 163.566 31.9231 161.542 30.9837L157.857 29.3215L157.351 23.8291C156.484 14.2898 157.712 15.0125 142.175 15.0125C129.094 15.0125 128.805 15.0125 127.793 16.6024ZM150.052 23.1065C150.269 24.046 150.63 26.8644 150.991 29.466L151.569 34.1635L158.146 37.4155C161.759 39.2222 166.023 41.7516 167.613 42.9801C169.275 44.281 171.082 45.365 171.732 45.365C172.383 45.365 175.057 44.4255 177.658 43.1969C180.332 42.0406 182.717 41.2457 183.006 41.3902C183.801 41.8961 191.172 54.7598 190.883 55.0489C190.739 55.1934 188.715 56.6388 186.403 58.3732C184.09 60.1076 181.922 61.9866 181.561 62.637C181.272 63.2874 181.272 65.5277 181.705 67.768C182.428 71.5982 182.067 80.7762 181.127 83.1611C180.693 84.4619 183.006 87.0635 188.282 91.2551L191.028 93.4231L187.27 99.9272C185.174 103.468 183.367 106.576 183.223 106.72C183.078 106.937 180.404 105.998 177.225 104.697C171.732 102.384 171.371 102.312 169.781 103.468C164.505 107.371 159.374 110.478 156.411 111.562C154.532 112.285 152.653 113.08 152.148 113.441C151.714 113.803 151.136 116.26 150.847 118.934C150.052 126.883 150.775 126.305 141.813 126.305H133.936L133.575 123.92C133.358 122.692 132.997 119.873 132.635 117.705C132.274 115.465 131.624 113.586 130.973 113.225C130.395 112.935 127.721 111.635 125.047 110.406C122.373 109.178 118.615 106.937 116.592 105.347C114.568 103.757 112.617 102.457 112.256 102.457C111.894 102.457 109.293 103.396 106.547 104.625C103.728 105.781 101.271 106.793 101.054 106.793C100.621 106.793 98.3803 103.324 94.9115 97.2533L92.5989 93.134L97.2963 89.6652C99.8979 87.7862 102.138 85.7627 102.427 85.1846C102.644 84.6787 102.427 82.1493 101.994 79.5477C101.271 75.2839 101.416 71.5259 102.5 65.0941C102.861 63.0706 102.572 62.5647 99.103 59.8186C97.0072 58.2287 94.6946 56.422 93.972 55.9161C92.6711 54.9766 92.7434 54.6153 96.3568 48.328C98.4526 44.6423 100.404 41.5348 100.693 41.3902C100.982 41.1734 103.367 41.9684 106.041 43.1969C108.715 44.3532 111.389 45.365 111.967 45.365C112.545 45.365 114.352 44.281 116.014 42.9801C117.604 41.7516 121.867 39.2222 125.481 37.4155L132.057 34.1635L132.635 30.1887C132.997 28.0207 133.358 25.13 133.575 23.8291L133.936 21.5166H141.813C149.474 21.5166 149.763 21.5888 150.052 23.1065Z" fill="url(#paint0_linear_315_9735)"/>
</g>
<g style="mix-blend-mode:luminosity">
<path d="M132.997 57.1447C122.518 62.5648 119.483 74.9949 126.204 84.9679C129.6 90.0266 134.298 92.6283 140.729 92.9173C146.655 93.2787 150.63 91.9056 154.894 88.1477C161.181 82.6553 162.916 72.4655 158.796 64.9497C155.328 58.5178 149.185 54.9044 141.669 54.8322C138.417 54.7599 136.682 55.2658 132.997 57.1447ZM147.595 63.3598C154.677 67.1177 156.195 76.368 150.63 82.1494C145.644 87.3527 138.345 87.5695 133.43 82.6553C125.698 74.9226 130.901 61.9867 141.814 61.9867C143.62 61.9867 146.222 62.5648 147.595 63.3598Z" fill="url(#paint1_linear_315_9735)"/>
</g>
<g style="mix-blend-mode:luminosity">
<path d="M54.7307 51.8691C41.0721 54.0372 30.0151 65.0219 27.6303 78.6805C27.0521 81.9326 26.9076 112.068 27.0521 180.506L27.2689 277.706L28.8588 281.826C32.0386 290.209 38.2537 296.857 46.2754 300.687L51.1173 303H141.814H232.51L237.424 300.687C242.916 298.086 249.42 292.304 252.239 287.535C253.251 285.8 254.696 282.259 255.419 279.585C256.647 275.105 256.719 269.612 256.719 177.615C256.719 92.556 256.575 79.8368 255.635 76.0789C252.817 65.311 245.012 56.9279 234.389 53.17C229.474 51.4355 211.697 50.4238 209.239 51.7246C207.288 52.8086 206.782 55.0489 208.083 56.8556C209.023 58.2287 209.818 58.3732 217.55 58.3732C227.812 58.3732 233.232 59.6018 238.436 63.2152C243.133 66.395 247.614 72.8991 248.77 78.1024C249.348 80.7763 249.493 109.105 249.348 179.783L249.131 277.706L247.18 281.681C244.506 287.101 239.953 291.582 234.316 294.256L229.619 296.496H141.814H54.008L49.5274 294.4C44.2519 292.015 38.5427 286.306 36.0856 281.175L34.4957 277.706L34.2789 179.061C34.1344 88.798 34.2067 80.1259 35.2907 76.5847C36.8083 71.7428 40.2049 67.0454 44.3242 63.9379C49.8165 59.7463 52.8518 58.9514 64.7037 58.4455C73.0868 58.0842 75.5439 57.7951 76.0498 56.9279C76.9892 55.4103 76.917 54.543 75.7607 52.8809C74.8212 51.6523 73.7372 51.5078 66.5104 51.3633C62.0298 51.291 56.7542 51.5078 54.7307 51.8691Z" fill="url(#paint2_linear_315_9735)"/>
</g>
<g style="mix-blend-mode:luminosity">
<path d="M58.1275 140.903C57.4771 141.554 57.2603 145.89 57.2603 156.079C57.2603 169.449 57.3325 170.388 58.6333 171.111C59.5006 171.545 65.5711 171.834 73.4483 171.834C84.5775 171.834 86.9624 171.617 87.9018 170.678C88.8413 169.738 89.0581 167.353 89.0581 155.646C89.0581 145.817 88.8413 141.554 88.1909 140.903C86.9624 139.675 59.356 139.675 58.1275 140.903ZM81.9759 154.417C82.1204 158.753 82.1204 162.8 81.9759 163.451C81.7591 164.462 80.4582 164.607 72.8701 164.607H64.0534L64.198 162.584C64.2702 161.499 64.3425 157.452 64.4148 153.55L64.487 146.54H73.0869H81.7591L81.9759 154.417Z" fill="url(#paint3_linear_315_9735)"/>
</g>
<g style="mix-blend-mode:luminosity">
<path d="M100.115 145.095C98.1638 145.89 97.3688 148.202 98.4529 150.153C99.2478 151.599 99.6091 151.599 162.627 151.599C211.046 151.599 226.295 151.382 226.945 150.732C228.174 149.503 228.029 146.829 226.728 145.601C225.789 144.661 217.478 144.517 163.711 144.444C129.6 144.444 100.982 144.733 100.115 145.095Z" fill="url(#paint4_linear_315_9735)"/>
</g>
<g style="mix-blend-mode:luminosity">
<path d="M98.8865 161.138C97.3688 163.234 97.4411 164.101 99.031 165.546C100.26 166.703 105.029 166.775 152.798 166.775C202.663 166.775 205.265 166.703 206.349 165.474C207.939 163.74 207.866 162.222 206.277 160.777C205.048 159.62 200.278 159.548 152.437 159.548H99.9705L98.8865 161.138Z" fill="url(#paint5_linear_315_9735)"/>
</g>
<g style="mix-blend-mode:luminosity">
<path d="M58.4165 190.334C57.4771 191.274 57.2603 193.659 57.2603 205.438C57.2603 219.097 57.3325 219.458 58.8501 220.542C60.151 221.482 62.8249 221.699 73.1592 221.699C83.4935 221.699 86.1674 221.482 87.4682 220.542C88.9859 219.458 89.0581 219.097 89.0581 205.511C89.0581 192.936 88.9136 191.418 87.7573 190.407C85.8061 188.6 60.151 188.6 58.4165 190.334ZM81.8313 205.438V214.472H73.2315H64.5593L64.3425 205.727C64.198 200.958 64.2702 196.838 64.4148 196.694C64.5593 196.549 68.6063 196.405 73.3037 196.405H81.8313V205.438Z" fill="url(#paint6_linear_315_9735)"/>
</g>
<g style="mix-blend-mode:luminosity">
<path d="M99.32 195.393C97.3688 196.694 97.2965 198.645 99.0309 200.235C100.26 201.391 105.752 201.464 163.205 201.464C211.118 201.464 226.295 201.247 226.945 200.596C228.318 199.223 228.029 195.827 226.439 194.96C225.5 194.454 204.325 194.237 162.988 194.237C107.992 194.237 100.765 194.381 99.32 195.393Z" fill="url(#paint7_linear_315_9735)"/>
</g>
<g style="mix-blend-mode:luminosity">
<path d="M98.8864 210.569C97.3687 212.087 97.441 213.46 99.1754 215.195C100.621 216.64 101.56 216.64 152.509 216.64C198.255 216.64 204.542 216.495 205.987 215.484C207.866 214.183 208.011 212.159 206.421 210.569C205.409 209.558 199.556 209.413 152.654 209.413C105.752 209.413 99.8981 209.558 98.8864 210.569Z" fill="url(#paint8_linear_315_9735)"/>
</g>
<g style="mix-blend-mode:luminosity">
<path d="M58.1275 239.91C56.8989 241.139 56.8989 268.745 58.1275 269.974C59.356 271.202 86.9624 271.202 88.1909 269.974C88.8413 269.323 89.0581 265.059 89.0581 255.231C89.0581 243.524 88.8413 241.139 87.9018 240.199C86.9624 239.26 84.5775 239.043 72.8701 239.043C63.0417 239.043 58.7779 239.26 58.1275 239.91ZM81.8313 255.303V264.337H73.1592H64.487V255.303V246.27H73.1592H81.8313V255.303Z" fill="url(#paint9_linear_315_9735)"/>
</g>
<g style="mix-blend-mode:luminosity">
<path d="M98.9584 245.403C97.3686 247.137 97.4408 248.149 99.1753 249.883C100.621 251.329 101.56 251.329 162.843 251.329C204.325 251.329 225.499 251.112 226.439 250.606C228.029 249.739 228.318 246.342 226.945 244.969C226.294 244.319 211.118 244.102 163.132 244.102C103.005 244.102 100.042 244.174 98.9584 245.403Z" fill="url(#paint10_linear_315_9735)"/>
</g>
<g style="mix-blend-mode:luminosity">
<path d="M98.3804 260.796C97.8022 261.952 97.8022 262.819 98.3804 264.048L99.1753 265.782H152.581H206.06L206.927 264.264C207.505 263.108 207.505 262.241 206.927 261.012L206.132 259.278H152.726H99.2476L98.3804 260.796Z" fill="url(#paint11_linear_315_9735)"/>
</g>
<g clip-path="url(#clip0_315_9735)">
<mask id="mask0_315_9735" style="mask-type:luminance" maskUnits="userSpaceOnUse" x="22" y="3" width="63" height="63">
<path d="M53.5 66C70.897 66 85 51.897 85 34.5C85 17.103 70.897 3 53.5 3C36.103 3 22 17.103 22 34.5C22 51.897 36.103 66 53.5 66Z" fill="white"/>
</mask>
<g mask="url(#mask0_315_9735)">
<path d="M22 3L22.9844 5.70703L22 8.53711V11.3672L25.9375 18.0117L22 24.6562V28.5938L25.9375 34.5L22 40.4062V44.3438L25.9375 50.9883L22 57.6328V66L24.707 65.0156L27.5371 66H30.3672L37.0117 62.0625L43.6562 66H47.5938L53.5 62.0625L59.4062 66H63.3438L69.9883 62.0625L76.6328 66H85L84.0156 63.293L85 60.4629V57.6328L81.0625 50.9883L85 44.3438V40.4062L81.0625 34.5L85 28.5938V24.6562L81.0625 18.0117L85 11.3672V3L82.293 3.98438L79.4629 3H76.6328L69.9883 6.9375L63.3438 3H59.4062L53.5 6.9375L47.5938 3H43.6562L37.0117 6.9375L30.3672 3H22Z" fill="#EEEEEE"/>
<path d="M63.3438 3V16.2891L76.6328 3H63.3438ZM85 11.3672L71.7109 24.6562H85V11.3672ZM22 24.6562H35.2891L22 11.3672V24.6562ZM30.3672 3L43.6562 16.2891V3H30.3672ZM43.6562 66V52.7109L30.3672 66H43.6562ZM22 57.6328L35.2891 44.3438H22V57.6328ZM85 44.3438H71.7109L85 57.6328V44.3438ZM76.6328 66L63.3438 52.7109V66H76.6328Z" fill="#0052B4"/>
<path d="M22 3V8.53711L38.1191 24.6562H43.6562L22 3ZM47.5938 3V28.5938H22V40.4062H47.5938V66H59.4062V40.4062H85V28.5938H59.4062V3H47.5938ZM79.4629 3L63.3438 19.1191V24.6562L85 3H79.4629ZM43.6562 44.3438L22 66H27.5371L43.6562 49.8809V44.3438ZM63.3438 44.3438L85 66V60.4629L68.8809 44.3438H63.3438Z" fill="#D80027"/>
</g>
</g>
<rect x="22" y="3" width="63" height="63" rx="31.5" stroke="#0A0D23" stroke-width="6"/>
<defs>
<linearGradient id="paint0_linear_315_9735" x1="141.99" y1="133.532" x2="141.99" y2="15" gradientUnits="userSpaceOnUse">
<stop stop-color="#7DF1FE"/>
<stop offset="0.0001" stop-color="#4973D2"/>
<stop offset="1" stop-color="#47D7FE"/>
</linearGradient>
<linearGradient id="paint1_linear_315_9735" x1="141.831" y1="92.9731" x2="141.831" y2="54.8256" gradientUnits="userSpaceOnUse">
<stop stop-color="#7DF1FE"/>
<stop offset="0.0001" stop-color="#4973D2"/>
<stop offset="1" stop-color="#47D7FE"/>
</linearGradient>
<linearGradient id="paint2_linear_315_9735" x1="141.86" y1="303" x2="141.86" y2="51.134" gradientUnits="userSpaceOnUse">
<stop stop-color="#7DF1FE"/>
<stop offset="0.0001" stop-color="#4973D2"/>
<stop offset="1" stop-color="#47D7FE"/>
</linearGradient>
<linearGradient id="paint3_linear_315_9735" x1="73.1592" y1="171.834" x2="73.1592" y2="139.982" gradientUnits="userSpaceOnUse">
<stop stop-color="#7DF1FE"/>
<stop offset="0.0001" stop-color="#4973D2"/>
<stop offset="1" stop-color="#47D7FE"/>
</linearGradient>
<linearGradient id="paint4_linear_315_9735" x1="162.877" y1="151.599" x2="162.877" y2="144.444" gradientUnits="userSpaceOnUse">
<stop stop-color="#7DF1FE"/>
<stop offset="0.0001" stop-color="#4973D2"/>
<stop offset="1" stop-color="#47D7FE"/>
</linearGradient>
<linearGradient id="paint5_linear_315_9735" x1="152.649" y1="166.775" x2="152.649" y2="159.548" gradientUnits="userSpaceOnUse">
<stop stop-color="#7DF1FE"/>
<stop offset="0.0001" stop-color="#4973D2"/>
<stop offset="1" stop-color="#47D7FE"/>
</linearGradient>
<linearGradient id="paint6_linear_315_9735" x1="73.1592" y1="221.699" x2="73.1592" y2="189.042" gradientUnits="userSpaceOnUse">
<stop stop-color="#7DF1FE"/>
<stop offset="0.0001" stop-color="#4973D2"/>
<stop offset="1" stop-color="#47D7FE"/>
</linearGradient>
<linearGradient id="paint7_linear_315_9735" x1="162.807" y1="201.464" x2="162.807" y2="194.237" gradientUnits="userSpaceOnUse">
<stop stop-color="#7DF1FE"/>
<stop offset="0.0001" stop-color="#4973D2"/>
<stop offset="1" stop-color="#47D7FE"/>
</linearGradient>
<linearGradient id="paint8_linear_315_9735" x1="152.661" y1="216.64" x2="152.661" y2="209.413" gradientUnits="userSpaceOnUse">
<stop stop-color="#7DF1FE"/>
<stop offset="0.0001" stop-color="#4973D2"/>
<stop offset="1" stop-color="#47D7FE"/>
</linearGradient>
<linearGradient id="paint9_linear_315_9735" x1="73.1321" y1="270.895" x2="73.1321" y2="239.043" gradientUnits="userSpaceOnUse">
<stop stop-color="#7DF1FE"/>
<stop offset="0.0001" stop-color="#4973D2"/>
<stop offset="1" stop-color="#47D7FE"/>
</linearGradient>
<linearGradient id="paint10_linear_315_9735" x1="162.82" y1="251.329" x2="162.82" y2="244.102" gradientUnits="userSpaceOnUse">
<stop stop-color="#7DF1FE"/>
<stop offset="0.0001" stop-color="#4973D2"/>
<stop offset="1" stop-color="#47D7FE"/>
</linearGradient>
<linearGradient id="paint11_linear_315_9735" x1="152.654" y1="265.782" x2="152.654" y2="259.278" gradientUnits="userSpaceOnUse">
<stop stop-color="#7DF1FE"/>
<stop offset="0.0001" stop-color="#4973D2"/>
<stop offset="1" stop-color="#47D7FE"/>
</linearGradient>
<clipPath id="clip0_315_9735">
<rect x="22" y="3" width="63" height="63" rx="31.5" fill="white"/>
</clipPath>
</defs>
</svg>
