<svg width="17" height="17" viewBox="0 0 17 17" fill="none" xmlns="http://www.w3.org/2000/svg">
<path d="M15.4454 7.11269H14.8748V7.08329H8.49984V9.91663H12.503C11.919 11.566 10.3497 12.75 8.49984 12.75C6.15278 12.75 4.24984 10.847 4.24984 8.49996C4.24984 6.1529 6.15278 4.24996 8.49984 4.24996C9.58323 4.24996 10.5689 4.65867 11.3194 5.32627L13.3229 3.32275C12.0578 2.14373 10.3656 1.41663 8.49984 1.41663C4.58807 1.41663 1.4165 4.58819 1.4165 8.49996C1.4165 12.4117 4.58807 15.5833 8.49984 15.5833C12.4116 15.5833 15.5832 12.4117 15.5832 8.49996C15.5832 8.02502 15.5343 7.56142 15.4454 7.11269Z" fill="#FFC107"/>
<path d="M2.2334 5.20302L4.56063 6.90975C5.19034 5.35071 6.71538 4.24996 8.50002 4.24996C9.58342 4.24996 10.5691 4.65867 11.3195 5.32627L13.3231 3.32275C12.058 2.14373 10.3658 1.41663 8.50002 1.41663C5.77931 1.41663 3.41986 2.95265 2.2334 5.20302Z" fill="#FF3D00"/>
<path d="M8.49979 15.5833C10.3294 15.5833 11.9919 14.8831 13.2488 13.7445L11.0565 11.8894C10.3215 12.4484 9.42326 12.7507 8.49979 12.75C6.65741 12.75 5.09306 11.5752 4.50372 9.93579L2.19385 11.7155C3.36614 14.0094 5.74685 15.5833 8.49979 15.5833Z" fill="#4CAF50"/>
<path d="M15.4456 7.11277H14.875V7.08337H8.5V9.91671H12.5031C12.2238 10.7017 11.7206 11.3876 11.0557 11.8898L11.0567 11.8891L13.249 13.7442C13.0939 13.8851 15.5833 12.0417 15.5833 8.50004C15.5833 8.0251 15.5345 7.5615 15.4456 7.11277Z" fill="#1976D2"/>
</svg>
