<svg width="37" height="15" viewBox="0 0 37 15" fill="none" xmlns="http://www.w3.org/2000/svg">
<g id="Google logo" clip-path="url(#clip0_427_10141)">
<g id="Group">
<path id="Vector" d="M17.5256 7.04403V11.2385H16.1963V0.884394H19.722C20.5724 0.86788 21.3899 1.1899 22.0091 1.78439C22.6284 2.33761 22.9752 3.13852 22.9587 3.96421C22.9752 4.79816 22.6284 5.59907 22.0091 6.16054C21.3899 6.74678 20.6302 7.04403 19.7302 7.04403H17.5256ZM17.5256 2.15595V5.77247H19.755C20.2504 5.78898 20.7293 5.59082 21.0678 5.23577C21.7697 4.55871 21.7779 3.44403 21.1009 2.74219C21.0926 2.73394 21.0761 2.71742 21.0678 2.70916C20.7293 2.34586 20.2504 2.1477 19.755 2.16421L17.5256 2.15595Z" fill="#00B0F0"/>
<path id="Vector_2" d="M26.0223 3.92285C27.0049 3.92285 27.7811 4.18707 28.3508 4.70726C28.9205 5.2357 29.2012 5.95404 29.2012 6.87056V11.2384H27.9297V10.2559H27.8719C27.3187 11.0651 26.5921 11.4696 25.6755 11.4696C24.8994 11.4696 24.2389 11.2384 23.7187 10.7761C23.2067 10.3467 22.9178 9.71093 22.9343 9.04212C22.9343 8.30726 23.215 7.72927 23.7682 7.29166C24.3214 6.85404 25.0645 6.63937 25.9893 6.63937C26.782 6.63937 27.426 6.78799 27.9379 7.06872V6.76322C27.9379 6.30909 27.7398 5.87973 27.393 5.59074C27.0379 5.27698 26.5838 5.10359 26.1132 5.10359C25.37 5.10359 24.7838 5.41735 24.3462 6.04487L23.1737 5.31001C23.8095 4.38524 24.759 3.92285 26.0223 3.92285ZM24.3049 9.06689C24.3049 9.41368 24.47 9.7357 24.7425 9.93386C25.0398 10.1651 25.4031 10.2889 25.7746 10.2807C26.3361 10.2807 26.8728 10.0577 27.2691 9.66138C27.7067 9.24854 27.9297 8.76138 27.9297 8.19992C27.5168 7.86964 26.9389 7.7045 26.1957 7.7045C25.659 7.7045 25.2049 7.83661 24.8416 8.09258C24.4866 8.3568 24.3049 8.67882 24.3049 9.06689Z" fill="#00B0F0"/>
<path id="Vector_3" d="M36.4994 4.1543L32.0572 14.3598H30.6866L32.338 10.7928L29.415 4.16255H30.86L32.9655 9.24879H32.9985L35.0545 4.16255H36.4994V4.1543Z" fill="#00B0F0"/>
</g>
<g id="Group_2">
<path id="Vector_4" d="M12.0517 4.93066H6.44531V7.21782H9.65724C9.52513 7.95268 9.09577 8.61323 8.46825 9.02608L10.3838 10.5123C11.5068 9.48021 12.1508 7.94443 12.1508 6.13617C12.1508 5.73158 12.1178 5.32699 12.0517 4.93066Z" fill="#2367CC"/>
<path id="Vector_5" d="M8.46785 9.02612C7.93116 9.38943 7.24583 9.59585 6.44492 9.59585C4.89262 9.59585 3.57978 8.54722 3.10914 7.14355L1.13574 8.67108C2.14308 10.6858 4.19905 11.9491 6.44492 11.9491C8.04675 11.9491 9.40088 11.4206 10.3834 10.5124L8.46785 9.02612Z" fill="#2367CC"/>
<path id="Vector_6" d="M1.13589 3.33691C0.285432 5.01306 0.285432 6.99471 1.13589 8.67086L3.10929 7.13508C2.86158 6.40022 2.86158 5.5993 3.10929 4.85618L1.13589 3.33691Z" fill="#2367CC"/>
<path id="Vector_7" d="M6.44492 2.41216C7.29538 2.39565 8.11281 2.71767 8.72382 3.30391L10.4165 1.61125C9.34308 0.59565 7.9229 0.0424393 6.44492 0.0589531C4.19905 0.0589531 2.14308 1.33051 1.13574 3.33694L3.10914 4.87271C3.57978 3.46079 4.89262 2.41216 6.44492 2.41216Z" fill="#2367CC"/>
</g>
</g>
<defs>
<clipPath id="clip0_427_10141">
<rect width="36" height="14.2927" fill="white" transform="translate(0.5 0.0585938)"/>
</clipPath>
</defs>
</svg>
