<svg width="16" height="17" viewBox="0 0 16 17" fill="none" xmlns="http://www.w3.org/2000/svg">
<path d="M7.15316 3.88205C7.42961 3.84982 7.71199 3.83325 7.99967 3.83325C11.109 3.83325 13.5996 5.76835 14.6663 8.49992C14.4033 9.17352 14.0536 9.79869 13.6295 10.3584M4.34609 4.84621C2.98604 5.67596 1.93375 6.96164 1.33301 8.49992C2.39977 11.2315 4.89036 13.1666 7.99967 13.1666C9.35805 13.1666 10.5983 12.7973 11.6534 12.1535M6.58552 7.08564C6.22356 7.44758 5.99967 7.9476 5.99967 8.49992C5.99967 9.60449 6.8951 10.4999 7.99967 10.4999C8.55199 10.4999 9.05202 10.276 9.41395 9.91407" stroke="#96A5B8" stroke-width="1.33333" stroke-linecap="round" stroke-linejoin="round"/>
<path d="M2.66699 3.16675L13.3337 13.8334" stroke="#96A5B8" stroke-width="1.33333" stroke-linecap="round"/>
</svg>
