<svg width="73" height="55" viewBox="0 0 73 55" fill="none" xmlns="http://www.w3.org/2000/svg">
<path d="M1.40909 15.5V3.86364H8.38636V5.11364H2.81818V9.04545H7.86364V10.2955H2.81818V15.5H1.40909ZM13.5227 15.6818C12.7348 15.6818 12.0436 15.4943 11.4489 15.1193C10.858 14.7443 10.3958 14.2197 10.0625 13.5455C9.73295 12.8712 9.56818 12.0833 9.56818 11.1818C9.56818 10.2727 9.73295 9.47917 10.0625 8.80114C10.3958 8.12311 10.858 7.59659 11.4489 7.22159C12.0436 6.84659 12.7348 6.65909 13.5227 6.65909C14.3106 6.65909 15 6.84659 15.5909 7.22159C16.1856 7.59659 16.6477 8.12311 16.9773 8.80114C17.3106 9.47917 17.4773 10.2727 17.4773 11.1818C17.4773 12.0833 17.3106 12.8712 16.9773 13.5455C16.6477 14.2197 16.1856 14.7443 15.5909 15.1193C15 15.4943 14.3106 15.6818 13.5227 15.6818ZM13.5227 14.4773C14.1212 14.4773 14.6136 14.3239 15 14.017C15.3864 13.7102 15.6723 13.3068 15.858 12.8068C16.0436 12.3068 16.1364 11.7652 16.1364 11.1818C16.1364 10.5985 16.0436 10.0549 15.858 9.55114C15.6723 9.04735 15.3864 8.64015 15 8.32955C14.6136 8.01894 14.1212 7.86364 13.5227 7.86364C12.9242 7.86364 12.4318 8.01894 12.0455 8.32955C11.6591 8.64015 11.3731 9.04735 11.1875 9.55114C11.0019 10.0549 10.9091 10.5985 10.9091 11.1818C10.9091 11.7652 11.0019 12.3068 11.1875 12.8068C11.3731 13.3068 11.6591 13.7102 12.0455 14.017C12.4318 14.3239 12.9242 14.4773 13.5227 14.4773ZM20.8651 3.86364V15.5H19.5241V3.86364H20.8651ZM24.6619 3.86364V15.5H23.321V3.86364H24.6619ZM30.6634 15.6818C29.8755 15.6818 29.1842 15.4943 28.5895 15.1193C27.9986 14.7443 27.5365 14.2197 27.2031 13.5455C26.8736 12.8712 26.7088 12.0833 26.7088 11.1818C26.7088 10.2727 26.8736 9.47917 27.2031 8.80114C27.5365 8.12311 27.9986 7.59659 28.5895 7.22159C29.1842 6.84659 29.8755 6.65909 30.6634 6.65909C31.4512 6.65909 32.1406 6.84659 32.7315 7.22159C33.3262 7.59659 33.7884 8.12311 34.1179 8.80114C34.4512 9.47917 34.6179 10.2727 34.6179 11.1818C34.6179 12.0833 34.4512 12.8712 34.1179 13.5455C33.7884 14.2197 33.3262 14.7443 32.7315 15.1193C32.1406 15.4943 31.4512 15.6818 30.6634 15.6818ZM30.6634 14.4773C31.2618 14.4773 31.7543 14.3239 32.1406 14.017C32.527 13.7102 32.813 13.3068 32.9986 12.8068C33.1842 12.3068 33.277 11.7652 33.277 11.1818C33.277 10.5985 33.1842 10.0549 32.9986 9.55114C32.813 9.04735 32.527 8.64015 32.1406 8.32955C31.7543 8.01894 31.2618 7.86364 30.6634 7.86364C30.0649 7.86364 29.5724 8.01894 29.1861 8.32955C28.7997 8.64015 28.5137 9.04735 28.3281 9.55114C28.1425 10.0549 28.0497 10.5985 28.0497 11.1818C28.0497 11.7652 28.1425 12.3068 28.3281 12.8068C28.5137 13.3068 28.7997 13.7102 29.1861 14.017C29.5724 14.3239 30.0649 14.4773 30.6634 14.4773ZM38.3452 15.5L35.6861 6.77273H37.0952L38.9815 13.4545H39.0724L40.9361 6.77273H42.3679L44.2088 13.4318H44.2997L46.1861 6.77273H47.5952L44.9361 15.5H43.6179L41.7088 8.79545H41.5724L39.6634 15.5H38.3452ZM61.6861 3.86364H63.0952V11.5682C63.0952 12.3636 62.9077 13.0739 62.5327 13.6989C62.1615 14.3201 61.6368 14.8106 60.9588 15.1705C60.2808 15.5265 59.4853 15.7045 58.5724 15.7045C57.6596 15.7045 56.8641 15.5265 56.1861 15.1705C55.508 14.8106 54.9815 14.3201 54.6065 13.6989C54.2353 13.0739 54.0497 12.3636 54.0497 11.5682V3.86364H55.4588V11.4545C55.4588 12.0227 55.5838 12.5284 55.8338 12.9716C56.0838 13.411 56.4399 13.7576 56.902 14.0114C57.3679 14.2614 57.9247 14.3864 58.5724 14.3864C59.2202 14.3864 59.777 14.2614 60.2429 14.0114C60.7088 13.7576 61.0649 13.411 61.3111 12.9716C61.5611 12.5284 61.6861 12.0227 61.6861 11.4545V3.86364ZM71.9091 8.72727L70.7045 9.06818C70.6288 8.86742 70.517 8.67235 70.3693 8.48295C70.2254 8.28977 70.0284 8.13068 69.7784 8.00568C69.5284 7.88068 69.2083 7.81818 68.8182 7.81818C68.2841 7.81818 67.839 7.94129 67.483 8.1875C67.1307 8.42992 66.9545 8.73864 66.9545 9.11364C66.9545 9.44697 67.0758 9.71023 67.3182 9.90341C67.5606 10.0966 67.9394 10.2576 68.4545 10.3864L69.75 10.7045C70.5303 10.8939 71.1117 11.1837 71.4943 11.5739C71.8769 11.9602 72.0682 12.4583 72.0682 13.0682C72.0682 13.5682 71.9242 14.0152 71.6364 14.4091C71.3523 14.803 70.9545 15.1136 70.4432 15.3409C69.9318 15.5682 69.3371 15.6818 68.6591 15.6818C67.7689 15.6818 67.0322 15.4886 66.4489 15.1023C65.8655 14.7159 65.4962 14.1515 65.3409 13.4091L66.6136 13.0909C66.7348 13.5606 66.964 13.9129 67.3011 14.1477C67.642 14.3826 68.0871 14.5 68.6364 14.5C69.2614 14.5 69.7576 14.3674 70.125 14.1023C70.4962 13.8333 70.6818 13.5114 70.6818 13.1364C70.6818 12.8333 70.5758 12.5795 70.3636 12.375C70.1515 12.1667 69.8258 12.0114 69.3864 11.9091L67.9318 11.5682C67.1326 11.3788 66.5455 11.0852 66.1705 10.6875C65.7992 10.286 65.6136 9.78409 65.6136 9.18182C65.6136 8.68939 65.7519 8.25379 66.0284 7.875C66.3087 7.49621 66.6894 7.19886 67.1705 6.98295C67.6553 6.76705 68.2045 6.65909 68.8182 6.65909C69.6818 6.65909 70.3598 6.84848 70.8523 7.22727C71.3485 7.60606 71.7008 8.10606 71.9091 8.72727Z" fill="white"/>
<path d="M16.5 32.75H7.5C6.10807 32.7515 4.77358 33.3051 3.78933 34.2893C2.80509 35.2736 2.25149 36.6081 2.25 38V47C2.25149 48.3919 2.80509 49.7264 3.78933 50.7107C4.77358 51.6949 6.10807 52.2485 7.5 52.25H16.5C17.8919 52.2485 19.2264 51.6949 20.2107 50.7107C21.1949 49.7264 21.7485 48.3919 21.75 47V38C21.7485 36.6081 21.1949 35.2736 20.2107 34.2893C19.2264 33.3051 17.8919 32.7515 16.5 32.75ZM12 47C11.11 47 10.24 46.7361 9.49993 46.2416C8.75991 45.7471 8.18314 45.0443 7.84254 44.2221C7.50195 43.3998 7.41283 42.495 7.58647 41.6221C7.7601 40.7492 8.18868 39.9474 8.81802 39.318C9.44736 38.6887 10.2492 38.2601 11.1221 38.0865C11.995 37.9128 12.8998 38.0019 13.7221 38.3425C14.5443 38.6831 15.2471 39.2599 15.7416 39.9999C16.2361 40.74 16.5 41.61 16.5 42.5C16.4988 43.6931 16.0243 44.837 15.1806 45.6806C14.337 46.5243 13.1931 46.9988 12 47ZM17.625 38C17.4025 38 17.185 37.934 17 37.8104C16.815 37.6868 16.6708 37.5111 16.5856 37.3055C16.5005 37.1 16.4782 36.8738 16.5216 36.6555C16.565 36.4373 16.6722 36.2368 16.8295 36.0795C16.9868 35.9222 17.1873 35.815 17.4055 35.7716C17.6238 35.7282 17.85 35.7505 18.0555 35.8356C18.2611 35.9208 18.4368 36.065 18.5604 36.25C18.684 36.435 18.75 36.6525 18.75 36.875C18.75 37.1734 18.6315 37.4595 18.4205 37.6705C18.2095 37.8815 17.9234 38 17.625 38ZM15 42.5C15 43.0933 14.8241 43.6734 14.4944 44.1667C14.1648 44.6601 13.6962 45.0446 13.1481 45.2716C12.5999 45.4987 11.9967 45.5581 11.4147 45.4424C10.8328 45.3266 10.2982 45.0409 9.87868 44.6213C9.45912 44.2018 9.1734 43.6672 9.05764 43.0853C8.94189 42.5033 9.0013 41.9001 9.22836 41.3519C9.45542 40.8038 9.83994 40.3352 10.3333 40.0056C10.8266 39.6759 11.4067 39.5 12 39.5C12.7956 39.5 13.5587 39.8161 14.1213 40.3787C14.6839 40.9413 15 41.7044 15 42.5Z" fill="#737794"/>
</svg>
