<svg width="131" height="61" viewBox="0 0 131 61" fill="none" xmlns="http://www.w3.org/2000/svg">
<path d="M4.60752 14.0339V18.3671C4.60752 19.3033 4.70991 19.8847 4.91469 20.1114C5.1926 20.4332 5.61313 20.5941 6.17627 20.5941H6.74673V21H0.37299V20.5941H0.932474C1.56144 20.5941 2.01122 20.3893 2.28182 19.9798C2.42809 19.753 2.50123 19.2155 2.50123 18.3671V8.75716C2.50123 7.82103 2.40249 7.23961 2.20503 7.01289C1.9198 6.69109 1.49562 6.53019 0.932474 6.53019H0.37299V6.12429H5.82522C7.15628 6.12429 8.20577 6.26325 8.97369 6.54116C9.74161 6.81176 10.3889 7.27252 10.9154 7.92342C11.442 8.57432 11.7053 9.3459 11.7053 10.2382C11.7053 11.4522 11.3031 12.4395 10.4986 13.2001C9.70139 13.9607 8.57145 14.341 7.10874 14.341C6.75038 14.341 6.36277 14.3154 5.94589 14.2642C5.52902 14.2131 5.0829 14.1363 4.60752 14.0339ZM4.60752 13.4086C4.99514 13.4817 5.33887 13.5365 5.63873 13.5731C5.93858 13.6097 6.19455 13.628 6.40665 13.628C7.16725 13.628 7.82181 13.3354 8.37033 12.7503C8.92616 12.158 9.20407 11.3937 9.20407 10.4576C9.20407 9.81397 9.07243 9.21791 8.80914 8.6694C8.54585 8.11357 8.17286 7.70036 7.69017 7.42976C7.20748 7.15184 6.65896 7.01289 6.04463 7.01289C5.67164 7.01289 5.1926 7.08236 4.60752 7.22132V13.4086ZM16.4392 5.40025V18.7292C16.4392 19.3581 16.4831 19.775 16.5708 19.9798C16.6659 20.1845 16.8085 20.3418 16.9987 20.4515C17.1888 20.5539 17.5435 20.6051 18.0628 20.6051V21H13.1371V20.6051C13.5979 20.6051 13.9124 20.5575 14.0806 20.4625C14.2488 20.3674 14.3804 20.2101 14.4755 19.9907C14.5706 19.7713 14.6181 19.3508 14.6181 18.7292V9.60187C14.6181 8.46828 14.5925 7.77349 14.5413 7.51752C14.4901 7.25423 14.406 7.07505 14.289 6.97998C14.1793 6.8849 14.0367 6.83736 13.8612 6.83736C13.671 6.83736 13.4297 6.89587 13.1371 7.01289L12.9506 6.62893L15.9455 5.40025H16.4392ZM24.7055 19.5519C23.6743 20.3491 23.0271 20.8098 22.7638 20.9342C22.3689 21.117 21.9483 21.2084 21.5022 21.2084C20.8074 21.2084 20.2333 20.9707 19.7799 20.4954C19.3337 20.02 19.1107 19.3947 19.1107 18.6194C19.1107 18.1294 19.2204 17.7053 19.4398 17.3469C19.7396 16.8496 20.2589 16.3815 20.9976 15.9427C21.7435 15.5039 22.9795 14.97 24.7055 14.341V13.9461C24.7055 12.9442 24.5446 12.2567 24.2228 11.8837C23.9083 11.5107 23.4476 11.3242 22.8406 11.3242C22.3798 11.3242 22.0141 11.4485 21.7435 11.6972C21.4656 11.9459 21.3267 12.2311 21.3267 12.5529L21.3486 13.1892C21.3486 13.5256 21.2609 13.7852 21.0853 13.968C20.9171 14.1509 20.6941 14.2423 20.4161 14.2423C20.1455 14.2423 19.9225 14.1472 19.747 13.9571C19.5787 13.7669 19.4946 13.5073 19.4946 13.1782C19.4946 12.5492 19.8164 11.9715 20.46 11.4449C21.1036 10.9183 22.0068 10.655 23.1697 10.655C24.0619 10.655 24.7933 10.8049 25.3637 11.1048C25.7952 11.3315 26.1134 11.6862 26.3182 12.1689C26.4498 12.4834 26.5156 13.127 26.5156 14.0997V17.5114C26.5156 18.4695 26.5339 19.0583 26.5705 19.2777C26.607 19.4898 26.6655 19.6324 26.746 19.7055C26.8338 19.7786 26.9325 19.8152 27.0422 19.8152C27.1592 19.8152 27.2616 19.7896 27.3494 19.7384C27.5029 19.6433 27.7991 19.3764 28.238 18.9376V19.5519C27.4188 20.649 26.6363 21.1975 25.8903 21.1975C25.5319 21.1975 25.2467 21.0731 25.0346 20.8245C24.8225 20.5758 24.7128 20.1516 24.7055 19.5519ZM24.7055 18.8389V15.0102C23.6012 15.449 22.8881 15.7599 22.5663 15.9427C21.9885 16.2645 21.5753 16.6009 21.3267 16.952C21.078 17.303 20.9537 17.687 20.9537 18.1038C20.9537 18.6304 21.1109 19.0692 21.4254 19.4203C21.7399 19.764 22.1019 19.9359 22.5115 19.9359C23.0673 19.9359 23.7986 19.5702 24.7055 18.8389ZM31.6993 12.7833C32.8768 11.3644 33.9994 10.655 35.0672 10.655C35.6157 10.655 36.0874 10.794 36.4823 11.0719C36.8773 11.3425 37.1918 11.7923 37.4258 12.4212C37.5867 12.86 37.6671 13.5329 37.6671 14.4398V18.7292C37.6671 19.3654 37.7183 19.7969 37.8207 20.0236C37.9012 20.2065 38.0292 20.3491 38.2047 20.4515C38.3875 20.5539 38.7203 20.6051 39.203 20.6051V21H34.2334V20.6051H34.4419C34.9099 20.6051 35.2354 20.5356 35.4182 20.3966C35.6084 20.2504 35.74 20.0383 35.8132 19.7604C35.8424 19.6507 35.857 19.3069 35.857 18.7292V14.6153C35.857 13.7011 35.7364 13.0392 35.495 12.6297C35.261 12.2128 34.8624 12.0044 34.2993 12.0044C33.4289 12.0044 32.5623 12.4797 31.6993 13.4305V18.7292C31.6993 19.4093 31.7395 19.8298 31.82 19.9907C31.9224 20.2028 32.0613 20.3601 32.2368 20.4625C32.4197 20.5575 32.7854 20.6051 33.3339 20.6051V21H28.3643V20.6051H28.5837C29.0957 20.6051 29.4394 20.4771 29.6149 20.2211C29.7978 19.9578 29.8892 19.4605 29.8892 18.7292V14.9993C29.8892 13.7925 29.8599 13.0575 29.8014 12.7942C29.7502 12.5309 29.6661 12.3518 29.5491 12.2567C29.4394 12.1616 29.2895 12.1141 29.0993 12.1141C28.8946 12.1141 28.6496 12.1689 28.3643 12.2786L28.1998 11.8837L31.2276 10.655H31.6993V12.7833ZM42.3352 5.40025C42.6424 5.40025 42.902 5.50996 43.1141 5.72936C43.3335 5.94146 43.4432 6.20109 43.4432 6.50825C43.4432 6.81542 43.3335 7.07871 43.1141 7.29811C42.902 7.51752 42.6424 7.62722 42.3352 7.62722C42.028 7.62722 41.7648 7.51752 41.5453 7.29811C41.3259 7.07871 41.2162 6.81542 41.2162 6.50825C41.2162 6.20109 41.3223 5.94146 41.5344 5.72936C41.7538 5.50996 42.0207 5.40025 42.3352 5.40025ZM43.2457 10.655V18.7292C43.2457 19.3581 43.2896 19.7786 43.3774 19.9907C43.4725 20.1955 43.6078 20.3491 43.7833 20.4515C43.9661 20.5539 44.2952 20.6051 44.7706 20.6051V21H39.8888V20.6051C40.3788 20.6051 40.7079 20.5575 40.8762 20.4625C41.0444 20.3674 41.176 20.2101 41.2711 19.9907C41.3735 19.7713 41.4247 19.3508 41.4247 18.7292V14.8566C41.4247 13.7669 41.3918 13.0612 41.3259 12.7394C41.2747 12.5053 41.1943 12.3444 41.0846 12.2567C40.9749 12.1616 40.825 12.1141 40.6348 12.1141C40.43 12.1141 40.1814 12.1689 39.8888 12.2786L39.7353 11.8837L42.763 10.655H43.2457Z" fill="white"/>
<path d="M57.9845 16.8861L58.3466 16.9629L57.074 21H45.5552V20.5941H46.1147C46.7437 20.5941 47.1934 20.3893 47.464 19.9798C47.6176 19.7457 47.6944 19.2045 47.6944 18.3562V8.75716C47.6944 7.82834 47.592 7.24692 47.3872 7.01289C47.102 6.69109 46.6778 6.53019 46.1147 6.53019H45.5552V6.12429H52.291V6.53019C51.5011 6.52288 50.9453 6.59602 50.6235 6.7496C50.309 6.90318 50.0932 7.09699 49.9762 7.33102C49.8592 7.56506 49.8007 8.12454 49.8007 9.00948V18.3562C49.8007 18.9632 49.8592 19.3801 49.9762 19.6068C50.064 19.7604 50.1993 19.8737 50.3821 19.9469C50.565 20.02 51.1354 20.0566 52.0935 20.0566H53.1796C54.3205 20.0566 55.1213 19.9724 55.582 19.8042C56.0428 19.636 56.4633 19.3398 56.8436 18.9156C57.2239 18.4841 57.6042 17.8076 57.9845 16.8861ZM61.8737 5.40025C62.1809 5.40025 62.4405 5.50996 62.6526 5.72936C62.872 5.94146 62.9817 6.20109 62.9817 6.50825C62.9817 6.81542 62.872 7.07871 62.6526 7.29811C62.4405 7.51752 62.1809 7.62722 61.8737 7.62722C61.5666 7.62722 61.3033 7.51752 61.0839 7.29811C60.8645 7.07871 60.7548 6.81542 60.7548 6.50825C60.7548 6.20109 60.8608 5.94146 61.0729 5.72936C61.2923 5.50996 61.5592 5.40025 61.8737 5.40025ZM62.7843 10.655V18.7292C62.7843 19.3581 62.8281 19.7786 62.9159 19.9907C63.011 20.1955 63.1463 20.3491 63.3218 20.4515C63.5046 20.5539 63.8337 20.6051 64.3091 20.6051V21H59.4274V20.6051C59.9174 20.6051 60.2465 20.5575 60.4147 20.4625C60.5829 20.3674 60.7145 20.2101 60.8096 19.9907C60.912 19.7713 60.9632 19.3508 60.9632 18.7292V14.8566C60.9632 13.7669 60.9303 13.0612 60.8645 12.7394C60.8133 12.5053 60.7328 12.3444 60.6231 12.2567C60.5134 12.1616 60.3635 12.1141 60.1733 12.1141C59.9686 12.1141 59.7199 12.1689 59.4274 12.2786L59.2738 11.8837L62.3016 10.655H62.7843ZM68.2751 12.7833C69.4526 11.3644 70.5752 10.655 71.643 10.655C72.1915 10.655 72.6632 10.794 73.0582 11.0719C73.4531 11.3425 73.7676 11.7923 74.0016 12.4212C74.1625 12.86 74.2429 13.5329 74.2429 14.4398V18.7292C74.2429 19.3654 74.2941 19.7969 74.3965 20.0236C74.477 20.2065 74.605 20.3491 74.7805 20.4515C74.9633 20.5539 75.2961 20.6051 75.7788 20.6051V21H70.8092V20.6051H71.0177C71.4857 20.6051 71.8112 20.5356 71.994 20.3966C72.1842 20.2504 72.3158 20.0383 72.389 19.7604C72.4182 19.6507 72.4328 19.3069 72.4328 18.7292V14.6153C72.4328 13.7011 72.3122 13.0392 72.0708 12.6297C71.8368 12.2128 71.4382 12.0044 70.8751 12.0044C70.0048 12.0044 69.1381 12.4797 68.2751 13.4305V18.7292C68.2751 19.4093 68.3153 19.8298 68.3958 19.9907C68.4982 20.2028 68.6371 20.3601 68.8127 20.4625C68.9955 20.5575 69.3612 20.6051 69.9097 20.6051V21H64.9401V20.6051H65.1595C65.6715 20.6051 66.0152 20.4771 66.1908 20.2211C66.3736 19.9578 66.465 19.4605 66.465 18.7292V14.9993C66.465 13.7925 66.4358 13.0575 66.3772 12.7942C66.3261 12.5309 66.2419 12.3518 66.1249 12.2567C66.0152 12.1616 65.8653 12.1141 65.6752 12.1141C65.4704 12.1141 65.2254 12.1689 64.9401 12.2786L64.7756 11.8837L67.8034 10.655H68.2751V12.7833ZM79.3279 5.40025V15.3942L81.884 13.0685C82.4252 12.5712 82.7396 12.2567 82.8274 12.125C82.8859 12.0373 82.9152 11.9495 82.9152 11.8618C82.9152 11.7155 82.853 11.5912 82.7287 11.4888C82.6117 11.3791 82.4142 11.3169 82.1363 11.3023V10.9512H86.5025V11.3023C85.9027 11.3169 85.4018 11.4083 84.9995 11.5765C84.6046 11.7447 84.1694 12.0446 83.6941 12.4761L81.116 14.8566L83.6941 18.1148C84.4108 19.0144 84.8935 19.5848 85.1421 19.8262C85.4932 20.1699 85.8004 20.393 86.0636 20.4954C86.2465 20.5685 86.5646 20.6051 87.0181 20.6051V21H82.1363V20.6051C82.4142 20.5978 82.6007 20.5575 82.6958 20.4844C82.7982 20.4039 82.8493 20.2942 82.8493 20.1553C82.8493 19.9871 82.7031 19.7165 82.4105 19.3435L79.3279 15.4052V18.7401C79.3279 19.391 79.3718 19.8189 79.4595 20.0236C79.5546 20.2284 79.6862 20.3747 79.8545 20.4625C80.0227 20.5502 80.3883 20.5978 80.9515 20.6051V21H75.8393V20.6051C76.3513 20.6051 76.7352 20.5429 76.9912 20.4186C77.1448 20.3381 77.2618 20.2138 77.3423 20.0456C77.452 19.8042 77.5068 19.3874 77.5068 18.795V9.64575C77.5068 8.4829 77.4812 7.77349 77.43 7.51752C77.3788 7.25423 77.2947 7.07505 77.1777 6.97998C77.0607 6.87759 76.9071 6.82639 76.717 6.82639C76.5634 6.82639 76.333 6.88856 76.0258 7.01289L75.8393 6.62893L78.8233 5.40025H79.3279Z" fill="#FF0000"/>
<path d="M15.6364 31.0921V31.634H14.9419V33H14.3123V31.634H12.1221V31.1455L14.5222 27.719H14.9419V31.0921H15.6364ZM14.3123 31.0921V28.5241L12.496 31.0921H14.3123ZM15.9627 33V32.8588H16.1573C16.3761 32.8588 16.5313 32.7889 16.6229 32.649C16.6788 32.565 16.7068 32.3768 16.7068 32.0842V28.7416C16.7068 28.4186 16.6712 28.2163 16.6 28.1349C16.5008 28.023 16.3532 27.967 16.1573 27.967H15.9627V27.8258H18.069C18.8424 27.8258 19.43 27.9136 19.8319 28.0891C20.2364 28.2647 20.5607 28.5572 20.8049 28.9668C21.0517 29.3763 21.1751 29.8495 21.1751 30.3862C21.1751 31.1061 20.9563 31.7077 20.5187 32.1911C20.0278 32.7304 19.2799 33 18.2751 33H15.9627ZM17.4394 32.6261C17.7625 32.6973 18.0334 32.7329 18.2522 32.7329C18.8424 32.7329 19.332 32.5256 19.7212 32.1109C20.1105 31.6963 20.3051 31.1341 20.3051 30.4244C20.3051 29.7096 20.1105 29.1461 19.7212 28.734C19.332 28.3219 18.8322 28.1158 18.2217 28.1158C17.9927 28.1158 17.732 28.1527 17.4394 28.2265V32.6261ZM22.2302 30.8212C22.2276 31.3401 22.3536 31.7472 22.6079 32.0422C22.8623 32.3373 23.1612 32.4849 23.5046 32.4849C23.7336 32.4849 23.932 32.4225 24.0999 32.2979C24.2703 32.1707 24.4128 31.9545 24.5273 31.6492L24.6456 31.7255C24.5921 32.074 24.437 32.392 24.18 32.6795C23.9231 32.9644 23.6013 33.1068 23.2146 33.1068C22.7949 33.1068 22.435 32.944 22.1348 32.6184C21.8372 32.2903 21.6883 31.8502 21.6883 31.2982C21.6883 30.7004 21.841 30.2349 22.1462 29.9016C22.454 29.5658 22.8394 29.3979 23.3024 29.3979C23.6942 29.3979 24.016 29.5277 24.2678 29.7871C24.5196 30.0441 24.6456 30.3888 24.6456 30.8212H22.2302ZM22.2302 30.5999H23.8481C23.8353 30.376 23.8086 30.2183 23.7679 30.1267C23.7043 29.9843 23.6089 29.8724 23.4817 29.791C23.3571 29.7096 23.2261 29.6688 23.0887 29.6688C22.8776 29.6688 22.6881 29.7515 22.5202 29.9169C22.3548 30.0797 22.2582 30.3074 22.2302 30.5999ZM26.0555 30.142C26.4651 29.6485 26.8556 29.4017 27.227 29.4017C27.4178 29.4017 27.5819 29.4501 27.7192 29.5467C27.8566 29.6409 27.966 29.7973 28.0474 30.0161C28.1033 30.1687 28.1313 30.4027 28.1313 30.7182V32.2101C28.1313 32.4315 28.1491 32.5815 28.1847 32.6604C28.2127 32.724 28.2572 32.7736 28.3183 32.8092C28.3819 32.8448 28.4976 32.8626 28.6655 32.8626V33H26.937V32.8626H27.0095C27.1723 32.8626 27.2855 32.8385 27.3491 32.7901C27.4152 32.7393 27.461 32.6655 27.4865 32.5688C27.4966 32.5307 27.5017 32.4111 27.5017 32.2101V30.7792C27.5017 30.4613 27.4597 30.231 27.3758 30.0886C27.2944 29.9436 27.1558 29.8711 26.9599 29.8711C26.6572 29.8711 26.3557 30.0364 26.0555 30.3671V32.2101C26.0555 32.4467 26.0695 32.593 26.0975 32.649C26.1331 32.7227 26.1815 32.7774 26.2425 32.813C26.3061 32.8461 26.4333 32.8626 26.6241 32.8626V33H24.8956V32.8626H24.9719C25.1499 32.8626 25.2695 32.8181 25.3306 32.7291C25.3942 32.6375 25.426 32.4645 25.426 32.2101V30.9128C25.426 30.4931 25.4158 30.2374 25.3954 30.1458C25.3776 30.0542 25.3484 29.9919 25.3077 29.9588C25.2695 29.9258 25.2174 29.9092 25.1512 29.9092C25.08 29.9092 24.9948 29.9283 24.8956 29.9665L24.8383 29.8291L25.8915 29.4017H26.0555V30.142ZM29.8809 28.3562V29.5048H30.6975V29.7719H29.8809V32.0384C29.8809 32.2648 29.9127 32.4175 29.9763 32.4963C30.0425 32.5752 30.1264 32.6146 30.2282 32.6146C30.3121 32.6146 30.3935 32.5892 30.4724 32.5383C30.5512 32.4849 30.6123 32.4073 30.6555 32.3055H30.8043C30.7153 32.5548 30.5894 32.7431 30.4266 32.8703C30.2638 32.9949 30.0959 33.0572 29.9229 33.0572C29.8059 33.0572 29.6914 33.0254 29.5795 32.9618C29.4675 32.8957 29.3849 32.8029 29.3314 32.6833C29.278 32.5612 29.2513 32.3742 29.2513 32.1224V29.7719H28.698V29.646C28.8379 29.59 28.9804 29.4959 29.1254 29.3636C29.2729 29.2288 29.4039 29.0698 29.5184 28.8866C29.5769 28.79 29.6583 28.6132 29.7626 28.3562H29.8809ZM32.9431 32.4963C32.5845 32.7736 32.3593 32.9339 32.2677 32.9771C32.1304 33.0407 31.9841 33.0725 31.8289 33.0725C31.5873 33.0725 31.3876 32.9898 31.2299 32.8245C31.0747 32.6591 30.9971 32.4416 30.9971 32.172C30.9971 32.0015 31.0353 31.854 31.1116 31.7294C31.2159 31.5564 31.3965 31.3936 31.6534 31.2409C31.9129 31.0883 32.3428 30.9026 32.9431 30.6838V30.5465C32.9431 30.198 32.8872 29.9588 32.7752 29.8291C32.6659 29.6994 32.5056 29.6345 32.2945 29.6345C32.1342 29.6345 32.007 29.6778 31.9129 29.7642C31.8162 29.8507 31.7679 29.9499 31.7679 30.0619L31.7755 30.2832C31.7755 30.4002 31.745 30.4905 31.6839 30.5541C31.6254 30.6177 31.5478 30.6495 31.4512 30.6495C31.3571 30.6495 31.2795 30.6164 31.2184 30.5503C31.1599 30.4841 31.1307 30.3938 31.1307 30.2794C31.1307 30.0606 31.2426 29.8596 31.4664 29.6765C31.6903 29.4933 32.0045 29.4017 32.4089 29.4017C32.7193 29.4017 32.9737 29.4539 33.1721 29.5582C33.3222 29.6371 33.4328 29.7604 33.504 29.9283C33.5498 30.0377 33.5727 30.2616 33.5727 30.5999V31.7866C33.5727 32.1198 33.5791 32.3246 33.5918 32.4009C33.6045 32.4747 33.6249 32.5243 33.6529 32.5497C33.6834 32.5752 33.7177 32.5879 33.7559 32.5879C33.7966 32.5879 33.8322 32.579 33.8627 32.5612C33.9161 32.5281 34.0192 32.4353 34.1718 32.2826V32.4963C33.8869 32.8779 33.6147 33.0687 33.3552 33.0687C33.2306 33.0687 33.1314 33.0254 33.0576 32.9389C32.9838 32.8525 32.9457 32.7049 32.9431 32.4963ZM32.9431 32.2483V30.9166C32.559 31.0692 32.311 31.1773 32.1991 31.2409C31.9981 31.3529 31.8544 31.4699 31.7679 31.592C31.6814 31.7141 31.6381 31.8476 31.6381 31.9926C31.6381 32.1758 31.6928 32.3284 31.8022 32.4505C31.9116 32.5701 32.0375 32.6299 32.18 32.6299C32.3733 32.6299 32.6277 32.5027 32.9431 32.2483ZM35.5589 27.574V32.2101C35.5589 32.4289 35.5742 32.5739 35.6047 32.6451C35.6378 32.7164 35.6874 32.7711 35.7535 32.8092C35.8197 32.8448 35.943 32.8626 36.1236 32.8626V33H34.4104V32.8626C34.5706 32.8626 34.68 32.8461 34.7385 32.813C34.797 32.78 34.8428 32.7253 34.8759 32.649C34.909 32.5726 34.9255 32.4264 34.9255 32.2101V29.0354C34.9255 28.6411 34.9166 28.3995 34.8988 28.3104C34.881 28.2189 34.8517 28.1565 34.811 28.1235C34.7729 28.0904 34.7233 28.0739 34.6622 28.0739C34.5961 28.0739 34.5121 28.0942 34.4104 28.1349L34.3455 28.0014L35.3872 27.574H35.5589ZM42.4618 27.8258L42.519 29.0392H42.374C42.346 28.8256 42.3079 28.6729 42.2595 28.5814C42.1807 28.4338 42.0751 28.3257 41.9428 28.257C41.8131 28.1858 41.6414 28.1502 41.4277 28.1502H40.6989V32.1033C40.6989 32.4213 40.7332 32.6197 40.8019 32.6986C40.8986 32.8054 41.0474 32.8588 41.2483 32.8588H41.4277V33H39.2336V32.8588H39.4168C39.6356 32.8588 39.7907 32.7927 39.8823 32.6604C39.9383 32.579 39.9663 32.3933 39.9663 32.1033V28.1502H39.3443C39.1026 28.1502 38.9309 28.168 38.8292 28.2036C38.6969 28.2519 38.5837 28.3448 38.4896 28.4822C38.3954 28.6195 38.3395 28.8052 38.3217 29.0392H38.1767L38.2377 27.8258H42.4618ZM42.9216 30.8212C42.9191 31.3401 43.045 31.7472 43.2994 32.0422C43.5538 32.3373 43.8527 32.4849 44.1961 32.4849C44.425 32.4849 44.6235 32.4225 44.7913 32.2979C44.9618 32.1707 45.1042 31.9545 45.2187 31.6492L45.337 31.7255C45.2836 32.074 45.1284 32.392 44.8715 32.6795C44.6146 32.9644 44.2928 33.1068 43.9061 33.1068C43.4864 33.1068 43.1264 32.944 42.8262 32.6184C42.5286 32.2903 42.3798 31.8502 42.3798 31.2982C42.3798 30.7004 42.5324 30.2349 42.8377 29.9016C43.1455 29.5658 43.5309 29.3979 43.9939 29.3979C44.3856 29.3979 44.7074 29.5277 44.9592 29.7871C45.2111 30.0441 45.337 30.3888 45.337 30.8212H42.9216ZM42.9216 30.5999H44.5395C44.5268 30.376 44.5001 30.2183 44.4594 30.1267C44.3958 29.9843 44.3004 29.8724 44.1732 29.791C44.0485 29.7096 43.9175 29.6688 43.7802 29.6688C43.569 29.6688 43.3795 29.7515 43.2116 29.9169C43.0463 30.0797 42.9496 30.3074 42.9216 30.5999ZM48.6968 31.6721C48.6027 32.1326 48.4183 32.4874 48.1436 32.7367C47.8688 32.9835 47.5648 33.1068 47.2316 33.1068C46.8348 33.1068 46.4888 32.9402 46.1937 32.607C45.8986 32.2737 45.7511 31.8235 45.7511 31.2562C45.7511 30.7067 45.9139 30.2603 46.2395 29.9169C46.5677 29.5735 46.9607 29.4017 47.4186 29.4017C47.762 29.4017 48.0444 29.4933 48.2657 29.6765C48.487 29.8571 48.5976 30.0453 48.5976 30.2412C48.5976 30.3379 48.5658 30.4167 48.5022 30.4778C48.4412 30.5363 48.3547 30.5656 48.2428 30.5656C48.0927 30.5656 47.9795 30.5172 47.9032 30.4206C47.8599 30.3671 47.8307 30.2654 47.8154 30.1153C47.8027 29.9652 47.7518 29.8507 47.6628 29.7719C47.5737 29.6956 47.4504 29.6574 47.2926 29.6574C47.0383 29.6574 46.8335 29.7515 46.6783 29.9398C46.4723 30.1891 46.3692 30.5185 46.3692 30.928C46.3692 31.3452 46.471 31.7141 46.6745 32.0346C46.8805 32.3526 47.1578 32.5116 47.5063 32.5116C47.7556 32.5116 47.9795 32.4264 48.1779 32.2559C48.3178 32.1389 48.4539 31.9265 48.5862 31.6187L48.6968 31.6721ZM50.1488 27.574V30.1306C50.4312 29.8202 50.655 29.6218 50.8204 29.5353C50.9857 29.4463 51.1511 29.4017 51.3164 29.4017C51.5149 29.4017 51.6853 29.4564 51.8277 29.5658C51.9702 29.6752 52.0758 29.8469 52.1445 30.081C52.1928 30.2438 52.217 30.5414 52.217 30.9738V32.2101C52.217 32.4315 52.2348 32.5828 52.2704 32.6642C52.2958 32.7253 52.3391 32.7736 52.4001 32.8092C52.4612 32.8448 52.5731 32.8626 52.7359 32.8626V33H51.0188V32.8626H51.0989C51.2617 32.8626 51.3749 32.8385 51.4385 32.7901C51.5021 32.7393 51.5467 32.6655 51.5721 32.5688C51.5797 32.5281 51.5835 32.4086 51.5835 32.2101V30.9738C51.5835 30.5923 51.5632 30.3417 51.5225 30.2221C51.4843 30.1026 51.422 30.0135 51.3355 29.955C51.249 29.894 51.1447 29.8635 51.0226 29.8635C50.898 29.8635 50.7682 29.8965 50.6334 29.9627C50.4986 30.0288 50.3371 30.1624 50.1488 30.3633V32.2101C50.1488 32.4493 50.1615 32.5981 50.187 32.6566C50.215 32.7151 50.2646 32.7647 50.3358 32.8054C50.4096 32.8436 50.5355 32.8626 50.7135 32.8626V33H48.9812V32.8626C49.1364 32.8626 49.2585 32.8385 49.3475 32.7901C49.3984 32.7647 49.4391 32.7164 49.4696 32.6451C49.5001 32.5739 49.5154 32.4289 49.5154 32.2101V29.0469C49.5154 28.6475 49.5052 28.402 49.4849 28.3104C49.4671 28.2189 49.4378 28.1565 49.3971 28.1235C49.359 28.0904 49.3068 28.0739 49.2407 28.0739C49.1872 28.0739 49.1008 28.0942 48.9812 28.1349L48.9278 28.0014L49.9733 27.574H50.1488ZM53.9704 30.142C54.3799 29.6485 54.7704 29.4017 55.1418 29.4017C55.3326 29.4017 55.4967 29.4501 55.634 29.5467C55.7714 29.6409 55.8808 29.7973 55.9622 30.0161C56.0182 30.1687 56.0461 30.4027 56.0461 30.7182V32.2101C56.0461 32.4315 56.0639 32.5815 56.0996 32.6604C56.1275 32.724 56.1721 32.7736 56.2331 32.8092C56.2967 32.8448 56.4124 32.8626 56.5803 32.8626V33H54.8518V32.8626H54.9243C55.0871 32.8626 55.2003 32.8385 55.2639 32.7901C55.33 32.7393 55.3758 32.6655 55.4013 32.5688C55.4114 32.5307 55.4165 32.4111 55.4165 32.2101V30.7792C55.4165 30.4613 55.3746 30.231 55.2906 30.0886C55.2092 29.9436 55.0706 29.8711 54.8747 29.8711C54.572 29.8711 54.2705 30.0364 53.9704 30.3671V32.2101C53.9704 32.4467 53.9844 32.593 54.0123 32.649C54.048 32.7227 54.0963 32.7774 54.1573 32.813C54.2209 32.8461 54.3481 32.8626 54.5389 32.8626V33H52.8104V32.8626H52.8867C53.0648 32.8626 53.1843 32.8181 53.2454 32.7291C53.309 32.6375 53.3408 32.4645 53.3408 32.2101V30.9128C53.3408 30.4931 53.3306 30.2374 53.3102 30.1458C53.2924 30.0542 53.2632 29.9919 53.2225 29.9588C53.1843 29.9258 53.1322 29.9092 53.066 29.9092C52.9948 29.9092 52.9096 29.9283 52.8104 29.9665L52.7531 29.8291L53.8063 29.4017H53.9704V30.142ZM58.4902 29.4017C59.0193 29.4017 59.4441 29.6027 59.7647 30.0046C60.0369 30.3481 60.1729 30.7423 60.1729 31.1875C60.1729 31.5004 60.0979 31.8171 59.9478 32.1376C59.7977 32.4582 59.5904 32.6998 59.3259 32.8626C59.0638 33.0254 58.7713 33.1068 58.4482 33.1068C57.9217 33.1068 57.5032 32.897 57.1928 32.4772C56.9308 32.1236 56.7998 31.7268 56.7998 31.2867C56.7998 30.9662 56.8787 30.6482 57.0364 30.3328C57.1967 30.0148 57.4065 29.7808 57.666 29.6307C57.9255 29.4781 58.2002 29.4017 58.4902 29.4017ZM58.3719 29.6498C58.2371 29.6498 58.101 29.6905 57.9636 29.7719C57.8288 29.8507 57.7194 29.9906 57.6355 30.1916C57.5515 30.3926 57.5096 30.6508 57.5096 30.9662C57.5096 31.475 57.61 31.9138 57.811 32.2826C58.0145 32.6515 58.2816 32.8359 58.6123 32.8359C58.8591 32.8359 59.0626 32.7342 59.2228 32.5307C59.3831 32.3272 59.4632 31.9774 59.4632 31.4813C59.4632 30.8606 59.3297 30.3722 59.0626 30.0161C58.882 29.7719 58.6517 29.6498 58.3719 29.6498ZM61.8119 27.574V32.2101C61.8119 32.4289 61.8272 32.5739 61.8577 32.6451C61.8907 32.7164 61.9404 32.7711 62.0065 32.8092C62.0726 32.8448 62.196 32.8626 62.3766 32.8626V33H60.6633V32.8626C60.8236 32.8626 60.933 32.8461 60.9915 32.813C61.05 32.78 61.0958 32.7253 61.1289 32.649C61.1619 32.5726 61.1785 32.4264 61.1785 32.2101V29.0354C61.1785 28.6411 61.1696 28.3995 61.1518 28.3104C61.134 28.2189 61.1047 28.1565 61.064 28.1235C61.0258 28.0904 60.9762 28.0739 60.9152 28.0739C60.849 28.0739 60.7651 28.0942 60.6633 28.1349L60.5985 28.0014L61.6402 27.574H61.8119ZM64.4162 29.4017C64.9453 29.4017 65.3702 29.6027 65.6907 30.0046C65.9629 30.3481 66.099 30.7423 66.099 31.1875C66.099 31.5004 66.0239 31.8171 65.8738 32.1376C65.7237 32.4582 65.5164 32.6998 65.2519 32.8626C64.9899 33.0254 64.6973 33.1068 64.3742 33.1068C63.8477 33.1068 63.4292 32.897 63.1189 32.4772C62.8568 32.1236 62.7258 31.7268 62.7258 31.2867C62.7258 30.9662 62.8047 30.6482 62.9624 30.3328C63.1227 30.0148 63.3325 29.7808 63.592 29.6307C63.8515 29.4781 64.1262 29.4017 64.4162 29.4017ZM64.2979 29.6498C64.1631 29.6498 64.027 29.6905 63.8896 29.7719C63.7548 29.8507 63.6454 29.9906 63.5615 30.1916C63.4775 30.3926 63.4356 30.6508 63.4356 30.9662C63.4356 31.475 63.536 31.9138 63.737 32.2826C63.9405 32.6515 64.2076 32.8359 64.5383 32.8359C64.7851 32.8359 64.9886 32.7342 65.1488 32.5307C65.3091 32.3272 65.3892 31.9774 65.3892 31.4813C65.3892 30.8606 65.2557 30.3722 64.9886 30.0161C64.808 29.7719 64.5777 29.6498 64.2979 29.6498ZM67.4708 31.7255C67.2571 31.6212 67.093 31.4762 66.9786 31.2905C66.8641 31.1023 66.8069 30.895 66.8069 30.6686C66.8069 30.3226 66.9366 30.025 67.1961 29.7757C67.4581 29.5264 67.7926 29.4017 68.1996 29.4017C68.5329 29.4017 68.8216 29.4831 69.0658 29.646H69.806C69.9154 29.646 69.979 29.6498 69.9968 29.6574C70.0146 29.6625 70.0274 29.6727 70.035 29.6879C70.0502 29.7108 70.0579 29.7515 70.0579 29.81C70.0579 29.8762 70.0515 29.922 70.0388 29.9474C70.0312 29.9601 70.0172 29.9703 69.9968 29.9779C69.979 29.9856 69.9154 29.9894 69.806 29.9894H69.352C69.4944 30.1725 69.5656 30.4066 69.5656 30.6915C69.5656 31.0171 69.441 31.2956 69.1917 31.5271C68.9424 31.7586 68.6079 31.8744 68.1882 31.8744C68.0152 31.8744 67.8384 31.8489 67.6578 31.798C67.5458 31.8947 67.4695 31.9799 67.4288 32.0537C67.3907 32.1249 67.3716 32.186 67.3716 32.2368C67.3716 32.2801 67.3919 32.3221 67.4326 32.3628C67.4759 32.4035 67.5586 32.4327 67.6807 32.4505C67.7519 32.4607 67.93 32.4696 68.2149 32.4772C68.7389 32.49 69.0785 32.5078 69.2337 32.5307C69.4703 32.5637 69.6585 32.6515 69.7984 32.7939C69.9409 32.9364 70.0121 33.1119 70.0121 33.3205C70.0121 33.608 69.8773 33.8776 69.6076 34.1295C69.2108 34.5009 68.6931 34.6866 68.0546 34.6866C67.5636 34.6866 67.149 34.5759 66.8107 34.3546C66.6199 34.2274 66.5245 34.0951 66.5245 33.9578C66.5245 33.8967 66.5385 33.8356 66.5665 33.7746C66.6097 33.6805 66.6987 33.5495 66.8336 33.3816C66.8514 33.3587 66.9811 33.2213 67.2228 32.9695C67.0905 32.8906 66.9964 32.8207 66.9404 32.7596C66.887 32.696 66.8603 32.6248 66.8603 32.5459C66.8603 32.4569 66.8959 32.3526 66.9671 32.233C67.0409 32.1135 67.2088 31.9443 67.4708 31.7255ZM68.1347 29.5849C67.9465 29.5849 67.7888 29.6599 67.6616 29.81C67.5344 29.9601 67.4708 30.1903 67.4708 30.5007C67.4708 30.9026 67.5573 31.2142 67.7303 31.4355C67.8626 31.6034 68.0304 31.6874 68.234 31.6874C68.4273 31.6874 68.5863 31.6149 68.7109 31.4699C68.8356 31.3249 68.8979 31.0972 68.8979 30.7869C68.8979 30.3824 68.8101 30.0657 68.6346 29.8367C68.5049 29.6688 68.3382 29.5849 68.1347 29.5849ZM67.4326 33C67.3131 33.1297 67.2228 33.2506 67.1617 33.3625C67.1007 33.4744 67.0701 33.5775 67.0701 33.6716C67.0701 33.7937 67.1439 33.9005 67.2915 33.9921C67.5458 34.1498 67.9134 34.2287 68.3942 34.2287C68.8521 34.2287 69.1892 34.1473 69.4054 33.9845C69.6242 33.8242 69.7335 33.6525 69.7335 33.4693C69.7335 33.3371 69.6687 33.2429 69.5389 33.187C69.4067 33.131 69.1446 33.0979 68.7529 33.0878C68.1805 33.0725 67.7404 33.0432 67.4326 33ZM70.1667 29.5048H71.796V29.646H71.7159C71.6014 29.646 71.5149 29.6714 71.4564 29.7223C71.4005 29.7706 71.3725 29.8317 71.3725 29.9054C71.3725 30.0046 71.4145 30.142 71.4984 30.3175L72.3493 32.0804L73.1315 30.1496C73.1748 30.0453 73.1964 29.9423 73.1964 29.8406C73.1964 29.7948 73.1875 29.7604 73.1697 29.7375C73.1494 29.7096 73.1176 29.6879 73.0743 29.6727C73.0311 29.6549 72.9547 29.646 72.8454 29.646V29.5048H73.9825V29.646C73.8883 29.6561 73.8158 29.6765 73.765 29.707C73.7141 29.7375 73.6581 29.7948 73.5971 29.8787C73.5742 29.9143 73.5309 30.0123 73.4673 30.1725L72.0441 33.6601C71.9067 33.9985 71.7261 34.2541 71.5022 34.4271C71.2809 34.6001 71.0672 34.6866 70.8612 34.6866C70.7111 34.6866 70.5877 34.6433 70.491 34.5568C70.3944 34.4703 70.346 34.3711 70.346 34.2592C70.346 34.1524 70.3804 34.0659 70.4491 33.9997C70.5203 33.9361 70.617 33.9043 70.7391 33.9043C70.823 33.9043 70.9375 33.9323 71.0825 33.9883C71.1842 34.0264 71.2478 34.0455 71.2733 34.0455C71.3496 34.0455 71.4323 34.0061 71.5213 33.9272C71.6129 33.8484 71.7045 33.6957 71.796 33.4693L72.0441 32.8626L70.7887 30.2259C70.7505 30.1471 70.6895 30.0492 70.6055 29.9321C70.5419 29.8431 70.4898 29.7833 70.4491 29.7528C70.3906 29.7121 70.2964 29.6765 70.1667 29.646V29.5048Z" fill="#00B0F0"/>
<path d="M0.920455 60.4545V51.4545H1.89205V52.4943H2.01136C2.08523 52.3807 2.1875 52.2358 2.31818 52.0597C2.4517 51.8807 2.64205 51.7216 2.8892 51.5824C3.1392 51.4403 3.47727 51.3693 3.90341 51.3693C4.45455 51.3693 4.94034 51.5071 5.3608 51.7827C5.78125 52.0582 6.10938 52.4489 6.34517 52.9545C6.58097 53.4602 6.69886 54.0568 6.69886 54.7443C6.69886 55.4375 6.58097 56.0384 6.34517 56.5469C6.10938 57.0526 5.78267 57.4446 5.36506 57.723C4.94744 57.9986 4.46591 58.1364 3.92045 58.1364C3.5 58.1364 3.16335 58.0668 2.91051 57.9276C2.65767 57.7855 2.46307 57.625 2.3267 57.446C2.19034 57.2642 2.08523 57.1136 2.01136 56.9943H1.92614V60.4545H0.920455ZM1.90909 54.7273C1.90909 55.2216 1.98153 55.6577 2.12642 56.0355C2.27131 56.4105 2.48295 56.7045 2.76136 56.9176C3.03977 57.1278 3.38068 57.233 3.78409 57.233C4.20455 57.233 4.5554 57.1222 4.83665 56.9006C5.12074 56.6761 5.33381 56.375 5.47585 55.9972C5.62074 55.6165 5.69318 55.1932 5.69318 54.7273C5.69318 54.267 5.62216 53.8523 5.48011 53.483C5.34091 53.1108 5.12926 52.8168 4.84517 52.6009C4.56392 52.3821 4.21023 52.2727 3.78409 52.2727C3.375 52.2727 3.03125 52.3764 2.75284 52.5838C2.47443 52.7884 2.2642 53.0753 2.12216 53.4446C1.98011 53.8111 1.90909 54.2386 1.90909 54.7273ZM9.23864 49.2727V58H8.23295V49.2727H9.23864ZM13.0067 58.1534C12.592 58.1534 12.2156 58.0753 11.8775 57.919C11.5394 57.7599 11.271 57.5312 11.0721 57.233C10.8732 56.9318 10.7738 56.5682 10.7738 56.142C10.7738 55.767 10.8477 55.4631 10.9954 55.2301C11.1431 54.9943 11.3406 54.8097 11.5877 54.6761C11.8349 54.5426 12.1076 54.4432 12.4059 54.3778C12.707 54.3097 13.0096 54.2557 13.3136 54.2159C13.7113 54.1648 14.0337 54.1264 14.2809 54.1009C14.5309 54.0724 14.7127 54.0256 14.8263 53.9602C14.9428 53.8949 15.0011 53.7812 15.0011 53.6193V53.5852C15.0011 53.1648 14.886 52.8381 14.6559 52.6051C14.4286 52.3722 14.0835 52.2557 13.6204 52.2557C13.1403 52.2557 12.7638 52.3608 12.4911 52.571C12.2184 52.7812 12.0266 53.0057 11.9158 53.2443L10.9613 52.9034C11.1317 52.5057 11.359 52.196 11.6431 51.9744C11.93 51.75 12.2425 51.5937 12.5806 51.5057C12.9215 51.4148 13.2567 51.3693 13.5863 51.3693C13.7965 51.3693 14.038 51.3949 14.3107 51.446C14.5863 51.4943 14.8519 51.5952 15.1076 51.7486C15.3661 51.902 15.5806 52.1335 15.7511 52.4432C15.9215 52.7528 16.0067 53.1676 16.0067 53.6875V58H15.0011V57.1136H14.9499C14.8817 57.2557 14.7681 57.4077 14.609 57.5696C14.4499 57.7315 14.2383 57.8693 13.9741 57.983C13.7099 58.0966 13.3874 58.1534 13.0067 58.1534ZM13.1602 57.25C13.5579 57.25 13.8931 57.1719 14.1658 57.0156C14.4414 56.8594 14.6488 56.6577 14.788 56.4105C14.93 56.1634 15.0011 55.9034 15.0011 55.6307V54.7102C14.9585 54.7614 14.8647 54.8082 14.7198 54.8509C14.5778 54.8906 14.413 54.9261 14.2255 54.9574C14.0408 54.9858 13.8604 55.0114 13.6843 55.0341C13.511 55.054 13.3704 55.071 13.2624 55.0852C13.0011 55.1193 12.7567 55.1747 12.5295 55.2514C12.305 55.3253 12.1232 55.4375 11.984 55.5881C11.8477 55.7358 11.7795 55.9375 11.7795 56.1932C11.7795 56.5426 11.9087 56.8068 12.1673 56.9858C12.4286 57.1619 12.7596 57.25 13.1602 57.25ZM18.848 54.0625V58H17.8423V51.4545H18.8139V52.4773H18.8991C19.0526 52.1449 19.2855 51.8778 19.598 51.6761C19.9105 51.4716 20.3139 51.3693 20.8082 51.3693C21.2514 51.3693 21.6392 51.4602 21.9716 51.642C22.304 51.821 22.5625 52.0938 22.7472 52.4602C22.9318 52.8239 23.0241 53.2841 23.0241 53.8409V58H22.0185V53.9091C22.0185 53.3949 21.8849 52.9943 21.6179 52.7074C21.3509 52.4176 20.9844 52.2727 20.5185 52.2727C20.1974 52.2727 19.9105 52.3423 19.6577 52.4815C19.4077 52.6207 19.2102 52.8239 19.0653 53.0909C18.9205 53.358 18.848 53.6818 18.848 54.0625ZM24.8619 58V51.4545H25.8675V58H24.8619ZM25.3732 50.3636C25.1772 50.3636 25.0082 50.2969 24.8661 50.1634C24.7269 50.0298 24.6573 49.8693 24.6573 49.6818C24.6573 49.4943 24.7269 49.3338 24.8661 49.2003C25.0082 49.0668 25.1772 49 25.3732 49C25.5692 49 25.7369 49.0668 25.8761 49.2003C26.0181 49.3338 26.0891 49.4943 26.0891 49.6818C26.0891 49.8693 26.0181 50.0298 25.8761 50.1634C25.7369 50.2969 25.5692 50.3636 25.3732 50.3636ZM28.7152 49.2727V58H27.7095V49.2727H28.7152ZM30.5572 58V51.4545H31.5629V58H30.5572ZM31.0685 50.3636C30.8725 50.3636 30.7035 50.2969 30.5614 50.1634C30.4222 50.0298 30.3526 49.8693 30.3526 49.6818C30.3526 49.4943 30.4222 49.3338 30.5614 49.2003C30.7035 49.0668 30.8725 49 31.0685 49C31.2646 49 31.4322 49.0668 31.5714 49.2003C31.7134 49.3338 31.7844 49.4943 31.7844 49.6818C31.7844 49.8693 31.7134 50.0298 31.5714 50.1634C31.4322 50.2969 31.2646 50.3636 31.0685 50.3636ZM34.4105 54.0625V58H33.4048V51.4545H34.3764V52.4773H34.4616C34.6151 52.1449 34.848 51.8778 35.1605 51.6761C35.473 51.4716 35.8764 51.3693 36.3707 51.3693C36.8139 51.3693 37.2017 51.4602 37.5341 51.642C37.8665 51.821 38.125 52.0938 38.3097 52.4602C38.4943 52.8239 38.5866 53.2841 38.5866 53.8409V58H37.581V53.9091C37.581 53.3949 37.4474 52.9943 37.1804 52.7074C36.9134 52.4176 36.5469 52.2727 36.081 52.2727C35.7599 52.2727 35.473 52.3423 35.2202 52.4815C34.9702 52.6207 34.7727 52.8239 34.6278 53.0909C34.483 53.358 34.4105 53.6818 34.4105 54.0625ZM41.3619 55.6136L41.3448 54.3693H41.5494L44.413 51.4545H45.6573L42.6062 54.5398H42.521L41.3619 55.6136ZM40.4244 58V49.2727H41.43V58H40.4244ZM44.5835 58L42.0266 54.7614L42.7425 54.0625L45.8619 58H44.5835ZM51.9801 60.3011C51.1108 60.3011 50.3423 60.1818 49.6747 59.9432C49.0071 59.7074 48.446 59.3594 47.9915 58.8991C47.5369 58.4389 47.1932 57.875 46.9602 57.2074C46.7273 56.5398 46.6108 55.7756 46.6108 54.9148C46.6108 54.0824 46.7287 53.3381 46.9645 52.6818C47.2031 52.0256 47.5483 51.4688 48 51.0114C48.4545 50.5511 49.0057 50.2003 49.6534 49.9588C50.304 49.7173 51.0398 49.5966 51.8608 49.5966C52.6591 49.5966 53.358 49.7273 53.9574 49.9886C54.5597 50.2472 55.0625 50.598 55.4659 51.0412C55.8722 51.4815 56.1761 51.9773 56.3778 52.5284C56.5824 53.0795 56.6847 53.6477 56.6847 54.233C56.6847 54.6449 56.6648 55.0625 56.625 55.4858C56.5852 55.9091 56.5014 56.2983 56.3736 56.6534C56.2457 57.0057 56.0483 57.2898 55.7812 57.5057C55.517 57.7216 55.1591 57.8295 54.7074 57.8295C54.5085 57.8295 54.2898 57.7983 54.0511 57.7358C53.8125 57.6733 53.6009 57.5696 53.4162 57.4247C53.2315 57.2798 53.1222 57.0852 53.0881 56.8409H53.0369C52.9688 57.0057 52.8636 57.1619 52.7216 57.3097C52.5824 57.4574 52.3991 57.5753 52.1719 57.6634C51.9474 57.7514 51.6733 57.7898 51.3494 57.7784C50.9801 57.7642 50.6548 57.6818 50.3736 57.5312C50.0923 57.3778 49.8565 57.1705 49.6662 56.9091C49.4787 56.6449 49.3366 56.3395 49.2401 55.9929C49.1463 55.6435 49.0994 55.267 49.0994 54.8636C49.0994 54.4801 49.1562 54.1293 49.2699 53.8111C49.3835 53.4929 49.5412 53.2145 49.7429 52.9759C49.9474 52.7372 50.1861 52.5469 50.4588 52.4048C50.7344 52.2599 51.0313 52.1705 51.3494 52.1364C51.6335 52.108 51.892 52.1207 52.125 52.1747C52.358 52.2259 52.5497 52.304 52.7003 52.4091C52.8509 52.5114 52.946 52.625 52.9858 52.75H53.0369V52.2727H53.9403V56.125C53.9403 56.3636 54.0071 56.5739 54.1406 56.7557C54.2741 56.9375 54.4688 57.0284 54.7244 57.0284C55.0142 57.0284 55.2358 56.929 55.3892 56.7301C55.5455 56.5312 55.652 56.2244 55.7088 55.8097C55.7685 55.3949 55.7983 54.8636 55.7983 54.2159C55.7983 53.8352 55.7457 53.4602 55.6406 53.0909C55.5384 52.7187 55.3821 52.3707 55.1719 52.0469C54.9645 51.723 54.7017 51.4375 54.3835 51.1903C54.0653 50.9432 53.6918 50.75 53.2628 50.6108C52.8366 50.4687 52.3523 50.3977 51.8097 50.3977C51.142 50.3977 50.544 50.5014 50.0156 50.7088C49.4901 50.9134 49.0426 51.2131 48.6733 51.608C48.3068 52 48.027 52.4773 47.8338 53.0398C47.6435 53.5994 47.5483 54.2358 47.5483 54.9489C47.5483 55.6733 47.6435 56.3168 47.8338 56.8793C48.027 57.4418 48.3111 57.9162 48.6861 58.3026C49.0639 58.6889 49.5312 58.9815 50.0881 59.1804C50.6449 59.3821 51.2869 59.483 52.0142 59.483C52.3267 59.483 52.6349 59.4531 52.9389 59.3935C53.2429 59.3338 53.5114 59.2685 53.7443 59.1974C53.9773 59.1264 54.1449 59.0739 54.2472 59.0398L54.4858 59.8239C54.3097 59.8977 54.0795 59.9716 53.7955 60.0455C53.5142 60.1193 53.2131 60.1804 52.892 60.2287C52.5739 60.277 52.2699 60.3011 51.9801 60.3011ZM51.4858 56.9091C51.8665 56.9091 52.1747 56.8324 52.4105 56.679C52.6463 56.5256 52.8182 56.294 52.9261 55.9844C53.0341 55.6747 53.0881 55.2841 53.0881 54.8125C53.0881 54.3352 53.0284 53.9631 52.9091 53.696C52.7898 53.429 52.6136 53.2415 52.3807 53.1335C52.1477 53.0256 51.8608 52.9716 51.5199 52.9716C51.196 52.9716 50.919 53.0568 50.6889 53.2273C50.4616 53.3949 50.2869 53.6193 50.1648 53.9006C50.0455 54.179 49.9858 54.483 49.9858 54.8125C49.9858 55.1761 50.0341 55.5185 50.1307 55.8395C50.2273 56.1577 50.3849 56.4162 50.6037 56.6151C50.8224 56.8111 51.1165 56.9091 51.4858 56.9091ZM58.19 60.4545V51.4545H59.1616V52.4943H59.2809C59.3548 52.3807 59.457 52.2358 59.5877 52.0597C59.7212 51.8807 59.9116 51.7216 60.1587 51.5824C60.4087 51.4403 60.7468 51.3693 61.1729 51.3693C61.7241 51.3693 62.2099 51.5071 62.6303 51.7827C63.0508 52.0582 63.3789 52.4489 63.6147 52.9545C63.8505 53.4602 63.9684 54.0568 63.9684 54.7443C63.9684 55.4375 63.8505 56.0384 63.6147 56.5469C63.3789 57.0526 63.0522 57.4446 62.6346 57.723C62.217 57.9986 61.7354 58.1364 61.19 58.1364C60.7695 58.1364 60.4329 58.0668 60.18 57.9276C59.9272 57.7855 59.7326 57.625 59.5962 57.446C59.4599 57.2642 59.3548 57.1136 59.2809 56.9943H59.1957V60.4545H58.19ZM59.1786 54.7273C59.1786 55.2216 59.2511 55.6577 59.396 56.0355C59.5408 56.4105 59.7525 56.7045 60.0309 56.9176C60.3093 57.1278 60.6502 57.233 61.0536 57.233C61.4741 57.233 61.8249 57.1222 62.1062 56.9006C62.3903 56.6761 62.6033 56.375 62.7454 55.9972C62.8903 55.6165 62.9627 55.1932 62.9627 54.7273C62.9627 54.267 62.8917 53.8523 62.7496 53.483C62.6104 53.1108 62.3988 52.8168 62.1147 52.6009C61.8335 52.3821 61.4798 52.2727 61.0536 52.2727C60.6445 52.2727 60.3008 52.3764 60.0224 52.5838C59.744 52.7884 59.5337 53.0753 59.3917 53.4446C59.2496 53.8111 59.1786 54.2386 59.1786 54.7273ZM66.5082 49.2727V58H65.5025V49.2727H66.5082ZM70.2763 58.1534C69.8615 58.1534 69.4851 58.0753 69.147 57.919C68.8089 57.7599 68.5405 57.5312 68.3416 57.233C68.1428 56.9318 68.0433 56.5682 68.0433 56.142C68.0433 55.767 68.1172 55.4631 68.2649 55.2301C68.4126 54.9943 68.6101 54.8097 68.8572 54.6761C69.1044 54.5426 69.3771 54.4432 69.6754 54.3778C69.9766 54.3097 70.2791 54.2557 70.5831 54.2159C70.9808 54.1648 71.3033 54.1264 71.5504 54.1009C71.8004 54.0724 71.9822 54.0256 72.0959 53.9602C72.2124 53.8949 72.2706 53.7812 72.2706 53.6193V53.5852C72.2706 53.1648 72.1555 52.8381 71.9254 52.6051C71.6982 52.3722 71.353 52.2557 70.8899 52.2557C70.4098 52.2557 70.0334 52.3608 69.7607 52.571C69.4879 52.7812 69.2962 53.0057 69.1854 53.2443L68.2308 52.9034C68.4013 52.5057 68.6286 52.196 68.9126 51.9744C69.1996 51.75 69.5121 51.5937 69.8501 51.5057C70.1911 51.4148 70.5263 51.3693 70.8558 51.3693C71.0661 51.3693 71.3075 51.3949 71.5803 51.446C71.8558 51.4943 72.1214 51.5952 72.3771 51.7486C72.6357 51.902 72.8501 52.1335 73.0206 52.4432C73.1911 52.7528 73.2763 53.1676 73.2763 53.6875V58H72.2706V57.1136H72.2195C72.1513 57.2557 72.0376 57.4077 71.8786 57.5696C71.7195 57.7315 71.5078 57.8693 71.2436 57.983C70.9794 58.0966 70.657 58.1534 70.2763 58.1534ZM70.4297 57.25C70.8274 57.25 71.1626 57.1719 71.4354 57.0156C71.7109 56.8594 71.9183 56.6577 72.0575 56.4105C72.1996 56.1634 72.2706 55.9034 72.2706 55.6307V54.7102C72.228 54.7614 72.1342 54.8082 71.9893 54.8509C71.8473 54.8906 71.6825 54.9261 71.495 54.9574C71.3104 54.9858 71.13 55.0114 70.9538 55.0341C70.7805 55.054 70.6399 55.071 70.532 55.0852C70.2706 55.1193 70.0263 55.1747 69.799 55.2514C69.5746 55.3253 69.3928 55.4375 69.2536 55.5881C69.1172 55.7358 69.049 55.9375 69.049 56.1932C69.049 56.5426 69.1783 56.8068 69.4368 56.9858C69.6982 57.1619 70.0291 57.25 70.4297 57.25ZM76.1175 54.0625V58H75.1119V51.4545H76.0835V52.4773H76.1687C76.3221 52.1449 76.555 51.8778 76.8675 51.6761C77.18 51.4716 77.5835 51.3693 78.0778 51.3693C78.521 51.3693 78.9087 51.4602 79.2411 51.642C79.5735 51.821 79.832 52.0938 80.0167 52.4602C80.2013 52.8239 80.2937 53.2841 80.2937 53.8409V58H79.288V53.9091C79.288 53.3949 79.1545 52.9943 78.8874 52.7074C78.6204 52.4176 78.2539 52.2727 77.788 52.2727C77.467 52.2727 77.18 52.3423 76.9272 52.4815C76.6772 52.6207 76.4798 52.8239 76.3349 53.0909C76.19 53.358 76.1175 53.6818 76.1175 54.0625ZM82.1314 58V51.4545H83.1371V58H82.1314ZM82.6428 50.3636C82.4467 50.3636 82.2777 50.2969 82.1357 50.1634C81.9964 50.0298 81.9268 49.8693 81.9268 49.6818C81.9268 49.4943 81.9964 49.3338 82.1357 49.2003C82.2777 49.0668 82.4467 49 82.6428 49C82.8388 49 83.0064 49.0668 83.1456 49.2003C83.2876 49.3338 83.3587 49.4943 83.3587 49.6818C83.3587 49.8693 83.2876 50.0298 83.1456 50.1634C83.0064 50.2969 82.8388 50.3636 82.6428 50.3636ZM85.9847 49.2727V58H84.979V49.2727H85.9847ZM87.8267 58V51.4545H88.8324V58H87.8267ZM88.3381 50.3636C88.142 50.3636 87.973 50.2969 87.831 50.1634C87.6918 50.0298 87.6222 49.8693 87.6222 49.6818C87.6222 49.4943 87.6918 49.3338 87.831 49.2003C87.973 49.0668 88.142 49 88.3381 49C88.5341 49 88.7017 49.0668 88.8409 49.2003C88.983 49.3338 89.054 49.4943 89.054 49.6818C89.054 49.8693 88.983 50.0298 88.8409 50.1634C88.7017 50.2969 88.5341 50.3636 88.3381 50.3636ZM91.68 54.0625V58H90.6744V51.4545H91.646V52.4773H91.7312C91.8846 52.1449 92.1175 51.8778 92.43 51.6761C92.7425 51.4716 93.146 51.3693 93.6403 51.3693C94.0835 51.3693 94.4712 51.4602 94.8036 51.642C95.136 51.821 95.3945 52.0938 95.5792 52.4602C95.7638 52.8239 95.8562 53.2841 95.8562 53.8409V58H94.8505V53.9091C94.8505 53.3949 94.717 52.9943 94.4499 52.7074C94.1829 52.4176 93.8164 52.2727 93.3505 52.2727C93.0295 52.2727 92.7425 52.3423 92.4897 52.4815C92.2397 52.6207 92.0423 52.8239 91.8974 53.0909C91.7525 53.358 91.68 53.6818 91.68 54.0625ZM98.6314 55.6136L98.6143 54.3693H98.8189L101.683 51.4545H102.927L99.8757 54.5398H99.7905L98.6314 55.6136ZM97.6939 58V49.2727H98.6996V58H97.6939ZM101.853 58L99.2962 54.7614L100.012 54.0625L103.131 58H101.853ZM104.954 58.0682C104.744 58.0682 104.564 57.9929 104.413 57.8423C104.262 57.6918 104.187 57.5114 104.187 57.3011C104.187 57.0909 104.262 56.9105 104.413 56.7599C104.564 56.6094 104.744 56.5341 104.954 56.5341C105.164 56.5341 105.345 56.6094 105.495 56.7599C105.646 56.9105 105.721 57.0909 105.721 57.3011C105.721 57.4403 105.686 57.5682 105.615 57.6847C105.547 57.8011 105.454 57.8949 105.338 57.9659C105.224 58.0341 105.096 58.0682 104.954 58.0682ZM110.185 58.1364C109.571 58.1364 109.043 57.9915 108.6 57.7017C108.157 57.4119 107.816 57.0128 107.577 56.5043C107.338 55.9957 107.219 55.4148 107.219 54.7614C107.219 54.0966 107.341 53.5099 107.586 53.0014C107.833 52.4901 108.176 52.0909 108.617 51.804C109.06 51.5142 109.577 51.3693 110.168 51.3693C110.628 51.3693 111.043 51.4545 111.412 51.625C111.782 51.7955 112.084 52.0341 112.32 52.3409C112.556 52.6477 112.702 53.0057 112.759 53.4148H111.753C111.676 53.1165 111.506 52.8523 111.242 52.6222C110.98 52.3892 110.628 52.2727 110.185 52.2727C109.793 52.2727 109.449 52.375 109.154 52.5795C108.861 52.7812 108.632 53.0668 108.468 53.4361C108.306 53.8026 108.225 54.233 108.225 54.7273C108.225 55.233 108.304 55.6733 108.463 56.0483C108.625 56.4233 108.853 56.7145 109.145 56.9219C109.441 57.1293 109.787 57.233 110.185 57.233C110.446 57.233 110.684 57.1875 110.897 57.0966C111.11 57.0057 111.29 56.875 111.438 56.7045C111.586 56.5341 111.691 56.3295 111.753 56.0909H112.759C112.702 56.4773 112.561 56.8253 112.337 57.1349C112.115 57.4418 111.821 57.6861 111.455 57.8679C111.091 58.0469 110.668 58.1364 110.185 58.1364ZM116.888 58.1364C116.297 58.1364 115.779 57.9957 115.333 57.7145C114.89 57.4332 114.543 57.0398 114.293 56.5341C114.046 56.0284 113.922 55.4375 113.922 54.7614C113.922 54.0795 114.046 53.4844 114.293 52.9759C114.543 52.4673 114.89 52.0724 115.333 51.7912C115.779 51.5099 116.297 51.3693 116.888 51.3693C117.479 51.3693 117.996 51.5099 118.439 51.7912C118.885 52.0724 119.232 52.4673 119.479 52.9759C119.729 53.4844 119.854 54.0795 119.854 54.7614C119.854 55.4375 119.729 56.0284 119.479 56.5341C119.232 57.0398 118.885 57.4332 118.439 57.7145C117.996 57.9957 117.479 58.1364 116.888 58.1364ZM116.888 57.233C117.337 57.233 117.706 57.1179 117.996 56.8878C118.286 56.6577 118.5 56.3551 118.64 55.9801C118.779 55.6051 118.848 55.1989 118.848 54.7614C118.848 54.3239 118.779 53.9162 118.64 53.5384C118.5 53.1605 118.286 52.8551 117.996 52.6222C117.706 52.3892 117.337 52.2727 116.888 52.2727C116.439 52.2727 116.07 52.3892 115.78 52.6222C115.49 52.8551 115.276 53.1605 115.137 53.5384C114.998 53.9162 114.928 54.3239 114.928 54.7614C114.928 55.1989 114.998 55.6051 115.137 55.9801C115.276 56.3551 115.49 56.6577 115.78 56.8878C116.07 57.1179 116.439 57.233 116.888 57.233ZM121.389 58V51.4545H122.361V52.4773H122.446C122.582 52.1278 122.803 51.8565 123.107 51.6634C123.411 51.4673 123.776 51.3693 124.202 51.3693C124.634 51.3693 124.993 51.4673 125.28 51.6634C125.57 51.8565 125.795 52.1278 125.957 52.4773H126.026C126.193 52.1392 126.445 51.8707 126.78 51.6719C127.115 51.4702 127.517 51.3693 127.986 51.3693C128.571 51.3693 129.05 51.5526 129.422 51.919C129.794 52.2827 129.98 52.8494 129.98 53.6193V58H128.974V53.6193C128.974 53.1364 128.842 52.7912 128.578 52.5838C128.314 52.3764 128.003 52.2727 127.645 52.2727C127.185 52.2727 126.828 52.4119 126.575 52.6903C126.322 52.9659 126.196 53.3153 126.196 53.7386V58H125.173V53.517C125.173 53.1449 125.053 52.8452 124.811 52.6179C124.57 52.3878 124.259 52.2727 123.878 52.2727C123.616 52.2727 123.372 52.3423 123.145 52.4815C122.92 52.6207 122.739 52.8139 122.599 53.0611C122.463 53.3054 122.395 53.5881 122.395 53.9091V58H121.389Z" fill="#737794"/>
</svg>
