<svg width="24" height="25" viewBox="0 0 24 25" fill="none" xmlns="http://www.w3.org/2000/svg">
<path d="M5 5.5H11C11.55 5.5 12 5.05 12 4.5C12 3.95 11.55 3.5 11 3.5H5C3.9 3.5 3 4.4 3 5.5V19.5C3 20.6 3.9 21.5 5 21.5H11C11.55 21.5 12 21.05 12 20.5C12 19.95 11.55 19.5 11 19.5H5V5.5Z" fill="white"/>
<path d="M20.65 12.1496L17.86 9.35955C17.7905 9.2881 17.7012 9.23903 17.6036 9.21862C17.506 9.19821 17.4045 9.20738 17.3121 9.24497C17.2198 9.28255 17.1408 9.34684 17.0851 9.4296C17.0295 9.51237 16.9999 9.60984 17 9.70955V11.4996H10C9.45 11.4996 9 11.9496 9 12.4996C9 13.0496 9.45 13.4996 10 13.4996H17V15.2896C17 15.7396 17.54 15.9596 17.85 15.6396L20.64 12.8496C20.84 12.6596 20.84 12.3396 20.65 12.1496Z" fill="white"/>
</svg>
