<svg width="39" height="24" viewBox="0 0 39 24" fill="none" xmlns="http://www.w3.org/2000/svg">
<g id="Group 1261152721">
<path id="Vector" d="M23.264 12.2049C23.264 18.5291 18.1373 23.655 11.8133 23.655C5.48939 23.655 0.363281 18.5289 0.363281 12.2049C0.363281 5.88138 5.48946 0.754883 11.8133 0.754883C18.1371 0.754883 23.264 5.88163 23.264 12.2049Z" fill="#00B0F0"/>
<path id="Vector_2" d="M27.1859 0.754395C24.2274 0.754395 21.5315 1.87682 19.4994 3.71846C19.0854 4.09411 18.6989 4.49904 18.3432 4.93018H20.6566C20.9733 5.31528 21.2649 5.72033 21.5296 6.14293H17.4704C17.2263 6.53344 17.0059 6.93831 16.8107 7.35542H22.1889C22.3735 7.74996 22.5353 8.15469 22.6737 8.56766H16.3259C16.1926 8.96532 16.0815 9.37012 15.9932 9.78015H23.0061C23.1776 10.5769 23.2641 11.3896 23.2639 12.2046C23.2639 13.4763 23.0563 14.6995 22.6736 15.8419H16.3258C16.4639 16.2551 16.6256 16.6599 16.8104 17.0544H22.1888C21.9934 17.4716 21.7729 17.8766 21.5287 18.2672H17.4702C17.7347 18.6895 18.0264 19.0943 18.3431 19.4789H20.656C20.3007 19.9109 19.9142 20.3163 19.4996 20.6918C21.5317 22.5331 24.2274 23.655 27.1861 23.655C33.51 23.655 38.6368 18.5289 38.6368 12.2049C38.6368 5.88165 33.51 0.754905 27.1861 0.754905" fill="#2367CC"/>
<path id="Vector_3" d="M37.11 18.5874C37.11 18.3833 37.2754 18.2174 37.4798 18.2174C37.6841 18.2174 37.8495 18.3833 37.8495 18.5874C37.8495 18.7915 37.6841 18.9574 37.4798 18.9574C37.2754 18.9574 37.11 18.7915 37.11 18.5874ZM37.4798 18.8686C37.635 18.8685 37.7609 18.7427 37.7609 18.5874C37.7609 18.4323 37.6352 18.3066 37.4801 18.3065H37.4798C37.3248 18.3063 37.1991 18.4317 37.1988 18.5866V18.5875C37.1987 18.7427 37.3244 18.8685 37.4795 18.8686C37.4796 18.8686 37.4797 18.8686 37.4798 18.8686ZM37.4298 18.7499H37.3541V18.4249H37.4912C37.5199 18.4249 37.5491 18.4249 37.5744 18.4411C37.6008 18.4589 37.6156 18.4902 37.6156 18.5227C37.6156 18.5591 37.5941 18.5931 37.5592 18.6063L37.6191 18.7499H37.5352L37.4855 18.6212H37.4299L37.4298 18.7499ZM37.4298 18.5656H37.4718C37.4875 18.5656 37.504 18.5669 37.5181 18.5592C37.5305 18.5512 37.537 18.5363 37.537 18.522C37.5366 18.5086 37.5298 18.4963 37.5186 18.4889C37.5054 18.4807 37.4844 18.4825 37.4702 18.4825H37.4298V18.5656ZM9.13959 13.4585C9.00908 13.4433 8.95173 13.4393 8.86211 13.4393C8.1575 13.4393 7.8008 13.6808 7.8008 14.158C7.8008 14.4522 7.97487 14.6393 8.24649 14.6393C8.7529 14.6393 9.11777 14.1572 9.13959 13.4585ZM10.0435 15.5632H9.01361L9.03727 15.0736C8.72305 15.4605 8.30396 15.6445 7.73433 15.6445C7.06053 15.6445 6.59864 15.1182 6.59864 14.3541C6.59864 13.2043 7.40212 12.5335 8.78129 12.5335C8.92213 12.5335 9.10291 12.5462 9.28783 12.5698C9.32636 12.4141 9.3365 12.3473 9.3365 12.2636C9.3365 11.9505 9.11988 11.8338 8.53915 11.8338C7.93105 11.827 7.42948 11.9787 7.22351 12.0465C7.23652 11.9681 7.39574 10.9838 7.39574 10.9838C8.01525 10.8023 8.42375 10.7339 8.88361 10.7339C9.95092 10.7339 10.5163 11.2132 10.5153 12.1189C10.5174 12.3616 10.4772 12.6611 10.4145 13.0548C10.3067 13.7395 10.0752 15.2058 10.0435 15.5632ZM6.07857 15.5632H4.83552L5.54753 11.0982L3.9576 15.5632H3.11055L3.00581 11.1238L2.25738 15.5632H1.09375L2.0657 9.75492H3.85311L3.96156 13.0061L5.05183 9.75492H7.03993L6.07857 15.5632ZM28.7216 13.4585C28.5916 13.4433 28.534 13.4393 28.4446 13.4393C27.7403 13.4393 27.3836 13.6808 27.3836 14.158C27.3836 14.4522 27.5574 14.6393 27.829 14.6393C28.3355 14.6393 28.7006 14.1572 28.7216 13.4585ZM29.6264 15.5632H28.5964L28.6198 15.0736C28.3056 15.4605 27.8862 15.6445 27.3171 15.6445C26.6432 15.6445 26.1817 15.1182 26.1817 14.3541C26.1817 13.2043 26.9846 12.5335 28.364 12.5335C28.5049 12.5335 28.6854 12.5462 28.8701 12.5698C28.9087 12.4141 28.9188 12.3473 28.9188 12.2636C28.9188 11.9505 28.7024 11.8338 28.1217 11.8338C27.5136 11.827 27.0126 11.9787 26.8058 12.0465C26.8188 11.9681 26.9786 10.9838 26.9786 10.9838C27.5981 10.8023 28.0064 10.7339 28.4657 10.7339C29.5335 10.7339 30.099 11.2132 30.0979 12.1189C30.0999 12.3616 30.0598 12.6611 29.9972 13.0548C29.8897 13.7395 29.6577 15.2058 29.6264 15.5632ZM15.568 15.4915C15.2278 15.5986 14.9626 15.6445 14.675 15.6445C14.0395 15.6445 13.6927 15.2793 13.6927 14.6068C13.6836 14.3981 13.7841 13.849 13.8631 13.3478C13.9348 12.9066 14.402 10.1246 14.402 10.1246H15.6377L15.4933 10.8396H16.2396L16.071 11.9748H15.322C15.1785 12.8731 14.9741 13.9921 14.9718 14.1404C14.9718 14.3838 15.1017 14.4901 15.3973 14.4901C15.539 14.4901 15.6486 14.4757 15.7325 14.4455L15.568 15.4915ZM19.3565 15.4532C18.9321 15.583 18.5225 15.6457 18.0885 15.6446C16.7053 15.6432 15.9843 14.9208 15.9843 13.5375C15.9843 11.9228 16.9016 10.7342 18.1467 10.7342C19.1654 10.7342 19.8161 11.3997 19.8161 12.4435C19.8161 12.7898 19.7714 13.1279 19.6637 13.6052H17.2032C17.1199 14.2903 17.5585 14.5759 18.2772 14.5759C18.7195 14.5759 19.1184 14.4847 19.562 14.2784L19.3565 15.4532ZM18.662 12.6529C18.6688 12.5545 18.7931 11.8098 18.0871 11.8098C17.6934 11.8098 17.412 12.1099 17.2974 12.6529H18.662ZM10.7892 12.3329C10.7892 12.9304 11.079 13.3424 11.736 13.6518C12.2394 13.8884 12.3172 13.9586 12.3172 14.1729C12.3172 14.4674 12.0953 14.6004 11.6034 14.6004C11.2326 14.6004 10.8876 14.5424 10.4897 14.414C10.4897 14.414 10.3262 15.4551 10.3188 15.5049C10.6014 15.5666 10.8533 15.6236 11.6124 15.6446C12.924 15.6446 13.5298 15.1452 13.5298 14.0658C13.5298 13.4168 13.2761 13.0359 12.6535 12.7496C12.1323 12.5104 12.0725 12.457 12.0725 12.2364C12.0725 11.981 12.279 11.8508 12.6809 11.8508C12.9249 11.8508 13.2582 11.8768 13.5739 11.9217L13.7509 10.8261C13.429 10.7751 12.9411 10.7341 12.657 10.7341C11.2663 10.7342 10.785 11.4606 10.7892 12.3329ZM25.4025 10.8583C25.7478 10.8583 26.0696 10.949 26.5132 11.1722L26.7166 9.91158C26.5345 9.84007 25.8935 9.42041 25.3504 9.42041C24.5186 9.42041 23.8154 9.83319 23.3207 10.5144C22.5993 10.2754 22.3027 10.7584 21.9392 11.2395L21.6162 11.3147C21.6407 11.1563 21.6627 10.9989 21.6553 10.8397H20.5137C20.3578 12.3015 20.0814 13.7821 19.8649 15.2459L19.8085 15.5633H21.0522C21.2597 14.2146 21.3735 13.3511 21.4426 12.7667L21.9109 12.5062C21.9809 12.2461 22.1998 12.158 22.6392 12.1687C22.5801 12.4881 22.5506 12.8124 22.5509 13.1372C22.5509 14.6825 23.3847 15.6446 24.7229 15.6446C25.0676 15.6446 25.3634 15.5992 25.8214 15.4751L26.0402 14.1509C25.6283 14.3538 25.2901 14.4492 24.984 14.4492C24.2613 14.4492 23.824 13.9158 23.824 13.0341C23.824 11.7551 24.4744 10.8583 25.4025 10.8583Z" fill="black"/>
<path id="Vector_4" d="M6.43593 15.2181H5.19262L5.90521 10.7536L4.31521 15.2181H3.46791L3.36317 10.7792L2.61474 15.2181H1.45117L2.42312 9.41064H4.21054L4.2608 13.0059L5.46666 9.41064H7.39735L6.43593 15.2181Z" fill="#2F3144"/>
<path id="Vector_5" d="M35.9264 9.75537L35.6508 11.4336C35.3108 10.9862 34.9457 10.6625 34.4635 10.6625C33.8363 10.6625 33.2654 11.1381 32.8917 11.8378C32.3713 11.7299 31.833 11.5467 31.833 11.5467L31.8327 11.551C31.8747 11.1597 31.8915 10.9211 31.8877 10.84H30.7459C30.5904 12.3019 30.314 13.7825 30.098 15.2462L30.041 15.5636H31.2844C31.4523 14.4731 31.5809 13.5676 31.6756 12.8494C32.1003 12.4656 32.313 12.1307 32.7422 12.1531C32.5522 12.6127 32.4408 13.142 32.4408 13.6851C32.4408 14.866 33.0382 15.645 33.9419 15.645C34.3975 15.645 34.747 15.4879 35.088 15.1238L35.0298 15.5629H36.2057L37.1525 9.75543L35.9264 9.75537ZM34.3718 14.472C33.9486 14.472 33.735 14.1589 33.735 13.5409C33.735 12.6125 34.135 11.9542 34.699 11.9542C35.126 11.9542 35.3573 12.2797 35.3573 12.8797C35.3573 13.816 34.9509 14.472 34.3718 14.472Z" fill="black"/>
<path id="Vector_6" d="M9.49656 13.114C9.3663 13.099 9.30864 13.0949 9.21934 13.0949C8.51473 13.0949 8.15828 13.3365 8.15828 13.8136C8.15828 14.1073 8.33236 14.295 8.60346 14.295C9.11038 14.2949 9.47532 13.8128 9.49656 13.114ZM10.401 15.218H9.37102L9.39444 14.7292C9.08053 15.1154 8.66087 15.3001 8.09181 15.3001C7.41776 15.3001 6.95605 14.7739 6.95605 14.0097C6.95605 12.8595 7.75928 12.1891 9.13871 12.1891C9.27955 12.1891 9.46033 12.2018 9.64506 12.2255C9.68359 12.0698 9.69373 12.0031 9.69373 11.9188C9.69373 11.6057 9.47736 11.4896 8.89663 11.4896C8.28828 11.4827 7.78696 11.6344 7.58074 11.7014C7.59375 11.6233 7.75296 10.6402 7.75296 10.6402C8.37222 10.4579 8.78124 10.3895 9.24051 10.3895C10.3081 10.3895 10.8738 10.869 10.8727 11.774C10.8746 12.0177 10.8342 12.317 10.7717 12.7101C10.6641 13.3942 10.4324 14.8613 10.401 15.218ZM27.074 9.56686L26.8705 10.8278C26.4271 10.6048 26.105 10.5139 25.7601 10.5139C24.8319 10.5139 24.1813 11.4107 24.1813 12.6895C24.1813 13.5711 24.6187 14.1044 25.3413 14.1044C25.6474 14.1044 25.9853 14.0092 26.3972 13.8062L26.179 15.1298C25.7207 15.2546 25.4253 15.3001 25.0802 15.3001C23.7421 15.3001 22.9082 14.3379 22.9082 12.7926C22.9082 10.7163 24.0601 9.26514 25.7077 9.26514C26.2504 9.2652 26.8917 9.49535 27.074 9.56686ZM29.0797 13.114C28.9495 13.099 28.8921 13.0949 28.8024 13.0949C28.0981 13.0949 27.7414 13.3365 27.7414 13.8136C27.7414 14.1073 27.9155 14.295 28.1869 14.295C28.6932 14.2949 29.0584 13.8128 29.0797 13.114ZM29.9841 15.218H28.9539L28.9776 14.7292C28.6634 15.1154 28.244 15.3001 27.675 15.3001C27.0012 15.3001 26.5393 14.7739 26.5393 14.0097C26.5393 12.8595 27.3427 12.1891 28.7216 12.1891C28.8628 12.1891 29.0432 12.2018 29.2281 12.2255C29.2665 12.0698 29.2768 12.0031 29.2768 11.9188C29.2768 11.6057 29.0604 11.4896 28.4798 11.4896C27.8717 11.4827 27.3701 11.6344 27.1638 11.7014C27.1768 11.6233 27.3363 10.6402 27.3363 10.6402C27.9556 10.4579 28.3643 10.3895 28.8236 10.3895C29.8915 10.3895 30.4568 10.869 30.4555 11.774C30.4576 12.0177 30.4175 12.317 30.3548 12.7101C30.2475 13.3942 30.0152 14.8613 29.9841 15.218ZM15.9257 15.1465C15.5852 15.2536 15.32 15.3001 15.0327 15.3001C14.3972 15.3001 14.0504 14.9349 14.0504 14.2624C14.0416 14.0532 14.1422 13.5046 14.2211 13.0035C14.2925 12.5617 14.7598 9.77997 14.7598 9.77997H15.9952L15.851 10.4952H16.4852L16.3164 11.6298H15.6801C15.5366 12.5287 15.3316 13.6468 15.3295 13.7955C15.3295 14.0398 15.4597 14.1452 15.755 14.1452C15.8967 14.1452 16.0062 14.1314 16.0902 14.1011L15.9257 15.1465ZM19.7142 15.1087C19.29 15.2384 18.8799 15.3009 18.4462 15.3001C17.0629 15.2988 16.342 14.5764 16.342 13.193C16.342 11.5778 17.2592 10.3895 18.5043 10.3895C19.5231 10.3895 20.1737 11.0547 20.1737 12.099C20.1737 12.4456 20.1291 12.7836 20.0217 13.2607H17.5611C17.4778 13.9459 17.9163 14.2317 18.6351 14.2317C19.0772 14.2317 19.4763 14.1402 19.9197 13.9334L19.7142 15.1087ZM19.0195 12.3077C19.0269 12.2096 19.1509 11.4646 18.4446 11.4646C18.0512 11.4646 17.7697 11.7655 17.6552 12.3077H19.0195ZM11.1467 11.9884C11.1467 12.5859 11.4364 12.9974 12.0935 13.3072C12.5969 13.5438 12.6747 13.6142 12.6747 13.8285C12.6747 14.123 12.4525 14.2558 11.961 14.2558C11.59 14.2558 11.245 14.1979 10.8468 14.0695C10.8468 14.0695 10.6839 15.1106 10.6765 15.1603C10.9585 15.222 11.2107 15.2784 11.9698 15.3001C13.2816 15.3001 13.8872 14.8007 13.8872 13.7216C13.8872 13.0722 13.6339 12.6914 13.0109 12.4052C12.49 12.1654 12.4296 12.1128 12.4296 11.8919C12.4296 11.6368 12.6367 11.5055 13.0383 11.5055C13.282 11.5055 13.6153 11.5323 13.9316 11.5772L14.1083 10.4814C13.7867 10.4304 13.2987 10.3895 13.0146 10.3895C11.6238 10.3895 11.1427 11.1153 11.1467 11.9884ZM36.5633 15.218H35.3871L35.4456 14.7783C35.1045 15.143 34.7551 15.3001 34.2995 15.3001C33.3958 15.3001 32.7986 14.5211 32.7986 13.3401C32.7986 11.769 33.7249 10.4447 34.8213 10.4447C35.3034 10.4447 35.6683 10.6416 36.008 11.0887L36.2839 9.41051H37.5099L36.5633 15.218ZM34.7296 14.1267C35.3085 14.1267 35.7151 13.4707 35.7151 12.5349C35.7151 11.935 35.4836 11.6094 35.0565 11.6094C34.4928 11.6094 34.0923 12.2674 34.0923 13.1962C34.0923 13.814 34.3065 14.1267 34.7296 14.1267ZM31.1037 10.4952C30.948 11.9571 30.6717 13.4378 30.4555 14.9007L30.3986 15.2181H31.6419C32.0866 12.33 32.1942 11.766 32.8914 11.8367C33.0025 11.2456 33.2092 10.7279 33.3634 10.4666C32.8427 10.3582 32.5519 10.6524 32.1713 11.2113C32.2013 10.9697 32.2563 10.735 32.2454 10.4953L31.1037 10.4952ZM20.8708 10.4952C20.7147 11.9571 20.4383 13.4378 20.2222 14.9007L20.1656 15.2181H21.4095C21.8536 12.33 21.961 11.766 22.6578 11.8367C22.7694 11.2456 22.9762 10.7279 23.1298 10.4666C22.6096 10.3582 22.3186 10.6524 21.9383 11.2113C21.9683 10.9697 22.0227 10.735 22.0124 10.4953L20.8708 10.4952ZM37.1094 14.8482C37.1092 14.6442 37.2744 14.4786 37.4784 14.4783H37.4791C37.6831 14.4781 37.8487 14.6433 37.8489 14.8472V14.8482C37.8488 15.0524 37.6833 15.2179 37.4791 15.218C37.2749 15.2179 37.1095 15.0524 37.1094 14.8482ZM37.4791 15.1292C37.6342 15.1293 37.7599 15.0036 37.76 14.8486V14.8484C37.7602 14.6932 37.6345 14.5673 37.4794 14.5672H37.4791C37.3238 14.5672 37.198 14.6931 37.1979 14.8484C37.1981 15.0035 37.3239 15.1292 37.4791 15.1292ZM37.4291 15.0099H37.3533V14.6857H37.4907C37.5191 14.6857 37.5487 14.6863 37.5733 14.7019C37.5999 14.72 37.6151 14.7508 37.6151 14.7832C37.6151 14.8198 37.5936 14.8541 37.5584 14.8672L37.6184 15.0098H37.5342L37.4846 14.8817H37.4291L37.4291 15.0099ZM37.4291 14.8262H37.4708C37.4865 14.8262 37.5035 14.8274 37.5173 14.8198C37.5298 14.8119 37.5362 14.7968 37.5362 14.7823C37.5356 14.7689 37.5289 14.7566 37.5178 14.749C37.5048 14.7415 37.4833 14.7436 37.4692 14.7436H37.4291L37.4291 14.8262Z" fill="#2F3144"/>
</g>
</svg>
