<svg width="50" height="50" viewBox="0 0 50 50" fill="none" xmlns="http://www.w3.org/2000/svg">
<g clip-path="url(#clip0_402_4543)">
<path d="M3.94376 1.93224C3.02531 2.22228 2.37755 2.78302 1.9715 3.6338L1.72013 4.16554L1.69113 9.45392C1.68146 12.3736 1.69113 14.752 1.72013 14.752C1.73947 14.752 1.9715 14.6263 2.22286 14.4716C2.71593 14.1719 3.48937 13.8819 3.79874 13.8819C3.9921 13.8819 3.9921 13.7852 3.9921 9.24123V4.59093L4.2338 4.3589L4.46583 4.1172H11.8618H19.2578L19.4512 4.3589C19.5479 4.49425 19.9056 5.24836 20.2343 6.03146C20.563 6.81457 20.9304 7.67502 21.0464 7.94572C21.4525 8.8255 20.3503 8.75783 33.6148 8.75783H45.284L45.516 8.99953L45.7577 9.23156V11.5615C45.7577 13.7562 45.7674 13.8819 45.9317 13.8819C46.2218 13.8819 47.1499 14.2299 47.5753 14.5006C47.7977 14.636 48.0007 14.752 48.0297 14.752C48.0684 14.752 48.078 13.4178 48.0587 11.7742L48.0297 8.80617L47.7783 8.27443C47.4593 7.59767 46.9179 7.05627 46.2411 6.73722L45.7094 6.48586L34.2915 6.45685L22.8736 6.43752L22.3129 5.07433C21.4525 2.97638 20.8144 2.19328 19.7509 1.89357C19.2095 1.73888 4.42716 1.77755 3.94376 1.93224Z" fill="#32395F"/>
<path d="M6.31152 12.625V13.7852H24.874H43.4365V12.625V11.4649H24.874H6.31152V12.625Z" fill="#32395F"/>
<path d="M3.99167 15.0807C3.21824 15.2451 2.62849 15.5641 2.06775 16.1249C1.49734 16.6856 1.15896 17.3624 1.00427 18.1745C0.859253 18.9866 0.859253 44.162 1.00427 44.9741C1.15896 45.7959 1.51667 46.4823 2.08708 47.043C2.66716 47.6134 3.31492 47.9518 4.12703 48.0968C4.93914 48.2419 44.8098 48.2419 45.6219 48.0968C47.2075 47.8068 48.4547 46.5596 48.7447 44.9741C48.8897 44.162 48.8897 18.9866 48.7447 18.1745C48.4547 16.5889 47.2752 15.3901 45.68 15.0517C44.9259 14.897 4.72644 14.9164 3.99167 15.0807ZM27.3882 26.5469V29.0606H29.9018H32.4155V31.5743V34.0879H29.9018H27.3882V36.6016V39.1153H24.8745H22.3608V36.6016V34.0879H19.8471H17.3335V31.5743V29.0606H19.8471H22.3608V26.5469V24.0333H24.8745H27.3882V26.5469Z" fill="#32395F"/>
</g>
<defs>
<clipPath id="clip0_402_4543">
<rect width="49.5" height="49.5" fill="white" transform="translate(0.125 0.25)"/>
</clipPath>
</defs>
</svg>
