<svg width="14" height="14" viewBox="0 0 14 14" fill="none" xmlns="http://www.w3.org/2000/svg">
<g clip-path="url(#clip0_614_650)">
<path fill-rule="evenodd" clip-rule="evenodd" d="M0.599806 5.0798C0.599806 4.74033 0.734663 4.41475 0.974709 4.17471C1.21476 3.93466 1.54033 3.7998 1.87981 3.7998H12.1198C12.4593 3.7998 12.7849 3.93466 13.0249 4.17471C13.2649 4.41475 13.3998 4.74033 13.3998 5.0798V12.1198C13.3998 12.4593 13.2649 12.7849 13.0249 13.0249C12.7849 13.2649 12.4593 13.3998 12.1198 13.3998H1.87981C1.54033 13.3998 1.21476 13.2649 0.974709 13.0249C0.734663 12.7849 0.599806 12.4593 0.599806 12.1198V5.0798ZM12.1198 5.0798H1.87981V12.1198H12.1198V5.0798Z" fill="white"/>
<path fill-rule="evenodd" clip-rule="evenodd" d="M4.27986 6.67946C4.27986 6.55215 4.33043 6.43006 4.42045 6.34004C4.51046 6.25003 4.63255 6.19946 4.75986 6.19946H9.23986C9.36716 6.19946 9.48925 6.25003 9.57927 6.34004C9.66929 6.43006 9.71986 6.55215 9.71986 6.67946C9.71986 6.80676 9.66929 6.92885 9.57927 7.01887C9.48925 7.10888 9.36716 7.15946 9.23986 7.15946H4.75986C4.63255 7.15946 4.51046 7.10888 4.42045 7.01887C4.33043 6.92885 4.27986 6.80676 4.27986 6.67946ZM3.63986 8.59946C3.63986 8.47215 3.69043 8.35006 3.78045 8.26005C3.87046 8.17003 3.99255 8.11946 4.11986 8.11946H9.87986C10.0072 8.11946 10.1293 8.17003 10.2193 8.26005C10.3093 8.35006 10.3599 8.47215 10.3599 8.59946C10.3599 8.72676 10.3093 8.84885 10.2193 8.93887C10.1293 9.02888 10.0072 9.07946 9.87986 9.07946H4.11986C3.99255 9.07946 3.87046 9.02888 3.78045 8.93887C3.69043 8.84885 3.63986 8.72676 3.63986 8.59946ZM4.27986 10.5195C4.27986 10.3922 4.33043 10.2701 4.42045 10.18C4.51046 10.09 4.63255 10.0395 4.75986 10.0395H9.23986C9.36716 10.0395 9.48925 10.09 9.57927 10.18C9.66929 10.2701 9.71986 10.3922 9.71986 10.5195C9.71986 10.6468 9.66929 10.7689 9.57927 10.8589C9.48925 10.9489 9.36716 10.9995 9.23986 10.9995H4.75986C4.63255 10.9995 4.51046 10.9489 4.42045 10.8589C4.33043 10.7689 4.27986 10.6468 4.27986 10.5195ZM7.90482 2.40938C7.66478 2.16941 7.33927 2.03461 6.99986 2.03461C6.66045 2.03461 6.33493 2.16941 6.0949 2.40938L3.61234 4.89258C3.55287 4.952 3.48229 4.99912 3.40462 5.03127C3.32694 5.06341 3.24369 5.07994 3.15963 5.07991C3.07557 5.07988 2.99233 5.06329 2.91468 5.03109C2.83703 4.9989 2.76648 4.95172 2.70706 4.89226C2.64764 4.83279 2.60051 4.76221 2.56837 4.68453C2.53623 4.60686 2.5197 4.52361 2.51973 4.43955C2.51976 4.35549 2.53634 4.27225 2.56854 4.1946C2.60074 4.11695 2.64791 4.0464 2.70738 3.98698L5.18994 1.50442C5.67001 1.02449 6.32104 0.754883 6.99986 0.754883C7.67868 0.754883 8.32971 1.02449 8.80978 1.50442L11.293 3.98698C11.413 4.10707 11.4804 4.26991 11.4803 4.43968C11.4802 4.60946 11.4127 4.77225 11.2927 4.89226C11.1726 5.01226 11.0097 5.07965 10.84 5.07959C10.6702 5.07953 10.5074 5.01203 10.3874 4.89194L7.90482 2.40938Z" fill="white"/>
</g>
<defs>
<clipPath id="clip0_614_650">
<rect width="12.8" height="12.8" fill="white" transform="translate(0.6 0.599609)"/>
</clipPath>
</defs>
</svg>
