<svg width="39" height="11" viewBox="0 0 39 11" fill="none" xmlns="http://www.w3.org/2000/svg">
<g id="Group">
<path id="Shape" d="M7.01628 0.662092C6.54317 0.336846 5.9258 0.173828 5.16417 0.173828H2.21554C1.98206 0.173828 1.85306 0.290599 1.82856 0.523859L0.630713 8.04294C0.618264 8.11679 0.63674 8.18433 0.685972 8.24573C0.734922 8.30724 0.796491 8.33783 0.870226 8.33783H2.2708C2.51645 8.33783 2.65148 8.22134 2.67626 7.98774L3.00793 5.96067C3.02004 5.86243 3.06324 5.78255 3.13698 5.72104C3.21066 5.65964 3.30281 5.61948 3.41339 5.60106C3.52396 5.58281 3.62823 5.57363 3.72669 5.57363C3.82488 5.57363 3.94153 5.57982 4.07689 5.59205C4.21192 5.60433 4.29799 5.6103 4.33488 5.6103C5.3914 5.6103 6.22068 5.3126 6.82279 4.71657C7.42461 4.12078 7.72586 3.29459 7.72586 2.23785C7.72586 1.51306 7.48916 0.987845 7.01628 0.662092ZM5.49595 2.91978C5.43432 3.34985 5.2748 3.63229 5.01681 3.76748C4.75876 3.90284 4.3902 3.9701 3.91112 3.9701L3.30293 3.98857L3.61629 2.01665C3.64073 1.88162 3.72055 1.81403 3.8558 1.81403H4.20606C4.69725 1.81403 5.05376 1.88484 5.27491 2.02588C5.49595 2.16727 5.56968 2.46537 5.49595 2.91978Z" fill="#2367CC"/>
<path id="Shape_2" d="M38.1331 0.173828H36.7695C36.634 0.173828 36.5542 0.241423 36.5299 0.376558L35.332 8.04294L35.3135 8.07978C35.3135 8.14152 35.3381 8.19959 35.3873 8.25491C35.4362 8.31011 35.4979 8.33777 35.5715 8.33777H36.788C37.021 8.33777 37.1501 8.22128 37.175 7.98768L38.3728 0.450124V0.431817C38.3728 0.259843 38.2927 0.173828 38.1331 0.173828Z" fill="#00B0F0"/>
<path id="Shape_3" d="M21.6587 3.1408C21.6587 3.07951 21.634 3.02104 21.5851 2.96584C21.5358 2.91058 21.4805 2.88281 21.4192 2.88281H20.0002C19.8648 2.88281 19.7542 2.94455 19.6685 3.06707L17.715 5.94212L16.9042 3.17775C16.8425 2.98128 16.7074 2.88281 16.4987 2.88281H15.1164C15.0548 2.88281 14.9995 2.91053 14.9507 2.96584C14.9014 3.02104 14.877 3.07957 14.877 3.1408C14.877 3.16559 14.9968 3.52784 15.2363 4.22813C15.4758 4.92853 15.7338 5.68413 16.0103 6.49511C16.2868 7.30586 16.431 7.7361 16.4434 7.78494C15.4359 9.16107 14.9322 9.89825 14.9322 9.99638C14.9322 10.1562 15.012 10.236 15.1718 10.236H16.5908C16.726 10.236 16.8365 10.1747 16.9226 10.0518L21.622 3.2698C21.6464 3.24535 21.6587 3.20254 21.6587 3.1408Z" fill="#2367CC"/>
<path id="Shape_4" d="M34.8715 2.88296H33.4709C33.2988 2.88296 33.1946 3.08569 33.1578 3.49115C32.838 2.99995 32.2548 2.75391 31.4069 2.75391C30.5223 2.75391 29.7696 3.08569 29.1494 3.74914C28.5288 4.41264 28.2188 5.19292 28.2188 6.08968C28.2188 6.8147 28.4306 7.39207 28.8544 7.82192C29.2783 8.25223 29.8465 8.46695 30.5593 8.46695C30.9155 8.46695 31.2779 8.39311 31.6465 8.2458C32.0151 8.09839 32.3035 7.90191 32.5127 7.65609C32.5127 7.66843 32.5002 7.72363 32.4758 7.82187C32.4511 7.92033 32.439 7.99418 32.439 8.04302C32.439 8.23983 32.5186 8.33785 32.6786 8.33785H33.9503C34.1834 8.33785 34.3187 8.22136 34.3555 7.98776L35.1112 3.17784C35.1233 3.10411 35.1049 3.03662 35.0558 2.97511C35.0066 2.91377 34.9453 2.88296 34.8715 2.88296ZM32.4666 6.5135C32.1533 6.82067 31.7756 6.97417 31.3333 6.97417C30.9768 6.97417 30.6883 6.87604 30.4671 6.67934C30.2459 6.48309 30.1353 6.21276 30.1353 5.86847C30.1353 5.41418 30.2889 5.03001 30.5961 4.71671C30.9029 4.4034 31.2841 4.24675 31.7387 4.24675C32.0824 4.24675 32.3681 4.34814 32.5956 4.55082C32.8227 4.75355 32.9366 5.03317 32.9366 5.38945C32.9366 5.83169 32.7799 6.20651 32.4666 6.5135Z" fill="#00B0F0"/>
<path id="Shape_5" d="M13.9361 2.88296H12.5355C12.3633 2.88296 12.2591 3.08569 12.2222 3.49115C11.8904 2.99995 11.3068 2.75391 10.4714 2.75391C9.5868 2.75391 8.83418 3.08569 8.21382 3.74914C7.5933 4.41264 7.2832 5.19292 7.2832 6.08968C7.2832 6.8147 7.49517 7.39207 7.91905 7.82192C8.34293 8.25223 8.91101 8.46695 9.62369 8.46695C9.96753 8.46695 10.324 8.39311 10.6925 8.2458C11.0611 8.09839 11.356 7.90191 11.5771 7.65609C11.5279 7.8035 11.5034 7.93256 11.5034 8.04302C11.5034 8.23983 11.5832 8.33785 11.743 8.33785H13.0146C13.2478 8.33785 13.3831 8.22136 13.42 7.98776L14.1756 3.17784C14.1877 3.10411 14.1693 3.03662 14.1203 2.97511C14.0711 2.91377 14.0098 2.88296 13.9361 2.88296ZM11.5311 6.52263C11.2178 6.82399 10.8336 6.97417 10.3794 6.97417C10.0228 6.97417 9.7372 6.87604 9.52236 6.67934C9.30723 6.48309 9.19981 6.21276 9.19981 5.86847C9.19981 5.41418 9.35331 5.03001 9.66059 4.71671C9.96753 4.4034 10.3484 4.24675 10.8032 4.24675C11.147 4.24675 11.4327 4.34814 11.6602 4.55082C11.8873 4.75355 12.0011 5.03317 12.0011 5.38945C12.0011 5.84403 11.8444 6.22194 11.5311 6.52263Z" fill="#2367CC"/>
<path id="Shape_6" d="M27.9509 0.662092C27.4778 0.336846 26.8605 0.173828 26.0988 0.173828H23.1686C22.9227 0.173828 22.7875 0.290599 22.7631 0.523859L21.5653 8.04288C21.5528 8.11673 21.5713 8.18427 21.6205 8.24567C21.6693 8.30718 21.7311 8.33777 21.8048 8.33777H23.3159C23.4633 8.33777 23.5615 8.25801 23.6108 8.09826L23.9426 5.96061C23.9547 5.86237 23.9978 5.7825 24.0716 5.72098C24.1453 5.65958 24.2373 5.61942 24.348 5.601C24.4585 5.58275 24.5628 5.57357 24.6613 5.57357C24.7595 5.57357 24.8762 5.57977 25.0114 5.59199C25.1465 5.60427 25.2327 5.61024 25.2693 5.61024C26.326 5.61024 27.1552 5.31254 27.7573 4.71652C28.3593 4.12072 28.6603 3.29454 28.6603 2.2378C28.6604 1.51306 28.4237 0.987845 27.9509 0.662092ZM26.0619 3.69374C25.7916 3.878 25.3861 3.9701 24.8456 3.9701L24.2559 3.98857L24.5692 2.01665C24.5936 1.88162 24.6734 1.81403 24.8087 1.81403H25.1404C25.4106 1.81403 25.6256 1.82631 25.7855 1.85081C25.945 1.8756 26.0988 1.95215 26.2462 2.08114C26.3937 2.21019 26.4674 2.3976 26.4674 2.64331C26.4674 3.15929 26.3321 3.50938 26.0619 3.69374Z" fill="#00B0F0"/>
</g>
</svg>
