<svg width="221" height="40" viewBox="0 0 221 40" fill="none" xmlns="http://www.w3.org/2000/svg">
<path d="M10.9609 21.6367V32.4375C10.9609 34.7708 11.2161 36.2201 11.7266 36.7852C12.4193 37.5872 13.4674 37.9883 14.8711 37.9883H16.293V39H0.40625V37.9883H1.80078C3.36849 37.9883 4.48958 37.4779 5.16406 36.457C5.52865 35.8919 5.71094 34.5521 5.71094 32.4375V8.48438C5.71094 6.15104 5.46484 4.70182 4.97266 4.13672C4.26172 3.33464 3.20443 2.93359 1.80078 2.93359H0.40625V1.92188H13.9961C17.3138 1.92188 19.9297 2.26823 21.8438 2.96094C23.7578 3.63542 25.3711 4.78385 26.6836 6.40625C27.9961 8.02865 28.6523 9.95182 28.6523 12.1758C28.6523 15.2018 27.6497 17.6628 25.6445 19.5586C23.6576 21.4544 20.8411 22.4023 17.1953 22.4023C16.3021 22.4023 15.3359 22.3385 14.2969 22.2109C13.2578 22.0833 12.1458 21.8919 10.9609 21.6367ZM10.9609 20.0781C11.9271 20.2604 12.7839 20.3971 13.5312 20.4883C14.2786 20.5794 14.9167 20.625 15.4453 20.625C17.3411 20.625 18.9727 19.8958 20.3398 18.4375C21.7253 16.9609 22.418 15.056 22.418 12.7227C22.418 11.1185 22.0898 9.63281 21.4336 8.26562C20.7773 6.88021 19.8477 5.85026 18.6445 5.17578C17.4414 4.48307 16.0742 4.13672 14.543 4.13672C13.6133 4.13672 12.4193 4.3099 10.9609 4.65625V20.0781ZM41.0117 0.117188V33.3398C41.0117 34.9076 41.1211 35.9466 41.3398 36.457C41.5768 36.9674 41.9323 37.3594 42.4062 37.6328C42.8802 37.888 43.7643 38.0156 45.0586 38.0156V39H32.7812V38.0156C33.9297 38.0156 34.7135 37.8971 35.1328 37.6602C35.5521 37.4232 35.8802 37.0312 36.1172 36.4844C36.3542 35.9375 36.4727 34.8893 36.4727 33.3398V10.5898C36.4727 7.76432 36.4089 6.03255 36.2812 5.39453C36.1536 4.73828 35.944 4.29167 35.6523 4.05469C35.3789 3.81771 35.0234 3.69922 34.5859 3.69922C34.112 3.69922 33.5104 3.84505 32.7812 4.13672L32.3164 3.17969L39.7812 0.117188H41.0117ZM62.1758 35.3906C59.6055 37.3776 57.9922 38.526 57.3359 38.8359C56.3516 39.2917 55.3034 39.5195 54.1914 39.5195C52.4596 39.5195 51.0286 38.9271 49.8984 37.7422C48.7865 36.5573 48.2305 34.9987 48.2305 33.0664C48.2305 31.8451 48.5039 30.7878 49.0508 29.8945C49.7982 28.6549 51.0924 27.4883 52.9336 26.3945C54.793 25.3008 57.8737 23.9701 62.1758 22.4023V21.418C62.1758 18.9206 61.7747 17.207 60.9727 16.2773C60.1888 15.3477 59.0404 14.8828 57.5273 14.8828C56.3789 14.8828 55.4674 15.1927 54.793 15.8125C54.1003 16.4323 53.7539 17.1432 53.7539 17.9453L53.8086 19.5312C53.8086 20.3698 53.5898 21.0169 53.1523 21.4727C52.7331 21.9284 52.1771 22.1562 51.4844 22.1562C50.8099 22.1562 50.2539 21.9193 49.8164 21.4453C49.3971 20.9714 49.1875 20.3242 49.1875 19.5039C49.1875 17.9362 49.9896 16.4961 51.5938 15.1836C53.1979 13.8711 55.4492 13.2148 58.3477 13.2148C60.5716 13.2148 62.3945 13.5885 63.8164 14.3359C64.8919 14.901 65.6849 15.7852 66.1953 16.9883C66.5234 17.7721 66.6875 19.3763 66.6875 21.8008V30.3047C66.6875 32.6927 66.7331 34.1602 66.8242 34.707C66.9154 35.2357 67.0612 35.5911 67.2617 35.7734C67.4805 35.9557 67.7266 36.0469 68 36.0469C68.2917 36.0469 68.5469 35.9831 68.7656 35.8555C69.1484 35.6185 69.8867 34.9531 70.9805 33.8594V35.3906C68.9388 38.125 66.9883 39.4922 65.1289 39.4922C64.2357 39.4922 63.5247 39.1823 62.9961 38.5625C62.4674 37.9427 62.194 36.8854 62.1758 35.3906ZM62.1758 33.6133V24.0703C59.4232 25.1641 57.6458 25.9388 56.8438 26.3945C55.4036 27.1966 54.3737 28.0352 53.7539 28.9102C53.1341 29.7852 52.8242 30.7422 52.8242 31.7812C52.8242 33.0938 53.2161 34.1875 54 35.0625C54.7839 35.9193 55.6862 36.3477 56.707 36.3477C58.0924 36.3477 59.9154 35.4362 62.1758 33.6133ZM80.168 18.5195C83.1029 14.9831 85.901 13.2148 88.5625 13.2148C89.9297 13.2148 91.1055 13.5612 92.0898 14.2539C93.0742 14.9284 93.8581 16.0495 94.4414 17.6172C94.8424 18.7109 95.043 20.388 95.043 22.6484V33.3398C95.043 34.9258 95.1706 36.0013 95.4258 36.5664C95.6263 37.0221 95.9453 37.3776 96.3828 37.6328C96.8385 37.888 97.668 38.0156 98.8711 38.0156V39H86.4844V38.0156H87.0039C88.1706 38.0156 88.9818 37.8424 89.4375 37.4961C89.9115 37.1315 90.2396 36.6029 90.4219 35.9102C90.4948 35.6367 90.5312 34.7799 90.5312 33.3398V23.0859C90.5312 20.8073 90.2305 19.1576 89.6289 18.1367C89.0456 17.0977 88.0521 16.5781 86.6484 16.5781C84.4792 16.5781 82.319 17.763 80.168 20.1328V33.3398C80.168 35.0352 80.2682 36.0833 80.4688 36.4844C80.724 37.013 81.0703 37.4049 81.5078 37.6602C81.9635 37.8971 82.875 38.0156 84.2422 38.0156V39H71.8555V38.0156H72.4023C73.6784 38.0156 74.5352 37.6966 74.9727 37.0586C75.4284 36.4023 75.6562 35.1628 75.6562 33.3398V24.043C75.6562 21.0352 75.5833 19.2031 75.4375 18.5469C75.3099 17.8906 75.1003 17.444 74.8086 17.207C74.5352 16.9701 74.1615 16.8516 73.6875 16.8516C73.1771 16.8516 72.5664 16.9883 71.8555 17.2617L71.4453 16.2773L78.9922 13.2148H80.168V18.5195ZM107.238 0.117188C108.004 0.117188 108.651 0.390625 109.18 0.9375C109.727 1.46615 110 2.11328 110 2.87891C110 3.64453 109.727 4.30078 109.18 4.84766C108.651 5.39453 108.004 5.66797 107.238 5.66797C106.473 5.66797 105.816 5.39453 105.27 4.84766C104.723 4.30078 104.449 3.64453 104.449 2.87891C104.449 2.11328 104.714 1.46615 105.242 0.9375C105.789 0.390625 106.454 0.117188 107.238 0.117188ZM109.508 13.2148V33.3398C109.508 34.9076 109.617 35.9557 109.836 36.4844C110.073 36.9948 110.41 37.3776 110.848 37.6328C111.303 37.888 112.124 38.0156 113.309 38.0156V39H101.141V38.0156C102.362 38.0156 103.182 37.8971 103.602 37.6602C104.021 37.4232 104.349 37.0312 104.586 36.4844C104.841 35.9375 104.969 34.8893 104.969 33.3398V23.6875C104.969 20.9714 104.887 19.2122 104.723 18.4102C104.595 17.8268 104.395 17.4258 104.121 17.207C103.848 16.9701 103.474 16.8516 103 16.8516C102.49 16.8516 101.87 16.9883 101.141 17.2617L100.758 16.2773L108.305 13.2148H109.508Z" fill="white"/>
<path d="M146.805 28.7461L147.707 28.9375L144.535 39H115.824V37.9883H117.219C118.786 37.9883 119.908 37.4779 120.582 36.457C120.965 35.8737 121.156 34.5247 121.156 32.4102V8.48438C121.156 6.16927 120.901 4.72005 120.391 4.13672C119.68 3.33464 118.622 2.93359 117.219 2.93359H115.824V1.92188H132.613V2.93359C130.645 2.91536 129.259 3.09766 128.457 3.48047C127.673 3.86328 127.135 4.34635 126.844 4.92969C126.552 5.51302 126.406 6.90755 126.406 9.11328V32.4102C126.406 33.9232 126.552 34.9622 126.844 35.5273C127.062 35.9102 127.4 36.1927 127.855 36.375C128.311 36.5573 129.733 36.6484 132.121 36.6484H134.828C137.672 36.6484 139.668 36.4388 140.816 36.0195C141.965 35.6003 143.013 34.862 143.961 33.8047C144.909 32.7292 145.857 31.043 146.805 28.7461ZM157.059 0.117188C157.824 0.117188 158.471 0.390625 159 0.9375C159.547 1.46615 159.82 2.11328 159.82 2.87891C159.82 3.64453 159.547 4.30078 159 4.84766C158.471 5.39453 157.824 5.66797 157.059 5.66797C156.293 5.66797 155.637 5.39453 155.09 4.84766C154.543 4.30078 154.27 3.64453 154.27 2.87891C154.27 2.11328 154.534 1.46615 155.062 0.9375C155.609 0.390625 156.275 0.117188 157.059 0.117188ZM159.328 13.2148V33.3398C159.328 34.9076 159.438 35.9557 159.656 36.4844C159.893 36.9948 160.23 37.3776 160.668 37.6328C161.124 37.888 161.944 38.0156 163.129 38.0156V39H150.961V38.0156C152.182 38.0156 153.003 37.8971 153.422 37.6602C153.841 37.4232 154.169 37.0312 154.406 36.4844C154.661 35.9375 154.789 34.8893 154.789 33.3398V23.6875C154.789 20.9714 154.707 19.2122 154.543 18.4102C154.415 17.8268 154.215 17.4258 153.941 17.207C153.668 16.9701 153.294 16.8516 152.82 16.8516C152.31 16.8516 151.69 16.9883 150.961 17.2617L150.578 16.2773L158.125 13.2148H159.328ZM173.574 18.5195C176.509 14.9831 179.307 13.2148 181.969 13.2148C183.336 13.2148 184.512 13.5612 185.496 14.2539C186.48 14.9284 187.264 16.0495 187.848 17.6172C188.249 18.7109 188.449 20.388 188.449 22.6484V33.3398C188.449 34.9258 188.577 36.0013 188.832 36.5664C189.033 37.0221 189.352 37.3776 189.789 37.6328C190.245 37.888 191.074 38.0156 192.277 38.0156V39H179.891V38.0156H180.41C181.577 38.0156 182.388 37.8424 182.844 37.4961C183.318 37.1315 183.646 36.6029 183.828 35.9102C183.901 35.6367 183.938 34.7799 183.938 33.3398V23.0859C183.938 20.8073 183.637 19.1576 183.035 18.1367C182.452 17.0977 181.458 16.5781 180.055 16.5781C177.885 16.5781 175.725 17.763 173.574 20.1328V33.3398C173.574 35.0352 173.674 36.0833 173.875 36.4844C174.13 37.013 174.477 37.4049 174.914 37.6602C175.37 37.8971 176.281 38.0156 177.648 38.0156V39H165.262V38.0156H165.809C167.085 38.0156 167.941 37.6966 168.379 37.0586C168.835 36.4023 169.062 35.1628 169.062 33.3398V24.043C169.062 21.0352 168.99 19.2031 168.844 18.5469C168.716 17.8906 168.507 17.444 168.215 17.207C167.941 16.9701 167.568 16.8516 167.094 16.8516C166.583 16.8516 165.973 16.9883 165.262 17.2617L164.852 16.2773L172.398 13.2148H173.574V18.5195ZM201.684 0.117188V25.0273L208.055 19.2305C209.404 17.9909 210.188 17.207 210.406 16.8789C210.552 16.6602 210.625 16.4414 210.625 16.2227C210.625 15.8581 210.47 15.5482 210.16 15.293C209.868 15.0195 209.376 14.8646 208.684 14.8281V13.9531H219.566V14.8281C218.072 14.8646 216.823 15.0924 215.82 15.5117C214.836 15.931 213.751 16.6784 212.566 17.7539L206.141 23.6875L212.566 31.8086C214.353 34.0508 215.556 35.4727 216.176 36.0742C217.051 36.931 217.816 37.487 218.473 37.7422C218.928 37.9245 219.721 38.0156 220.852 38.0156V39H208.684V38.0156C209.376 37.9974 209.841 37.8971 210.078 37.7148C210.333 37.5143 210.461 37.2409 210.461 36.8945C210.461 36.4753 210.096 35.8008 209.367 34.8711L201.684 25.0547V33.3672C201.684 34.9896 201.793 36.056 202.012 36.5664C202.249 37.0768 202.577 37.4414 202.996 37.6602C203.415 37.8789 204.327 37.9974 205.73 38.0156V39H192.988V38.0156C194.264 38.0156 195.221 37.8607 195.859 37.5508C196.242 37.3503 196.534 37.0404 196.734 36.6211C197.008 36.0195 197.145 34.9805 197.145 33.5039V10.6992C197.145 7.80078 197.081 6.03255 196.953 5.39453C196.826 4.73828 196.616 4.29167 196.324 4.05469C196.033 3.79948 195.65 3.67188 195.176 3.67188C194.793 3.67188 194.219 3.82682 193.453 4.13672L192.988 3.17969L200.426 0.117188H201.684Z" fill="#FF0000"/>
</svg>
