<svg width="221" height="81" viewBox="0 0 221 81" fill="none" xmlns="http://www.w3.org/2000/svg">
<path d="M19.7396 31.7532V41.8595C19.7396 44.0428 19.9784 45.3988 20.456 45.9276C21.1041 46.6781 22.0849 47.0533 23.3983 47.0533H24.7287V48H9.86356V47.0533H11.1684C12.6353 47.0533 13.6843 46.5757 14.3154 45.6205C14.6566 45.0918 14.8272 43.8381 14.8272 41.8595V19.4466C14.8272 17.2633 14.5969 15.9072 14.1363 15.3785C13.4711 14.6279 12.4818 14.2527 11.1684 14.2527H9.86356V13.306H22.5796C25.6839 13.306 28.1316 13.6301 29.9226 14.2783C31.7136 14.9094 33.2231 15.984 34.4512 17.5021C35.6794 19.0201 36.2934 20.8196 36.2934 22.9006C36.2934 25.7321 35.3553 28.0348 33.479 29.8087C31.6198 31.5826 28.9845 32.4696 25.5731 32.4696C24.7373 32.4696 23.8333 32.4099 22.861 32.2905C21.8888 32.1711 20.8483 31.992 19.7396 31.7532ZM19.7396 30.2948C20.6436 30.4654 21.4453 30.5933 22.1446 30.6786C22.8439 30.7639 23.4409 30.8065 23.9356 30.8065C25.7095 30.8065 27.2361 30.1242 28.5154 28.7597C29.8117 27.3781 30.4599 25.5956 30.4599 23.4123C30.4599 21.9113 30.1529 20.5211 29.5388 19.2419C28.9248 17.9455 28.0549 16.9818 26.9291 16.3507C25.8033 15.7025 24.5241 15.3785 23.0913 15.3785C22.2214 15.3785 21.1041 15.5405 19.7396 15.8646V30.2948ZM47.3341 11.6174V42.7038C47.3341 44.1707 47.4364 45.1429 47.6411 45.6205C47.8628 46.0981 48.1954 46.4649 48.6389 46.7207C49.0824 46.9595 49.9097 47.0789 51.1207 47.0789V48H39.6328V47.0789C40.7074 47.0789 41.4409 46.9681 41.8332 46.7463C42.2255 46.5246 42.5325 46.1578 42.7543 45.6461C42.976 45.1344 43.0869 44.1536 43.0869 42.7038V21.4166C43.0869 18.7728 43.0272 17.1524 42.9078 16.5554C42.7884 15.9413 42.5922 15.5234 42.3193 15.3017C42.0635 15.08 41.7308 14.9691 41.3215 14.9691C40.878 14.9691 40.3151 15.1055 39.6328 15.3785L39.1979 14.483L46.1827 11.6174H47.3341ZM66.6133 44.6227C64.2082 46.4819 62.6987 47.5565 62.0846 47.8465C61.1636 48.2729 60.1828 48.4861 59.1423 48.4861C57.5219 48.4861 56.1829 47.9318 55.1254 46.8231C54.0849 45.7144 53.5647 44.256 53.5647 42.4479C53.5647 41.3051 53.8205 40.3158 54.3322 39.48C55.0316 38.3201 56.2426 37.2285 57.9654 36.2051C59.7052 35.1817 62.5878 33.9365 66.6133 32.4696V31.5485C66.6133 29.2117 66.238 27.6083 65.4875 26.7384C64.7541 25.8685 63.6795 25.4336 62.2637 25.4336C61.1891 25.4336 60.3363 25.7235 59.7052 26.3035C59.057 26.8834 58.7329 27.5486 58.7329 28.2991L58.7841 29.7831C58.7841 30.5677 58.5794 31.1733 58.1701 31.5997C57.7777 32.0261 57.2575 32.2393 56.6093 32.2393C55.9782 32.2393 55.458 32.0176 55.0486 31.5741C54.6563 31.1306 54.4602 30.5251 54.4602 29.7575C54.4602 28.2906 55.2107 26.9431 56.7117 25.715C58.2127 24.4869 60.3192 23.8729 63.0313 23.8729C65.1123 23.8729 66.818 24.2225 68.1484 24.9219C69.1548 25.4506 69.8967 26.2779 70.3743 27.4037C70.6814 28.1371 70.8349 29.6381 70.8349 31.9067V39.8638C70.8349 42.0983 70.8775 43.4714 70.9628 43.9831C71.0481 44.4777 71.1846 44.8103 71.3722 44.9809C71.5769 45.1515 71.8071 45.2368 72.063 45.2368C72.3359 45.2368 72.5747 45.1771 72.7794 45.0577C73.1376 44.8359 73.8284 44.2133 74.8518 43.1899V44.6227C72.9414 47.1813 71.1163 48.4605 69.3765 48.4605C68.5407 48.4605 67.8755 48.1706 67.3808 47.5906C66.8862 47.0107 66.6303 46.0214 66.6133 44.6227ZM66.6133 42.9597V34.0303C64.0377 35.0537 62.3746 35.7786 61.6241 36.2051C60.2766 36.9556 59.3129 37.7402 58.7329 38.5589C58.153 39.3777 57.863 40.2732 57.863 41.2454C57.863 42.4735 58.2298 43.4969 58.9632 44.3157C59.6967 45.1174 60.541 45.5182 61.4962 45.5182C62.7925 45.5182 64.4982 44.6654 66.6133 42.9597ZM82.9246 28.8364C85.6707 25.5274 88.289 23.8729 90.7793 23.8729C92.0586 23.8729 93.1588 24.1969 94.0798 24.8451C95.0009 25.4762 95.7344 26.5252 96.2802 27.9921C96.6555 29.0155 96.8431 30.5848 96.8431 32.6999V42.7038C96.8431 44.1878 96.9625 45.1941 97.2013 45.7229C97.3889 46.1493 97.6874 46.4819 98.0968 46.7207C98.5232 46.9595 99.2993 47.0789 100.425 47.0789V48H88.8348V47.0789H89.3209C90.4126 47.0789 91.1716 46.9169 91.598 46.5928C92.0415 46.2517 92.3486 45.757 92.5191 45.1088C92.5874 44.853 92.6215 44.0513 92.6215 42.7038V33.1092C92.6215 30.9771 92.34 29.4334 91.7771 28.4782C91.2313 27.506 90.3017 27.0199 88.9883 27.0199C86.9585 27.0199 84.9373 28.1286 82.9246 30.346V42.7038C82.9246 44.2901 83.0184 45.2709 83.206 45.6461C83.4448 46.1408 83.7689 46.5075 84.1782 46.7463C84.6047 46.9681 85.4575 47.0789 86.7368 47.0789V48H75.1466V47.0789H75.6583C76.8523 47.0789 77.6539 46.7804 78.0633 46.1834C78.4897 45.5694 78.7029 44.4095 78.7029 42.7038V34.0047C78.7029 31.1903 78.6347 29.4761 78.4983 28.862C78.3789 28.248 78.1827 27.8301 77.9098 27.6083C77.6539 27.3866 77.3043 27.2757 76.8608 27.2757C76.3832 27.2757 75.8118 27.4037 75.1466 27.6595L74.7628 26.7384L81.8244 23.8729H82.9246V28.8364ZM107.73 11.6174C108.447 11.6174 109.052 11.8732 109.547 12.385C110.059 12.8796 110.314 13.4851 110.314 14.2015C110.314 14.9179 110.059 15.532 109.547 16.0437C109.052 16.5554 108.447 16.8112 107.73 16.8112C107.014 16.8112 106.4 16.5554 105.888 16.0437C105.376 15.532 105.121 14.9179 105.121 14.2015C105.121 13.4851 105.368 12.8796 105.862 12.385C106.374 11.8732 106.997 11.6174 107.73 11.6174ZM109.854 23.8729V42.7038C109.854 44.1707 109.956 45.1515 110.161 45.6461C110.383 46.1237 110.698 46.4819 111.108 46.7207C111.534 46.9595 112.302 47.0789 113.41 47.0789V48H102.025V47.0789C103.167 47.0789 103.935 46.9681 104.327 46.7463C104.72 46.5246 105.027 46.1578 105.248 45.6461C105.487 45.1344 105.607 44.1536 105.607 42.7038V33.6721C105.607 31.1306 105.53 29.4846 105.376 28.7341C105.257 28.1883 105.069 27.813 104.813 27.6083C104.558 27.3866 104.208 27.2757 103.764 27.2757C103.287 27.2757 102.707 27.4037 102.025 27.6595L101.666 26.7384L108.728 23.8729H109.854Z" fill="white"/>
<path d="M144.228 38.4054L145.073 38.5845L142.105 48H115.24V47.0533H116.545C118.012 47.0533 119.061 46.5757 119.692 45.6205C120.05 45.0747 120.229 43.8125 120.229 41.8339V19.4466C120.229 17.2803 119.99 15.9243 119.513 15.3785C118.848 14.6279 117.858 14.2527 116.545 14.2527H115.24V13.306H130.95V14.2527C129.107 14.2356 127.811 14.4062 127.061 14.7644C126.327 15.1226 125.824 15.5746 125.551 16.1204C125.278 16.6663 125.142 17.9711 125.142 20.035V41.8339C125.142 43.2496 125.278 44.2219 125.551 44.7506C125.756 45.1088 126.071 45.3732 126.498 45.5438C126.924 45.7144 128.255 45.7996 130.489 45.7996H133.022C135.683 45.7996 137.551 45.6035 138.625 45.2112C139.7 44.8189 140.681 44.1281 141.568 43.1388C142.455 42.1324 143.342 40.5546 144.228 38.4054ZM153.299 11.6174C154.015 11.6174 154.621 11.8732 155.116 12.385C155.627 12.8796 155.883 13.4851 155.883 14.2015C155.883 14.9179 155.627 15.532 155.116 16.0437C154.621 16.5554 154.015 16.8112 153.299 16.8112C152.583 16.8112 151.969 16.5554 151.457 16.0437C150.945 15.532 150.689 14.9179 150.689 14.2015C150.689 13.4851 150.937 12.8796 151.431 12.385C151.943 11.8732 152.566 11.6174 153.299 11.6174ZM155.423 23.8729V42.7038C155.423 44.1707 155.525 45.1515 155.73 45.6461C155.951 46.1237 156.267 46.4819 156.676 46.7207C157.103 46.9595 157.87 47.0789 158.979 47.0789V48H147.593V47.0789C148.736 47.0789 149.504 46.9681 149.896 46.7463C150.289 46.5246 150.596 46.1578 150.817 45.6461C151.056 45.1344 151.175 44.1536 151.175 42.7038V33.6721C151.175 31.1306 151.099 29.4846 150.945 28.7341C150.826 28.1883 150.638 27.813 150.382 27.6083C150.126 27.3866 149.777 27.2757 149.333 27.2757C148.856 27.2757 148.276 27.4037 147.593 27.6595L147.235 26.7384L154.297 23.8729H155.423ZM168.229 28.8364C170.975 25.5274 173.593 23.8729 176.083 23.8729C177.363 23.8729 178.463 24.1969 179.384 24.8451C180.305 25.4762 181.039 26.5252 181.584 27.9921C181.96 29.0155 182.147 30.5848 182.147 32.6999V42.7038C182.147 44.1878 182.267 45.1941 182.505 45.7229C182.693 46.1493 182.992 46.4819 183.401 46.7207C183.827 46.9595 184.603 47.0789 185.729 47.0789V48H174.139V47.0789H174.625C175.717 47.0789 176.476 46.9169 176.902 46.5928C177.346 46.2517 177.653 45.757 177.823 45.1088C177.892 44.853 177.926 44.0513 177.926 42.7038V33.1092C177.926 30.9771 177.644 29.4334 177.081 28.4782C176.535 27.506 175.606 27.0199 174.292 27.0199C172.263 27.0199 170.241 28.1286 168.229 30.346V42.7038C168.229 44.2901 168.323 45.2709 168.51 45.6461C168.749 46.1408 169.073 46.5075 169.482 46.7463C169.909 46.9681 170.762 47.0789 172.041 47.0789V48H160.451V47.0789H160.962C162.156 47.0789 162.958 46.7804 163.367 46.1834C163.794 45.5694 164.007 44.4095 164.007 42.7038V34.0047C164.007 31.1903 163.939 29.4761 163.802 28.862C163.683 28.248 163.487 27.8301 163.214 27.6083C162.958 27.3866 162.608 27.2757 162.165 27.2757C161.687 27.2757 161.116 27.4037 160.451 27.6595L160.067 26.7384L167.129 23.8729H168.229V28.8364ZM194.007 11.6174V34.9258L199.968 29.5017C201.23 28.3418 201.964 27.6083 202.168 27.3013C202.305 27.0966 202.373 26.8919 202.373 26.6873C202.373 26.3461 202.228 26.0561 201.938 25.8174C201.665 25.5615 201.205 25.4165 200.557 25.3824V24.5637H210.74V25.3824C209.341 25.4165 208.173 25.6297 207.234 26.022C206.313 26.4143 205.298 27.1137 204.19 28.12L198.177 33.6721L204.19 41.271C205.861 43.369 206.987 44.6995 207.567 45.2623C208.386 46.064 209.102 46.5843 209.716 46.8231C210.143 46.9936 210.885 47.0789 211.942 47.0789V48H200.557V47.0789C201.205 47.0619 201.64 46.9681 201.861 46.7975C202.1 46.6099 202.22 46.354 202.22 46.0299C202.22 45.6376 201.878 45.0065 201.196 44.1366L194.007 34.9514V42.7294C194.007 44.2475 194.109 45.2453 194.314 45.7229C194.535 46.2005 194.842 46.5416 195.235 46.7463C195.627 46.951 196.48 47.0619 197.793 47.0789V48H185.87V47.0789C187.064 47.0789 187.96 46.9339 188.557 46.644C188.915 46.4563 189.188 46.1664 189.376 45.7741C189.632 45.2112 189.759 44.2389 189.759 42.8573V21.519C189.759 18.8069 189.7 17.1524 189.58 16.5554C189.461 15.9413 189.265 15.5234 188.992 15.3017C188.719 15.0629 188.361 14.9435 187.917 14.9435C187.559 14.9435 187.022 15.0885 186.305 15.3785L185.87 14.483L192.83 11.6174H194.007Z" fill="#FF0000"/>
<path d="M46.4747 72.5503V73.814H44.855V77H43.3866V73.814H38.2784V72.6749L43.8761 64.6834H44.855V72.5503H46.4747ZM43.3866 72.5503V66.5611L39.1506 72.5503H43.3866ZM47.2358 77V76.6707H47.6896C48.1999 76.6707 48.5618 76.5076 48.7753 76.1813C48.9059 75.9855 48.9711 75.5464 48.9711 74.8642V67.0684C48.9711 66.3149 48.8881 65.8432 48.722 65.6534C48.4906 65.3923 48.1465 65.2618 47.6896 65.2618H47.2358V64.9325H52.1482C53.9518 64.9325 55.3223 65.1372 56.2597 65.5466C57.203 65.956 57.9594 66.6382 58.529 67.5934C59.1045 68.5486 59.3922 69.6521 59.3922 70.904C59.3922 72.583 58.882 73.9861 57.8615 75.1133C56.7165 76.3711 54.9722 77 52.6287 77H47.2358ZM50.6798 76.1279C51.4333 76.294 52.0651 76.377 52.5754 76.377C53.9518 76.377 55.0939 75.8935 56.0016 74.9265C56.9093 73.9594 57.3632 72.6482 57.3632 70.993C57.3632 69.3258 56.9093 68.0117 56.0016 67.0506C55.0939 66.0894 53.928 65.6089 52.5042 65.6089C51.9702 65.6089 51.3621 65.6949 50.6798 65.867V76.1279ZM61.8531 71.9185C61.8471 73.1288 62.1408 74.0781 62.7341 74.7663C63.3274 75.4545 64.0245 75.7986 64.8254 75.7986C65.3594 75.7986 65.8222 75.6532 66.2137 75.3625C66.6112 75.0659 66.9435 74.5616 67.2105 73.8496L67.4863 74.0276C67.3617 74.8404 66.9998 75.582 66.4006 76.2525C65.8014 76.9169 65.0509 77.2492 64.1491 77.2492C63.1702 77.2492 62.3307 76.8695 61.6306 76.1101C60.9364 75.3447 60.5894 74.3183 60.5894 73.0309C60.5894 71.6367 60.9453 70.551 61.6573 69.7738C62.3752 68.9906 63.274 68.599 64.3538 68.599C65.2674 68.599 66.0179 68.9016 66.6053 69.5068C67.1927 70.106 67.4863 70.9099 67.4863 71.9185H61.8531ZM61.8531 71.4023H65.6264C65.5967 70.8802 65.5344 70.5124 65.4395 70.2988C65.2912 69.9666 65.0687 69.7055 64.772 69.5157C64.4813 69.3258 64.1758 69.2309 63.8554 69.2309C63.363 69.2309 62.921 69.4237 62.5294 69.8094C62.1438 70.1891 61.9183 70.7201 61.8531 71.4023ZM70.7748 70.3344C71.73 69.1834 72.6407 68.6079 73.5069 68.6079C73.9519 68.6079 74.3345 68.7207 74.6549 68.9461C74.9753 69.1656 75.2304 69.5305 75.4202 70.0407C75.5508 70.3967 75.616 70.9425 75.616 71.6782V75.1578C75.616 75.674 75.6576 76.024 75.7406 76.208C75.8059 76.3563 75.9097 76.472 76.0521 76.555C76.2004 76.6381 76.4704 76.6796 76.8619 76.6796V77H72.8305V76.6796H72.9996C73.3793 76.6796 73.6433 76.6233 73.7917 76.5105C73.9459 76.3919 74.0527 76.2198 74.112 75.9944C74.1358 75.9054 74.1476 75.6265 74.1476 75.1578V71.8206C74.1476 71.079 74.0498 70.5421 73.854 70.2098C73.6641 69.8717 73.3408 69.7026 72.8839 69.7026C72.1779 69.7026 71.4749 70.0882 70.7748 70.8595V75.1578C70.7748 75.7096 70.8074 76.0507 70.8727 76.1813C70.9558 76.3533 71.0685 76.4809 71.2109 76.5639C71.3592 76.6411 71.6558 76.6796 72.1008 76.6796V77H68.0694V76.6796H68.2474C68.6627 76.6796 68.9415 76.5758 69.0839 76.3681C69.2323 76.1546 69.3064 75.7511 69.3064 75.1578V72.1321C69.3064 71.1532 69.2827 70.5569 69.2352 70.3433C69.1937 70.1297 69.1255 69.9844 69.0305 69.9072C68.9415 69.8301 68.8199 69.7916 68.6657 69.7916C68.4995 69.7916 68.3008 69.8361 68.0694 69.925L67.9359 69.6047L70.3921 68.6079H70.7748V70.3344ZM79.6965 66.1695V68.8482H81.601V69.4712H79.6965V74.7574C79.6965 75.2854 79.7707 75.6414 79.919 75.8253C80.0733 76.0092 80.2691 76.1012 80.5064 76.1012C80.7022 76.1012 80.892 76.0418 81.0759 75.9232C81.2599 75.7986 81.4022 75.6176 81.5031 75.3803H81.8502C81.6425 75.9617 81.3488 76.4008 80.9691 76.6974C80.5894 76.9881 80.1979 77.1335 79.7944 77.1335C79.5215 77.1335 79.2545 77.0593 78.9935 76.911C78.7325 76.7568 78.5396 76.5402 78.415 76.2614C78.2905 75.9766 78.2282 75.5405 78.2282 74.9532V69.4712H76.9378V69.1775C77.2641 69.047 77.5963 68.8275 77.9345 68.519C78.2786 68.2045 78.5841 67.8337 78.8511 67.4065C78.9876 67.1811 79.1774 66.7688 79.4207 66.1695H79.6965ZM86.8384 75.8253C86.0019 76.472 85.4768 76.8457 85.2632 76.9466C84.9429 77.0949 84.6017 77.1691 84.2398 77.1691C83.6762 77.1691 83.2105 76.9763 82.8426 76.5906C82.4807 76.205 82.2998 75.6977 82.2998 75.0688C82.2998 74.6713 82.3888 74.3272 82.5667 74.0365C82.81 73.6331 83.2312 73.2534 83.8305 72.8974C84.4356 72.5414 85.4383 72.1083 86.8384 71.5981V71.2777C86.8384 70.4649 86.7079 69.9072 86.4468 69.6047C86.1917 69.3021 85.818 69.1508 85.3255 69.1508C84.9518 69.1508 84.6551 69.2517 84.4356 69.4534C84.2102 69.6551 84.0974 69.8865 84.0974 70.1475L84.1152 70.6637C84.1152 70.9366 84.044 71.1472 83.9016 71.2955C83.7652 71.4439 83.5842 71.518 83.3588 71.518C83.1393 71.518 82.9583 71.4409 82.8159 71.2866C82.6795 71.1324 82.6112 70.9218 82.6112 70.6548C82.6112 70.1446 82.8723 69.6759 83.3944 69.2487C83.9165 68.8215 84.6492 68.6079 85.5925 68.6079C86.3163 68.6079 86.9096 68.7296 87.3724 68.9728C87.7224 69.1567 87.9805 69.4445 88.1466 69.8361C88.2534 70.0912 88.3068 70.6133 88.3068 71.4023V74.17C88.3068 74.9472 88.3216 75.4248 88.3513 75.6028C88.381 75.7749 88.4284 75.8906 88.4937 75.9499C88.5649 76.0092 88.645 76.0389 88.734 76.0389C88.8289 76.0389 88.912 76.0181 88.9832 75.9766C89.1077 75.8995 89.348 75.6829 89.704 75.3269V75.8253C89.0395 76.7152 88.4047 77.1602 87.7995 77.1602C87.5088 77.1602 87.2775 77.0593 87.1054 76.8576C86.9333 76.6559 86.8444 76.3118 86.8384 75.8253ZM86.8384 75.2468V72.141C85.9426 72.4969 85.3641 72.7491 85.1031 72.8974C84.6344 73.1585 84.2991 73.4314 84.0974 73.7162C83.8957 74.0009 83.7949 74.3124 83.7949 74.6506C83.7949 75.0777 83.9224 75.4337 84.1775 75.7185C84.4326 75.9973 84.7263 76.1368 85.0586 76.1368C85.5095 76.1368 86.1027 75.8401 86.8384 75.2468ZM92.9391 64.3452V75.1578C92.9391 75.6681 92.9747 76.0062 93.0459 76.1724C93.123 76.3385 93.2387 76.466 93.3929 76.555C93.5472 76.6381 93.8349 76.6796 94.2562 76.6796V77H90.2604V76.6796C90.6342 76.6796 90.8893 76.6411 91.0257 76.5639C91.1622 76.4868 91.269 76.3592 91.3461 76.1813C91.4232 76.0033 91.4618 75.6621 91.4618 75.1578V67.7536C91.4618 66.834 91.441 66.2704 91.3995 66.0627C91.358 65.8492 91.2897 65.7038 91.1948 65.6267C91.1058 65.5496 90.9901 65.511 90.8477 65.511C90.6935 65.511 90.4977 65.5585 90.2604 65.6534L90.1091 65.3419L92.5386 64.3452H92.9391ZM109.038 64.9325L109.172 67.7625H108.834C108.768 67.2642 108.679 66.9082 108.567 66.6946C108.383 66.3505 108.136 66.0983 107.828 65.9382C107.525 65.772 107.125 65.689 106.627 65.689H104.927V74.9087C104.927 75.6503 105.007 76.113 105.167 76.297C105.393 76.5461 105.74 76.6707 106.208 76.6707H106.627V77H101.509V76.6707H101.937C102.447 76.6707 102.809 76.5165 103.022 76.208C103.153 76.0181 103.218 75.585 103.218 74.9087V65.689H101.768C101.204 65.689 100.803 65.7305 100.566 65.8136C100.258 65.9263 99.9936 66.1428 99.7741 66.4632C99.5546 66.7836 99.4241 67.2167 99.3825 67.7625H99.0444L99.1867 64.9325H109.038ZM110.111 71.9185C110.105 73.1288 110.399 74.0781 110.992 74.7663C111.585 75.4545 112.282 75.7986 113.083 75.7986C113.617 75.7986 114.08 75.6532 114.471 75.3625C114.869 75.0659 115.201 74.5616 115.468 73.8496L115.744 74.0276C115.62 74.8404 115.258 75.582 114.658 76.2525C114.059 76.9169 113.309 77.2492 112.407 77.2492C111.428 77.2492 110.588 76.8695 109.888 76.1101C109.194 75.3447 108.847 74.3183 108.847 73.0309C108.847 71.6367 109.203 70.551 109.915 69.7738C110.633 68.9906 111.532 68.599 112.612 68.599C113.525 68.599 114.276 68.9016 114.863 69.5068C115.45 70.106 115.744 70.9099 115.744 71.9185H110.111ZM110.111 71.4023H113.884C113.854 70.8802 113.792 70.5124 113.697 70.2988C113.549 69.9666 113.326 69.7055 113.03 69.5157C112.739 69.3258 112.434 69.2309 112.113 69.2309C111.621 69.2309 111.179 69.4237 110.787 69.8094C110.402 70.1891 110.176 70.7201 110.111 71.4023ZM123.58 73.903C123.361 74.9769 122.93 75.8045 122.29 76.3859C121.649 76.9614 120.94 77.2492 120.163 77.2492C119.237 77.2492 118.43 76.8606 117.742 76.0834C117.054 75.3062 116.71 74.256 116.71 72.933C116.71 71.6515 117.09 70.6103 117.849 69.8094C118.614 69.0084 119.531 68.6079 120.599 68.6079C121.4 68.6079 122.058 68.8215 122.574 69.2487C123.091 69.6699 123.349 70.109 123.349 70.5658C123.349 70.7912 123.275 70.9752 123.126 71.1176C122.984 71.254 122.782 71.3222 122.521 71.3222C122.171 71.3222 121.907 71.2095 121.729 70.9841C121.628 70.8595 121.56 70.6222 121.524 70.2721C121.495 69.9221 121.376 69.6551 121.168 69.4712C120.961 69.2932 120.673 69.2042 120.305 69.2042C119.712 69.2042 119.234 69.4237 118.872 69.8628C118.392 70.4442 118.152 71.2125 118.152 72.1677C118.152 73.1407 118.389 74.0009 118.863 74.7485C119.344 75.4901 119.991 75.8609 120.804 75.8609C121.385 75.8609 121.907 75.6621 122.37 75.2646C122.696 74.9917 123.014 74.4963 123.322 73.7784L123.58 73.903ZM126.966 64.3452V70.3077C127.625 69.5839 128.147 69.1211 128.533 68.9194C128.918 68.7118 129.304 68.6079 129.69 68.6079C130.152 68.6079 130.55 68.7355 130.882 68.9906C131.214 69.2457 131.461 69.6462 131.621 70.192C131.734 70.5717 131.79 71.2659 131.79 72.2745V75.1578C131.79 75.674 131.831 76.027 131.915 76.2169C131.974 76.3592 132.075 76.472 132.217 76.555C132.359 76.6381 132.621 76.6796 133 76.6796V77H128.996V76.6796H129.182C129.562 76.6796 129.826 76.6233 129.974 76.5105C130.123 76.3919 130.227 76.2198 130.286 75.9944C130.304 75.8995 130.313 75.6206 130.313 75.1578V72.2745C130.313 71.3845 130.265 70.8001 130.17 70.5213C130.081 70.2425 129.936 70.0348 129.734 69.8983C129.532 69.756 129.289 69.6848 129.004 69.6848C128.714 69.6848 128.411 69.7619 128.097 69.9161C127.782 70.0704 127.406 70.3819 126.966 70.8506V75.1578C126.966 75.7155 126.996 76.0626 127.055 76.1991C127.121 76.3355 127.236 76.4512 127.403 76.5461C127.575 76.6351 127.868 76.6796 128.284 76.6796V77H124.243V76.6796C124.605 76.6796 124.89 76.6233 125.098 76.5105C125.216 76.4512 125.311 76.3385 125.382 76.1724C125.454 76.0062 125.489 75.6681 125.489 75.1578V67.7803C125.489 66.8489 125.465 66.2763 125.418 66.0627C125.376 65.8492 125.308 65.7038 125.213 65.6267C125.124 65.5496 125.003 65.511 124.848 65.511C124.724 65.511 124.522 65.5585 124.243 65.6534L124.119 65.3419L126.557 64.3452H126.966ZM135.879 70.3344C136.835 69.1834 137.745 68.6079 138.611 68.6079C139.056 68.6079 139.439 68.7207 139.759 68.9461C140.08 69.1656 140.335 69.5305 140.525 70.0407C140.655 70.3967 140.721 70.9425 140.721 71.6782V75.1578C140.721 75.674 140.762 76.024 140.845 76.208C140.91 76.3563 141.014 76.472 141.157 76.555C141.305 76.6381 141.575 76.6796 141.966 76.6796V77H137.935V76.6796H138.104C138.484 76.6796 138.748 76.6233 138.896 76.5105C139.05 76.3919 139.157 76.2198 139.217 75.9944C139.24 75.9054 139.252 75.6265 139.252 75.1578V71.8206C139.252 71.079 139.154 70.5421 138.958 70.2098C138.769 69.8717 138.445 69.7026 137.988 69.7026C137.282 69.7026 136.579 70.0882 135.879 70.8595V75.1578C135.879 75.7096 135.912 76.0507 135.977 76.1813C136.06 76.3533 136.173 76.4809 136.315 76.5639C136.464 76.6411 136.76 76.6796 137.205 76.6796V77H133.174V76.6796H133.352C133.767 76.6796 134.046 76.5758 134.188 76.3681C134.337 76.1546 134.411 75.7511 134.411 75.1578V72.1321C134.411 71.1532 134.387 70.5569 134.34 70.3433C134.298 70.1297 134.23 69.9844 134.135 69.9072C134.046 69.8301 133.924 69.7916 133.77 69.7916C133.604 69.7916 133.405 69.8361 133.174 69.925L133.04 69.6047L135.497 68.6079H135.879V70.3344ZM146.421 68.6079C147.655 68.6079 148.646 69.0766 149.393 70.014C150.028 70.815 150.345 71.7346 150.345 72.7728C150.345 73.5026 150.17 74.2412 149.82 74.9888C149.47 75.7363 148.987 76.2999 148.37 76.6796C147.759 77.0593 147.076 77.2492 146.323 77.2492C145.095 77.2492 144.119 76.7597 143.395 75.7808C142.784 74.9561 142.478 74.0306 142.478 73.0042C142.478 72.2567 142.662 71.5151 143.03 70.7794C143.404 70.0378 143.893 69.4919 144.498 69.1419C145.104 68.7859 145.744 68.6079 146.421 68.6079ZM146.145 69.1864C145.83 69.1864 145.513 69.2813 145.193 69.4712C144.878 69.6551 144.623 69.9814 144.427 70.4501C144.232 70.9188 144.134 71.521 144.134 72.2567C144.134 73.4432 144.368 74.4667 144.837 75.3269C145.311 76.1872 145.934 76.6173 146.706 76.6173C147.281 76.6173 147.756 76.38 148.129 75.9054C148.503 75.4308 148.69 74.615 148.69 73.4581C148.69 72.0105 148.379 70.8713 147.756 70.0407C147.334 69.4712 146.797 69.1864 146.145 69.1864ZM154.168 64.3452V75.1578C154.168 75.6681 154.203 76.0062 154.275 76.1724C154.352 76.3385 154.467 76.466 154.622 76.555C154.776 76.6381 155.064 76.6796 155.485 76.6796V77H151.489V76.6796C151.863 76.6796 152.118 76.6411 152.254 76.5639C152.391 76.4868 152.498 76.3592 152.575 76.1813C152.652 76.0033 152.69 75.6621 152.69 75.1578V67.7536C152.69 66.834 152.67 66.2704 152.628 66.0627C152.587 65.8492 152.518 65.7038 152.424 65.6267C152.335 65.5496 152.219 65.511 152.076 65.511C151.922 65.511 151.726 65.5585 151.489 65.6534L151.338 65.3419L153.767 64.3452H154.168ZM160.242 68.6079C161.476 68.6079 162.467 69.0766 163.214 70.014C163.849 70.815 164.166 71.7346 164.166 72.7728C164.166 73.5026 163.991 74.2412 163.641 74.9888C163.291 75.7363 162.808 76.2999 162.191 76.6796C161.58 77.0593 160.897 77.2492 160.144 77.2492C158.916 77.2492 157.94 76.7597 157.216 75.7808C156.605 74.9561 156.299 74.0306 156.299 73.0042C156.299 72.2567 156.483 71.5151 156.851 70.7794C157.225 70.0378 157.714 69.4919 158.319 69.1419C158.925 68.7859 159.565 68.6079 160.242 68.6079ZM159.966 69.1864C159.651 69.1864 159.334 69.2813 159.014 69.4712C158.699 69.6551 158.444 69.9814 158.248 70.4501C158.052 70.9188 157.955 71.521 157.955 72.2567C157.955 73.4432 158.189 74.4667 158.658 75.3269C159.132 76.1872 159.755 76.6173 160.527 76.6173C161.102 76.6173 161.577 76.38 161.95 75.9054C162.324 75.4308 162.511 74.615 162.511 73.4581C162.511 72.0105 162.2 70.8713 161.577 70.0407C161.155 69.4712 160.618 69.1864 159.966 69.1864ZM167.366 74.0276C166.867 73.7844 166.485 73.4462 166.218 73.0131C165.951 72.5741 165.817 72.0905 165.817 71.5625C165.817 70.7556 166.12 70.0615 166.725 69.4801C167.336 68.8987 168.116 68.6079 169.066 68.6079C169.843 68.6079 170.516 68.7978 171.086 69.1775H172.812C173.067 69.1775 173.216 69.1864 173.257 69.2042C173.299 69.2161 173.328 69.2398 173.346 69.2754C173.382 69.3288 173.4 69.4237 173.4 69.5602C173.4 69.7144 173.385 69.8212 173.355 69.8806C173.337 69.9102 173.305 69.9339 173.257 69.9517C173.216 69.9695 173.067 69.9784 172.812 69.9784H171.753C172.085 70.4056 172.252 70.9514 172.252 71.6159C172.252 72.3753 171.961 73.025 171.379 73.5649C170.798 74.1048 170.018 74.3747 169.039 74.3747C168.635 74.3747 168.223 74.3154 167.802 74.1967C167.541 74.4222 167.363 74.6209 167.268 74.793C167.179 74.9591 167.134 75.1015 167.134 75.2201C167.134 75.321 167.182 75.4189 167.277 75.5138C167.378 75.6087 167.57 75.677 167.855 75.7185C168.021 75.7422 168.437 75.763 169.101 75.7808C170.323 75.8105 171.115 75.852 171.477 75.9054C172.029 75.9825 172.468 76.1872 172.794 76.5194C173.127 76.8517 173.293 77.261 173.293 77.7475C173.293 78.418 172.978 79.0468 172.349 79.6342C171.424 80.5004 170.217 80.9335 168.727 80.9335C167.582 80.9335 166.615 80.6754 165.826 80.1593C165.381 79.8626 165.159 79.5541 165.159 79.2337C165.159 79.0913 165.191 78.9489 165.257 78.8066C165.358 78.587 165.565 78.2815 165.88 77.8899C165.921 77.8365 166.224 77.5162 166.787 76.9288C166.479 76.7449 166.259 76.5817 166.129 76.4393C166.004 76.291 165.942 76.1249 165.942 75.941C165.942 75.7333 166.025 75.4901 166.191 75.2112C166.363 74.9324 166.755 74.5379 167.366 74.0276ZM168.914 69.0351C168.475 69.0351 168.107 69.2101 167.811 69.5602C167.514 69.9102 167.366 70.4471 167.366 71.171C167.366 72.1083 167.568 72.8351 167.971 73.3513C168.279 73.7429 168.671 73.9386 169.146 73.9386C169.597 73.9386 169.967 73.7695 170.258 73.4314C170.549 73.0932 170.694 72.5622 170.694 71.8384C170.694 70.8951 170.489 70.1564 170.08 69.6225C169.778 69.2309 169.389 69.0351 168.914 69.0351ZM167.277 77C166.998 77.3026 166.787 77.5844 166.645 77.8454C166.503 78.1065 166.431 78.3468 166.431 78.5663C166.431 78.8511 166.603 79.1002 166.948 79.3138C167.541 79.6817 168.398 79.8656 169.519 79.8656C170.587 79.8656 171.373 79.6757 171.878 79.296C172.388 78.9223 172.643 78.5218 172.643 78.0946C172.643 77.7861 172.492 77.5666 172.189 77.4361C171.881 77.3055 171.27 77.2284 170.356 77.2047C169.021 77.1691 167.995 77.1009 167.277 77ZM173.653 68.8482H177.453V69.1775H177.266C176.999 69.1775 176.798 69.2368 176.661 69.3555C176.531 69.4682 176.466 69.6106 176.466 69.7827C176.466 70.014 176.563 70.3344 176.759 70.7438L178.744 74.8553L180.568 70.3522C180.669 70.109 180.719 69.8687 180.719 69.6314C180.719 69.5246 180.699 69.4445 180.657 69.3911C180.61 69.3258 180.535 69.2754 180.435 69.2398C180.334 69.1983 180.156 69.1775 179.901 69.1775V68.8482H182.553V69.1775C182.333 69.2012 182.164 69.2487 182.045 69.3199C181.927 69.3911 181.796 69.5246 181.654 69.7204C181.6 69.8034 181.5 70.0318 181.351 70.4056L178.032 78.5396C177.711 79.3287 177.29 79.9249 176.768 80.3283C176.252 80.7318 175.754 80.9335 175.273 80.9335C174.923 80.9335 174.635 80.8326 174.41 80.6309C174.184 80.4292 174.072 80.1978 174.072 79.9368C174.072 79.6876 174.152 79.4859 174.312 79.3316C174.478 79.1833 174.703 79.1091 174.988 79.1091C175.184 79.1091 175.451 79.1744 175.789 79.3049C176.026 79.3939 176.175 79.4384 176.234 79.4384C176.412 79.4384 176.605 79.3465 176.813 79.1625C177.026 78.9786 177.24 78.6226 177.453 78.0946L178.032 76.6796L175.104 70.5302C175.015 70.3463 174.873 70.1179 174.677 69.845C174.528 69.6373 174.407 69.4979 174.312 69.4267C174.175 69.3318 173.956 69.2487 173.653 69.1775V68.8482Z" fill="#00B0F0"/>
</svg>
