<svg width="221" height="41" viewBox="0 0 221 41" fill="none" xmlns="http://www.w3.org/2000/svg">
<path d="M10.9609 22.1367V32.9375C10.9609 35.2708 11.2161 36.7201 11.7266 37.2852C12.4193 38.0872 13.4674 38.4883 14.8711 38.4883H16.293V39.5H0.40625V38.4883H1.80078C3.36849 38.4883 4.48958 37.9779 5.16406 36.957C5.52865 36.3919 5.71094 35.0521 5.71094 32.9375V8.98438C5.71094 6.65104 5.46484 5.20182 4.97266 4.63672C4.26172 3.83464 3.20443 3.43359 1.80078 3.43359H0.40625V2.42188H13.9961C17.3138 2.42188 19.9297 2.76823 21.8438 3.46094C23.7578 4.13542 25.3711 5.28385 26.6836 6.90625C27.9961 8.52865 28.6523 10.4518 28.6523 12.6758C28.6523 15.7018 27.6497 18.1628 25.6445 20.0586C23.6576 21.9544 20.8411 22.9023 17.1953 22.9023C16.3021 22.9023 15.3359 22.8385 14.2969 22.7109C13.2578 22.5833 12.1458 22.3919 10.9609 22.1367ZM10.9609 20.5781C11.9271 20.7604 12.7839 20.8971 13.5312 20.9883C14.2786 21.0794 14.9167 21.125 15.4453 21.125C17.3411 21.125 18.9727 20.3958 20.3398 18.9375C21.7253 17.4609 22.418 15.556 22.418 13.2227C22.418 11.6185 22.0898 10.1328 21.4336 8.76562C20.7773 7.38021 19.8477 6.35026 18.6445 5.67578C17.4414 4.98307 16.0742 4.63672 14.543 4.63672C13.6133 4.63672 12.4193 4.8099 10.9609 5.15625V20.5781ZM41.0117 0.617188V33.8398C41.0117 35.4076 41.1211 36.4466 41.3398 36.957C41.5768 37.4674 41.9323 37.8594 42.4062 38.1328C42.8802 38.388 43.7643 38.5156 45.0586 38.5156V39.5H32.7812V38.5156C33.9297 38.5156 34.7135 38.3971 35.1328 38.1602C35.5521 37.9232 35.8802 37.5312 36.1172 36.9844C36.3542 36.4375 36.4727 35.3893 36.4727 33.8398V11.0898C36.4727 8.26432 36.4089 6.53255 36.2812 5.89453C36.1536 5.23828 35.944 4.79167 35.6523 4.55469C35.3789 4.31771 35.0234 4.19922 34.5859 4.19922C34.112 4.19922 33.5104 4.34505 32.7812 4.63672L32.3164 3.67969L39.7812 0.617188H41.0117ZM62.1758 35.8906C59.6055 37.8776 57.9922 39.026 57.3359 39.3359C56.3516 39.7917 55.3034 40.0195 54.1914 40.0195C52.4596 40.0195 51.0286 39.4271 49.8984 38.2422C48.7865 37.0573 48.2305 35.4987 48.2305 33.5664C48.2305 32.3451 48.5039 31.2878 49.0508 30.3945C49.7982 29.1549 51.0924 27.9883 52.9336 26.8945C54.793 25.8008 57.8737 24.4701 62.1758 22.9023V21.918C62.1758 19.4206 61.7747 17.707 60.9727 16.7773C60.1888 15.8477 59.0404 15.3828 57.5273 15.3828C56.3789 15.3828 55.4674 15.6927 54.793 16.3125C54.1003 16.9323 53.7539 17.6432 53.7539 18.4453L53.8086 20.0312C53.8086 20.8698 53.5898 21.5169 53.1523 21.9727C52.7331 22.4284 52.1771 22.6562 51.4844 22.6562C50.8099 22.6562 50.2539 22.4193 49.8164 21.9453C49.3971 21.4714 49.1875 20.8242 49.1875 20.0039C49.1875 18.4362 49.9896 16.9961 51.5938 15.6836C53.1979 14.3711 55.4492 13.7148 58.3477 13.7148C60.5716 13.7148 62.3945 14.0885 63.8164 14.8359C64.8919 15.401 65.6849 16.2852 66.1953 17.4883C66.5234 18.2721 66.6875 19.8763 66.6875 22.3008V30.8047C66.6875 33.1927 66.7331 34.6602 66.8242 35.207C66.9154 35.7357 67.0612 36.0911 67.2617 36.2734C67.4805 36.4557 67.7266 36.5469 68 36.5469C68.2917 36.5469 68.5469 36.4831 68.7656 36.3555C69.1484 36.1185 69.8867 35.4531 70.9805 34.3594V35.8906C68.9388 38.625 66.9883 39.9922 65.1289 39.9922C64.2357 39.9922 63.5247 39.6823 62.9961 39.0625C62.4674 38.4427 62.194 37.3854 62.1758 35.8906ZM62.1758 34.1133V24.5703C59.4232 25.6641 57.6458 26.4388 56.8438 26.8945C55.4036 27.6966 54.3737 28.5352 53.7539 29.4102C53.1341 30.2852 52.8242 31.2422 52.8242 32.2812C52.8242 33.5938 53.2161 34.6875 54 35.5625C54.7839 36.4193 55.6862 36.8477 56.707 36.8477C58.0924 36.8477 59.9154 35.9362 62.1758 34.1133ZM80.168 19.0195C83.1029 15.4831 85.901 13.7148 88.5625 13.7148C89.9297 13.7148 91.1055 14.0612 92.0898 14.7539C93.0742 15.4284 93.8581 16.5495 94.4414 18.1172C94.8424 19.2109 95.043 20.888 95.043 23.1484V33.8398C95.043 35.4258 95.1706 36.5013 95.4258 37.0664C95.6263 37.5221 95.9453 37.8776 96.3828 38.1328C96.8385 38.388 97.668 38.5156 98.8711 38.5156V39.5H86.4844V38.5156H87.0039C88.1706 38.5156 88.9818 38.3424 89.4375 37.9961C89.9115 37.6315 90.2396 37.1029 90.4219 36.4102C90.4948 36.1367 90.5312 35.2799 90.5312 33.8398V23.5859C90.5312 21.3073 90.2305 19.6576 89.6289 18.6367C89.0456 17.5977 88.0521 17.0781 86.6484 17.0781C84.4792 17.0781 82.319 18.263 80.168 20.6328V33.8398C80.168 35.5352 80.2682 36.5833 80.4688 36.9844C80.724 37.513 81.0703 37.9049 81.5078 38.1602C81.9635 38.3971 82.875 38.5156 84.2422 38.5156V39.5H71.8555V38.5156H72.4023C73.6784 38.5156 74.5352 38.1966 74.9727 37.5586C75.4284 36.9023 75.6562 35.6628 75.6562 33.8398V24.543C75.6562 21.5352 75.5833 19.7031 75.4375 19.0469C75.3099 18.3906 75.1003 17.944 74.8086 17.707C74.5352 17.4701 74.1615 17.3516 73.6875 17.3516C73.1771 17.3516 72.5664 17.4883 71.8555 17.7617L71.4453 16.7773L78.9922 13.7148H80.168V19.0195ZM107.238 0.617188C108.004 0.617188 108.651 0.890625 109.18 1.4375C109.727 1.96615 110 2.61328 110 3.37891C110 4.14453 109.727 4.80078 109.18 5.34766C108.651 5.89453 108.004 6.16797 107.238 6.16797C106.473 6.16797 105.816 5.89453 105.27 5.34766C104.723 4.80078 104.449 4.14453 104.449 3.37891C104.449 2.61328 104.714 1.96615 105.242 1.4375C105.789 0.890625 106.454 0.617188 107.238 0.617188ZM109.508 13.7148V33.8398C109.508 35.4076 109.617 36.4557 109.836 36.9844C110.073 37.4948 110.41 37.8776 110.848 38.1328C111.303 38.388 112.124 38.5156 113.309 38.5156V39.5H101.141V38.5156C102.362 38.5156 103.182 38.3971 103.602 38.1602C104.021 37.9232 104.349 37.5312 104.586 36.9844C104.841 36.4375 104.969 35.3893 104.969 33.8398V24.1875C104.969 21.4714 104.887 19.7122 104.723 18.9102C104.595 18.3268 104.395 17.9258 104.121 17.707C103.848 17.4701 103.474 17.3516 103 17.3516C102.49 17.3516 101.87 17.4883 101.141 17.7617L100.758 16.7773L108.305 13.7148H109.508Z" fill="white"/>
<path d="M146.805 29.2461L147.707 29.4375L144.535 39.5H115.824V38.4883H117.219C118.786 38.4883 119.908 37.9779 120.582 36.957C120.965 36.3737 121.156 35.0247 121.156 32.9102V8.98438C121.156 6.66927 120.901 5.22005 120.391 4.63672C119.68 3.83464 118.622 3.43359 117.219 3.43359H115.824V2.42188H132.613V3.43359C130.645 3.41536 129.259 3.59766 128.457 3.98047C127.673 4.36328 127.135 4.84635 126.844 5.42969C126.552 6.01302 126.406 7.40755 126.406 9.61328V32.9102C126.406 34.4232 126.552 35.4622 126.844 36.0273C127.062 36.4102 127.4 36.6927 127.855 36.875C128.311 37.0573 129.733 37.1484 132.121 37.1484H134.828C137.672 37.1484 139.668 36.9388 140.816 36.5195C141.965 36.1003 143.013 35.362 143.961 34.3047C144.909 33.2292 145.857 31.543 146.805 29.2461ZM157.059 0.617188C157.824 0.617188 158.471 0.890625 159 1.4375C159.547 1.96615 159.82 2.61328 159.82 3.37891C159.82 4.14453 159.547 4.80078 159 5.34766C158.471 5.89453 157.824 6.16797 157.059 6.16797C156.293 6.16797 155.637 5.89453 155.09 5.34766C154.543 4.80078 154.27 4.14453 154.27 3.37891C154.27 2.61328 154.534 1.96615 155.062 1.4375C155.609 0.890625 156.275 0.617188 157.059 0.617188ZM159.328 13.7148V33.8398C159.328 35.4076 159.438 36.4557 159.656 36.9844C159.893 37.4948 160.23 37.8776 160.668 38.1328C161.124 38.388 161.944 38.5156 163.129 38.5156V39.5H150.961V38.5156C152.182 38.5156 153.003 38.3971 153.422 38.1602C153.841 37.9232 154.169 37.5312 154.406 36.9844C154.661 36.4375 154.789 35.3893 154.789 33.8398V24.1875C154.789 21.4714 154.707 19.7122 154.543 18.9102C154.415 18.3268 154.215 17.9258 153.941 17.707C153.668 17.4701 153.294 17.3516 152.82 17.3516C152.31 17.3516 151.69 17.4883 150.961 17.7617L150.578 16.7773L158.125 13.7148H159.328ZM173.574 19.0195C176.509 15.4831 179.307 13.7148 181.969 13.7148C183.336 13.7148 184.512 14.0612 185.496 14.7539C186.48 15.4284 187.264 16.5495 187.848 18.1172C188.249 19.2109 188.449 20.888 188.449 23.1484V33.8398C188.449 35.4258 188.577 36.5013 188.832 37.0664C189.033 37.5221 189.352 37.8776 189.789 38.1328C190.245 38.388 191.074 38.5156 192.277 38.5156V39.5H179.891V38.5156H180.41C181.577 38.5156 182.388 38.3424 182.844 37.9961C183.318 37.6315 183.646 37.1029 183.828 36.4102C183.901 36.1367 183.938 35.2799 183.938 33.8398V23.5859C183.938 21.3073 183.637 19.6576 183.035 18.6367C182.452 17.5977 181.458 17.0781 180.055 17.0781C177.885 17.0781 175.725 18.263 173.574 20.6328V33.8398C173.574 35.5352 173.674 36.5833 173.875 36.9844C174.13 37.513 174.477 37.9049 174.914 38.1602C175.37 38.3971 176.281 38.5156 177.648 38.5156V39.5H165.262V38.5156H165.809C167.085 38.5156 167.941 38.1966 168.379 37.5586C168.835 36.9023 169.062 35.6628 169.062 33.8398V24.543C169.062 21.5352 168.99 19.7031 168.844 19.0469C168.716 18.3906 168.507 17.944 168.215 17.707C167.941 17.4701 167.568 17.3516 167.094 17.3516C166.583 17.3516 165.973 17.4883 165.262 17.7617L164.852 16.7773L172.398 13.7148H173.574V19.0195ZM201.684 0.617188V25.5273L208.055 19.7305C209.404 18.4909 210.188 17.707 210.406 17.3789C210.552 17.1602 210.625 16.9414 210.625 16.7227C210.625 16.3581 210.47 16.0482 210.16 15.793C209.868 15.5195 209.376 15.3646 208.684 15.3281V14.4531H219.566V15.3281C218.072 15.3646 216.823 15.5924 215.82 16.0117C214.836 16.431 213.751 17.1784 212.566 18.2539L206.141 24.1875L212.566 32.3086C214.353 34.5508 215.556 35.9727 216.176 36.5742C217.051 37.431 217.816 37.987 218.473 38.2422C218.928 38.4245 219.721 38.5156 220.852 38.5156V39.5H208.684V38.5156C209.376 38.4974 209.841 38.3971 210.078 38.2148C210.333 38.0143 210.461 37.7409 210.461 37.3945C210.461 36.9753 210.096 36.3008 209.367 35.3711L201.684 25.5547V33.8672C201.684 35.4896 201.793 36.556 202.012 37.0664C202.249 37.5768 202.577 37.9414 202.996 38.1602C203.415 38.3789 204.327 38.4974 205.73 38.5156V39.5H192.988V38.5156C194.264 38.5156 195.221 38.3607 195.859 38.0508C196.242 37.8503 196.534 37.5404 196.734 37.1211C197.008 36.5195 197.145 35.4805 197.145 34.0039V11.1992C197.145 8.30078 197.081 6.53255 196.953 5.89453C196.826 5.23828 196.616 4.79167 196.324 4.55469C196.033 4.29948 195.65 4.17188 195.176 4.17188C194.793 4.17188 194.219 4.32682 193.453 4.63672L192.988 3.67969L200.426 0.617188H201.684Z" fill="#FF0000"/>
</svg>
