<svg width="24" height="24" viewBox="0 0 24 24" fill="none" xmlns="http://www.w3.org/2000/svg">
<path d="M15.3899 15.3899C15.9749 14.8029 16.0539 13.9329 15.5659 13.4439C15.0779 12.9559 14.2069 13.0349 13.6209 13.6209C13.0359 14.2069 12.1649 14.2859 11.6769 13.7979C11.1889 13.3099 11.2679 12.4389 11.8539 11.8539M11.8539 11.8539L11.4999 11.4999M11.8539 11.8539C12.1849 11.5219 12.6069 11.3539 12.9999 11.3569M15.7429 15.7429L15.3889 15.3889C14.9889 15.7899 14.4539 15.9539 13.9999 15.8599M8.60693 10.8789C9.0025 10.8789 9.38918 10.7616 9.71807 10.5418C10.047 10.3221 10.3033 10.0097 10.4547 9.64427C10.6061 9.27882 10.6457 8.87669 10.5685 8.48873C10.4913 8.10076 10.3009 7.7444 10.0211 7.46469C9.74144 7.18499 9.38508 6.99451 8.99711 6.91734C8.60915 6.84017 8.20702 6.87977 7.84157 7.03115C7.47611 7.18252 7.16376 7.43887 6.94399 7.76777C6.72423 8.09666 6.60693 8.48334 6.60693 8.87891" stroke="white" stroke-width="1.7" stroke-linecap="round"/>
<path d="M16.1368 4.72787C14.5908 3.18287 13.8188 2.40987 12.8158 2.12287C11.8128 1.83487 10.7478 2.08087 8.61876 2.57287L7.39076 2.85587C5.59876 3.26887 4.70276 3.47587 4.08876 4.08887C3.47576 4.70287 3.26876 5.59887 2.85576 7.39087L2.57176 8.61887C2.08076 10.7489 1.83476 11.8129 2.12176 12.8159C2.40976 13.8189 3.18276 14.5909 4.72776 16.1359L6.55776 17.9659C9.24776 20.6569 10.5918 21.9999 12.2618 21.9999C13.9328 21.9999 15.2768 20.6549 17.9658 17.9659C20.6568 15.2769 21.9998 13.9329 21.9998 12.2619C21.9998 10.9199 21.1318 9.78787 19.3958 7.99987" stroke="white" stroke-width="1.7" stroke-linecap="round"/>
</svg>
