<svg width="16" height="16" viewBox="0 0 16 16" fill="none" xmlns="http://www.w3.org/2000/svg">
<path d="M7.33346 11.333H8.6668V7.33301H7.33346V11.333ZM8.00013 5.99967C8.18902 5.99967 8.34746 5.93567 8.47546 5.80767C8.60346 5.67967 8.66724 5.52145 8.6668 5.33301C8.6668 5.14412 8.6028 4.98567 8.4748 4.85767C8.3468 4.72967 8.18858 4.6659 8.00013 4.66634C7.81124 4.66634 7.6528 4.73034 7.5248 4.85834C7.3968 4.98634 7.33302 5.14456 7.33346 5.33301C7.33346 5.5219 7.39746 5.68034 7.52546 5.80834C7.65346 5.93634 7.81169 6.00012 8.00013 5.99967ZM8.00013 14.6663C6.45569 14.2775 5.18058 13.3912 4.1748 12.0077C3.16902 10.6241 2.66635 9.08812 2.6668 7.39967V3.33301L8.00013 1.33301L13.3335 3.33301V7.39967C13.3335 9.08856 12.8306 10.6248 11.8248 12.0083C10.819 13.3919 9.54413 14.2779 8.00013 14.6663ZM8.00013 13.2663C9.15569 12.8997 10.1112 12.1663 10.8668 11.0663C11.6224 9.96634 12.0001 8.74412 12.0001 7.39967V4.24967L8.00013 2.74967L4.00013 4.24967V7.39967C4.00013 8.74412 4.37791 9.96634 5.13346 11.0663C5.88902 12.1663 6.84457 12.8997 8.00013 13.2663Z" fill="white"/>
</svg>
