<svg width="21" height="20" viewBox="0 0 21 20" fill="none" xmlns="http://www.w3.org/2000/svg">
<g clip-path="url(#clip0_24_333)">
<path d="M19.1365 19.697C19.4294 19.9899 19.9043 19.9899 20.1972 19.697C20.4901 19.4041 20.4901 18.9292 20.1972 18.6363L19.1365 19.697ZM15.6815 8.38236C15.6815 12.1374 12.6375 15.1814 8.88251 15.1814V16.6814C13.4659 16.6814 17.1815 12.9658 17.1815 8.38236H15.6815ZM8.88251 15.1814C5.12752 15.1814 2.0835 12.1374 2.0835 8.38236H0.583496C0.583496 12.9658 4.29909 16.6814 8.88251 16.6814V15.1814ZM2.0835 8.38236C2.0835 4.62737 5.12752 1.58334 8.88251 1.58334V0.0833435C4.29909 0.0833435 0.583496 3.79894 0.583496 8.38236H2.0835ZM8.88251 1.58334C12.6375 1.58334 15.6815 4.62737 15.6815 8.38236H17.1815C17.1815 3.79894 13.4659 0.0833435 8.88251 0.0833435V1.58334ZM13.7443 14.3048L19.1365 19.697L20.1972 18.6363L14.805 13.2442L13.7443 14.3048Z" fill="#96A5B8"/>
</g>
<defs>
<clipPath id="clip0_24_333">
<rect width="20" height="20" fill="white" transform="translate(0.5)"/>
</clipPath>
</defs>
</svg>
