<svg width="256" height="127" viewBox="0 0 256 127" fill="none" xmlns="http://www.w3.org/2000/svg">
<path d="M60.934 57.0046V64.4663C60.934 66.0783 61.1103 67.0795 61.4629 67.4699C61.9415 68.024 62.6656 68.3011 63.6353 68.3011H64.6176V69H53.6423V68.3011H54.6057C55.6887 68.3011 56.4633 67.9484 56.9292 67.2432C57.1811 66.8528 57.307 65.9272 57.307 64.4663V47.9182C57.307 46.3063 57.137 45.3051 56.797 44.9147C56.3058 44.3605 55.5754 44.0835 54.6057 44.0835H53.6423V43.3845H63.0308C65.3229 43.3845 67.1301 43.6238 68.4524 44.1024C69.7747 44.5683 70.8893 45.3617 71.796 46.4826C72.7027 47.6034 73.1561 48.932 73.1561 50.4685C73.1561 52.559 72.4635 54.2591 71.0782 55.5689C69.7055 56.8786 67.7597 57.5335 65.241 57.5335C64.6239 57.5335 63.9565 57.4894 63.2386 57.4013C62.5208 57.3131 61.7526 57.1809 60.934 57.0046ZM60.934 55.9278C61.6015 56.0537 62.1934 56.1482 62.7097 56.2112C63.226 56.2741 63.6668 56.3056 64.032 56.3056C65.3418 56.3056 66.4689 55.8019 67.4134 54.7944C68.3705 53.7743 68.8491 52.4583 68.8491 50.8463C68.8491 49.738 68.6224 48.7116 68.169 47.7671C67.7157 46.81 67.0734 46.0985 66.2422 45.6325C65.411 45.1539 64.4665 44.9147 63.4086 44.9147C62.7664 44.9147 61.9415 45.0343 60.934 45.2736V55.9278ZM81.3077 42.1378V65.0897C81.3077 66.1727 81.3833 66.8906 81.5344 67.2432C81.6981 67.5958 81.9437 67.8666 82.2711 68.0555C82.5986 68.2318 83.2094 68.3199 84.1035 68.3199V69H75.6217V68.3199C76.4151 68.3199 76.9566 68.2381 77.2463 68.0744C77.5359 67.9107 77.7626 67.6399 77.9263 67.2621C78.0901 66.8843 78.1719 66.1601 78.1719 65.0897V49.3728C78.1719 47.4208 78.1278 46.2244 78.0397 45.7836C77.9515 45.3303 77.8067 45.0217 77.6052 44.858C77.4163 44.6943 77.1707 44.6124 76.8685 44.6124C76.541 44.6124 76.1254 44.7132 75.6217 44.9147L75.3006 44.2535L80.4577 42.1378H81.3077ZM95.5421 66.5065C93.7664 67.8792 92.6518 68.6726 92.1985 68.8867C91.5184 69.2015 90.7943 69.3589 90.0261 69.3589C88.8297 69.3589 87.8411 68.9496 87.0603 68.131C86.292 67.3125 85.9079 66.2357 85.9079 64.9008C85.9079 64.057 86.0968 63.3266 86.4746 62.7095C86.991 61.8531 87.8851 61.0471 89.1571 60.2915C90.4416 59.5359 92.57 58.6165 95.5421 57.5335V56.8534C95.5421 55.1281 95.265 53.9443 94.7109 53.302C94.1694 52.6598 93.376 52.3386 92.3307 52.3386C91.5373 52.3386 90.9076 52.5527 90.4416 52.9809C89.9631 53.4091 89.7238 53.9002 89.7238 54.4543L89.7616 55.55C89.7616 56.1293 89.6105 56.5764 89.3082 56.8912C89.0186 57.2061 88.6345 57.3635 88.1559 57.3635C87.6899 57.3635 87.3058 57.1998 87.0036 56.8723C86.7139 56.5449 86.5691 56.0978 86.5691 55.5311C86.5691 54.4481 87.1232 53.4532 88.2315 52.5464C89.3397 51.6397 90.895 51.1863 92.8974 51.1863C94.4338 51.1863 95.6932 51.4445 96.6755 51.9608C97.4185 52.3512 97.9663 52.962 98.319 53.7932C98.5456 54.3347 98.659 55.4429 98.659 57.1179V62.9928C98.659 64.6426 98.6905 65.6564 98.7534 66.0342C98.8164 66.3994 98.9172 66.645 99.0557 66.7709C99.2068 66.8969 99.3768 66.9598 99.5657 66.9598C99.7672 66.9598 99.9435 66.9158 100.095 66.8276C100.359 66.6639 100.869 66.2042 101.625 65.4486V66.5065C100.214 68.3955 98.8668 69.34 97.5822 69.34C96.9651 69.34 96.474 69.1259 96.1088 68.6978C95.7436 68.2696 95.5547 67.5391 95.5421 66.5065ZM95.5421 65.2786V58.6858C93.6404 59.4414 92.4125 59.9767 91.8584 60.2915C90.8635 60.8456 90.152 61.4249 89.7238 62.0294C89.2956 62.6339 89.0815 63.2951 89.0815 64.0129C89.0815 64.9197 89.3523 65.6753 89.8938 66.2798C90.4353 66.8717 91.0587 67.1676 91.764 67.1676C92.7211 67.1676 93.9805 66.5379 95.5421 65.2786ZM107.585 54.851C109.613 52.4079 111.546 51.1863 113.384 51.1863C114.329 51.1863 115.141 51.4256 115.821 51.9041C116.501 52.3701 117.043 53.1446 117.446 54.2277C117.723 54.9833 117.862 56.1419 117.862 57.7035V65.0897C117.862 66.1853 117.95 66.9283 118.126 67.3187C118.265 67.6336 118.485 67.8792 118.787 68.0555C119.102 68.2318 119.675 68.3199 120.506 68.3199V69H111.949V68.3199H112.308C113.114 68.3199 113.674 68.2003 113.989 67.961C114.316 67.7092 114.543 67.3439 114.669 66.8654C114.719 66.6765 114.745 66.0846 114.745 65.0897V58.0058C114.745 56.4315 114.537 55.2918 114.121 54.5866C113.718 53.8687 113.032 53.5098 112.062 53.5098C110.564 53.5098 109.071 54.3284 107.585 55.9656V65.0897C107.585 66.2609 107.654 66.985 107.793 67.2621C107.969 67.6273 108.208 67.8981 108.511 68.0744C108.826 68.2381 109.455 68.3199 110.4 68.3199V69H101.842V68.3199H102.22C103.102 68.3199 103.694 68.0996 103.996 67.6588C104.311 67.2054 104.468 66.349 104.468 65.0897V58.6669C104.468 56.589 104.418 55.3233 104.317 54.8699C104.229 54.4166 104.084 54.108 103.883 53.9443C103.694 53.7806 103.436 53.6987 103.108 53.6987C102.755 53.6987 102.334 53.7932 101.842 53.9821L101.559 53.302L106.773 51.1863H107.585V54.851ZM125.9 42.1378C126.429 42.1378 126.876 42.3267 127.241 42.7045C127.619 43.0697 127.808 43.5168 127.808 44.0457C127.808 44.5746 127.619 45.028 127.241 45.4058C126.876 45.7836 126.429 45.9725 125.9 45.9725C125.371 45.9725 124.917 45.7836 124.54 45.4058C124.162 45.028 123.973 44.5746 123.973 44.0457C123.973 43.5168 124.156 43.0697 124.521 42.7045C124.899 42.3267 125.358 42.1378 125.9 42.1378ZM127.468 51.1863V65.0897C127.468 66.1727 127.543 66.8969 127.694 67.2621C127.858 67.6147 128.091 67.8792 128.393 68.0555C128.708 68.2318 129.275 68.3199 130.093 68.3199V69H121.687V68.3199C122.531 68.3199 123.098 68.2381 123.387 68.0744C123.677 67.9107 123.904 67.6399 124.067 67.2621C124.244 66.8843 124.332 66.1601 124.332 65.0897V58.4213C124.332 56.5449 124.275 55.3296 124.162 54.7755C124.074 54.3725 123.935 54.0954 123.746 53.9443C123.557 53.7806 123.299 53.6987 122.972 53.6987C122.619 53.6987 122.191 53.7932 121.687 53.9821L121.423 53.302L126.637 51.1863H127.468Z" fill="white"/>
<path d="M152.847 61.9161L153.471 62.0483L151.279 69H131.445V68.3011H132.408C133.491 68.3011 134.265 67.9484 134.731 67.2432C134.996 66.8402 135.128 65.9083 135.128 64.4474V47.9182C135.128 46.3189 134.952 45.3177 134.599 44.9147C134.108 44.3605 133.378 44.0835 132.408 44.0835H131.445V43.3845H143.043V44.0835C141.683 44.0709 140.726 44.1968 140.172 44.4613C139.63 44.7258 139.259 45.0595 139.057 45.4625C138.856 45.8655 138.755 46.8289 138.755 48.3527V64.4474C138.755 65.4927 138.856 66.2105 139.057 66.6009C139.208 66.8654 139.441 67.0606 139.756 67.1865C140.071 67.3125 141.053 67.3754 142.703 67.3754H144.573C146.538 67.3754 147.917 67.2306 148.71 66.9409C149.504 66.6513 150.228 66.1412 150.883 65.4108C151.538 64.6678 152.193 63.5029 152.847 61.9161ZM159.544 42.1378C160.073 42.1378 160.52 42.3267 160.886 42.7045C161.263 43.0697 161.452 43.5168 161.452 44.0457C161.452 44.5746 161.263 45.028 160.886 45.4058C160.52 45.7836 160.073 45.9725 159.544 45.9725C159.016 45.9725 158.562 45.7836 158.184 45.4058C157.807 45.028 157.618 44.5746 157.618 44.0457C157.618 43.5168 157.8 43.0697 158.165 42.7045C158.543 42.3267 159.003 42.1378 159.544 42.1378ZM161.112 51.1863V65.0897C161.112 66.1727 161.188 66.8969 161.339 67.2621C161.503 67.6147 161.736 67.8792 162.038 68.0555C162.353 68.2318 162.92 68.3199 163.738 68.3199V69H155.332V68.3199C156.176 68.3199 156.742 68.2381 157.032 68.0744C157.322 67.9107 157.548 67.6399 157.712 67.2621C157.888 66.8843 157.977 66.1601 157.977 65.0897V58.4213C157.977 56.5449 157.92 55.3296 157.807 54.7755C157.718 54.3725 157.58 54.0954 157.391 53.9443C157.202 53.7806 156.944 53.6987 156.616 53.6987C156.264 53.6987 155.836 53.7932 155.332 53.9821L155.067 53.302L160.281 51.1863H161.112ZM170.567 54.851C172.595 52.4079 174.528 51.1863 176.367 51.1863C177.311 51.1863 178.124 51.4256 178.804 51.9041C179.484 52.3701 180.025 53.1446 180.428 54.2277C180.705 54.9833 180.844 56.1419 180.844 57.7035V65.0897C180.844 66.1853 180.932 66.9283 181.108 67.3187C181.247 67.6336 181.467 67.8792 181.769 68.0555C182.084 68.2318 182.657 68.3199 183.488 68.3199V69H174.931V68.3199H175.29C176.096 68.3199 176.656 68.2003 176.971 67.961C177.299 67.7092 177.525 67.3439 177.651 66.8654C177.702 66.6765 177.727 66.0846 177.727 65.0897V58.0058C177.727 56.4315 177.519 55.2918 177.104 54.5866C176.701 53.8687 176.014 53.5098 175.044 53.5098C173.546 53.5098 172.053 54.3284 170.567 55.9656V65.0897C170.567 66.2609 170.637 66.985 170.775 67.2621C170.952 67.6273 171.191 67.8981 171.493 68.0744C171.808 68.2381 172.438 68.3199 173.382 68.3199V69H164.825V68.3199H165.203C166.084 68.3199 166.676 68.0996 166.978 67.6588C167.293 67.2054 167.45 66.349 167.45 65.0897V58.6669C167.45 56.589 167.4 55.3233 167.299 54.8699C167.211 54.4166 167.066 54.108 166.865 53.9443C166.676 53.7806 166.418 53.6987 166.09 53.6987C165.738 53.6987 165.316 53.7932 164.825 53.9821L164.541 53.302L169.755 51.1863H170.567V54.851ZM189.6 42.1378V59.347L194.001 55.3422C194.933 54.4858 195.475 53.9443 195.626 53.7176C195.727 53.5665 195.777 53.4154 195.777 53.2642C195.777 53.0124 195.67 52.7983 195.456 52.622C195.254 52.4331 194.914 52.326 194.436 52.3008V51.6963H201.954V52.3008C200.922 52.326 200.059 52.4834 199.366 52.7731C198.686 53.0628 197.937 53.5791 197.118 54.3221L192.679 58.4213L197.118 64.0318C198.353 65.5808 199.184 66.5631 199.612 66.9787C200.216 67.5706 200.745 67.9547 201.199 68.131C201.514 68.257 202.061 68.3199 202.842 68.3199V69H194.436V68.3199C194.914 68.3073 195.236 68.2381 195.399 68.1121C195.576 67.9736 195.664 67.7847 195.664 67.5454C195.664 67.2558 195.412 66.7898 194.908 66.1475L189.6 59.3659V65.1086C189.6 66.2294 189.675 66.9661 189.827 67.3187C189.99 67.6714 190.217 67.9232 190.507 68.0744C190.796 68.2255 191.426 68.3073 192.396 68.3199V69H183.593V68.3199C184.474 68.3199 185.135 68.2129 185.576 67.9988C185.841 67.8603 186.042 67.6462 186.181 67.3565C186.37 66.9409 186.464 66.2231 186.464 65.203V49.4484C186.464 47.446 186.42 46.2244 186.332 45.7836C186.244 45.3303 186.099 45.0217 185.897 44.858C185.696 44.6817 185.431 44.5935 185.104 44.5935C184.84 44.5935 184.443 44.7006 183.914 44.9147L183.593 44.2535L188.731 42.1378H189.6Z" fill="#FF0000"/>
<path d="M80.7618 86.7147V87.6477H79.5659V90H78.4818V87.6477H74.7103V86.8067L78.8432 80.9063H79.5659V86.7147H80.7618ZM78.4818 86.7147V82.2927L75.3542 86.7147H78.4818ZM81.3237 90V89.7569H81.6588C82.0355 89.7569 82.3027 89.6364 82.4604 89.3955C82.5568 89.251 82.605 88.9268 82.605 88.4231V82.6672C82.605 82.1109 82.5436 81.7627 82.421 81.6225C82.2501 81.4298 81.9961 81.3334 81.6588 81.3334H81.3237V81.0903H84.9507C86.2823 81.0903 87.2942 81.2414 87.9863 81.5436C88.6828 81.8459 89.2413 82.3496 89.6618 83.0549C90.0867 83.7601 90.2991 84.5749 90.2991 85.4991C90.2991 86.7388 89.9224 87.7748 89.169 88.607C88.3236 89.5357 87.0357 90 85.3055 90H81.3237ZM83.8665 89.3561C84.4228 89.4787 84.8893 89.5401 85.2661 89.5401C86.2823 89.5401 87.1255 89.1831 87.7957 88.4691C88.4659 87.755 88.801 86.787 88.801 85.5648C88.801 84.334 88.4659 83.3637 87.7957 82.6541C87.1255 81.9445 86.2648 81.5896 85.2135 81.5896C84.8192 81.5896 84.3703 81.6532 83.8665 81.7802V89.3561ZM92.116 86.2482C92.1116 87.1418 92.3285 87.8427 92.7665 88.3508C93.2046 88.8589 93.7193 89.113 94.3106 89.113C94.7048 89.113 95.0465 89.0057 95.3356 88.791C95.6291 88.572 95.8744 88.1997 96.0715 87.674L96.2752 87.8054C96.1832 88.4055 95.916 88.9531 95.4736 89.4481C95.0312 89.9387 94.4771 90.184 93.8112 90.184C93.0885 90.184 92.4686 89.9036 91.9518 89.3429C91.4393 88.7779 91.183 88.0201 91.183 87.0695C91.183 86.0401 91.4458 85.2385 91.9715 84.6647C92.5015 84.0865 93.1651 83.7974 93.9624 83.7974C94.6369 83.7974 95.1911 84.0208 95.6247 84.4676C96.0584 84.91 96.2752 85.5035 96.2752 86.2482H92.116ZM92.116 85.8671H94.902C94.8801 85.4816 94.8341 85.21 94.764 85.0523C94.6545 84.807 94.4902 84.6143 94.2712 84.4741C94.0565 84.334 93.831 84.2639 93.5944 84.2639C93.2308 84.2639 92.9045 84.4062 92.6154 84.691C92.3307 84.9713 92.1642 85.3634 92.116 85.8671ZM98.7032 85.0786C99.4084 84.2288 100.081 83.8039 100.72 83.8039C101.049 83.8039 101.331 83.8872 101.568 84.0536C101.804 84.2157 101.993 84.4851 102.133 84.8618C102.229 85.1246 102.278 85.5276 102.278 86.0708V88.6399C102.278 89.021 102.308 89.2794 102.37 89.4152C102.418 89.5247 102.494 89.6101 102.6 89.6715C102.709 89.7328 102.908 89.7635 103.197 89.7635V90H100.221V89.7635H100.346C100.626 89.7635 100.821 89.7218 100.931 89.6386C101.045 89.551 101.123 89.424 101.167 89.2575C101.185 89.1918 101.193 88.9859 101.193 88.6399V86.1759C101.193 85.6284 101.121 85.2319 100.977 84.9866C100.836 84.737 100.598 84.6121 100.26 84.6121C99.7391 84.6121 99.2201 84.8968 98.7032 85.4663V88.6399C98.7032 89.0473 98.7273 89.2991 98.7755 89.3955C98.8368 89.5225 98.92 89.6167 99.0251 89.678C99.1346 89.735 99.3537 89.7635 99.6822 89.7635V90H96.7057V89.7635H96.8371C97.1438 89.7635 97.3496 89.6868 97.4548 89.5335C97.5643 89.3758 97.619 89.0779 97.619 88.6399V86.4059C97.619 85.6831 97.6015 85.2429 97.5665 85.0852C97.5358 84.9275 97.4854 84.8202 97.4153 84.7632C97.3496 84.7063 97.2598 84.6778 97.1459 84.6778C97.0233 84.6778 96.8766 84.7107 96.7057 84.7764L96.6072 84.5398L98.4206 83.8039H98.7032V85.0786ZM105.29 82.0036V83.9813H106.696V84.4413H105.29V88.3442C105.29 88.7341 105.345 88.9969 105.455 89.1327C105.568 89.2685 105.713 89.3364 105.888 89.3364C106.033 89.3364 106.173 89.2926 106.309 89.205C106.445 89.113 106.55 88.9794 106.624 88.8042H106.88C106.727 89.2334 106.51 89.5576 106.23 89.7766C105.95 89.9912 105.66 90.0986 105.363 90.0986C105.161 90.0986 104.964 90.0438 104.771 89.9343C104.579 89.8204 104.436 89.6605 104.344 89.4546C104.252 89.2444 104.206 88.9224 104.206 88.4888V84.4413H103.253V84.2244C103.494 84.1281 103.74 83.966 103.989 83.7382C104.243 83.5061 104.469 83.2323 104.666 82.9169C104.767 82.7504 104.907 82.446 105.087 82.0036H105.29ZM110.563 89.1327C109.946 89.6101 109.558 89.8861 109.4 89.9606C109.164 90.0701 108.912 90.1248 108.645 90.1248C108.229 90.1248 107.885 89.9825 107.613 89.6978C107.346 89.413 107.212 89.0385 107.212 88.5742C107.212 88.2807 107.278 88.0266 107.409 87.812C107.589 87.5141 107.9 87.2338 108.343 86.971C108.789 86.7081 109.53 86.3884 110.563 86.0116V85.7751C110.563 85.175 110.467 84.7632 110.274 84.5398C110.086 84.3164 109.81 84.2047 109.446 84.2047C109.17 84.2047 108.951 84.2792 108.789 84.4281C108.623 84.5771 108.54 84.7479 108.54 84.9406L108.553 85.3217C108.553 85.5232 108.5 85.6787 108.395 85.7882C108.294 85.8978 108.161 85.9525 107.994 85.9525C107.832 85.9525 107.699 85.8956 107.593 85.7817C107.493 85.6678 107.442 85.5123 107.442 85.3152C107.442 84.9385 107.635 84.5924 108.021 84.277C108.406 83.9616 108.947 83.8039 109.643 83.8039C110.178 83.8039 110.616 83.8937 110.958 84.0733C111.216 84.2091 111.407 84.4216 111.529 84.7107C111.608 84.899 111.648 85.2845 111.648 85.8671V87.9106C111.648 88.4844 111.658 88.837 111.68 88.9684C111.702 89.0954 111.737 89.1809 111.785 89.2247C111.838 89.2685 111.897 89.2904 111.963 89.2904C112.033 89.2904 112.094 89.275 112.147 89.2444C112.239 89.1874 112.416 89.0276 112.679 88.7647V89.1327C112.188 89.7897 111.72 90.1183 111.273 90.1183C111.058 90.1183 110.888 90.0438 110.76 89.8949C110.633 89.7459 110.568 89.4919 110.563 89.1327ZM110.563 88.7056V86.4125C109.902 86.6753 109.475 86.8614 109.282 86.971C108.936 87.1637 108.689 87.3652 108.54 87.5755C108.391 87.7857 108.316 88.0157 108.316 88.2654C108.316 88.5808 108.41 88.8436 108.599 89.0538C108.787 89.2597 109.004 89.3627 109.249 89.3627C109.582 89.3627 110.02 89.1436 110.563 88.7056ZM115.068 80.6566V88.6399C115.068 89.0166 115.094 89.2663 115.146 89.3889C115.203 89.5116 115.289 89.6058 115.403 89.6715C115.517 89.7328 115.729 89.7635 116.04 89.7635V90H113.09V89.7635C113.366 89.7635 113.554 89.735 113.655 89.678C113.756 89.6211 113.835 89.5269 113.892 89.3955C113.948 89.2641 113.977 89.0122 113.977 88.6399V83.1732C113.977 82.4942 113.962 82.0781 113.931 81.9247C113.9 81.767 113.85 81.6597 113.78 81.6028C113.714 81.5458 113.629 81.5174 113.524 81.5174C113.41 81.5174 113.265 81.5524 113.09 81.6225L112.978 81.3925L114.772 80.6566H115.068ZM126.954 81.0903L127.053 83.1797H126.803C126.755 82.8118 126.689 82.5489 126.606 82.3913C126.47 82.1372 126.288 81.951 126.061 81.8328C125.837 81.7101 125.541 81.6488 125.173 81.6488H123.918V88.4559C123.918 89.0035 123.978 89.3451 124.096 89.4809C124.262 89.6649 124.519 89.7569 124.865 89.7569H125.173V90H121.395V89.7569H121.711C122.087 89.7569 122.355 89.643 122.512 89.4152C122.609 89.275 122.657 88.9553 122.657 88.4559V81.6488H121.586C121.17 81.6488 120.874 81.6794 120.699 81.7408C120.471 81.824 120.276 81.9839 120.114 82.2204C119.952 82.457 119.856 82.7767 119.825 83.1797H119.575L119.68 81.0903H126.954ZM127.746 86.2482C127.742 87.1418 127.958 87.8427 128.396 88.3508C128.835 88.8589 129.349 89.113 129.941 89.113C130.335 89.113 130.676 89.0057 130.966 88.791C131.259 88.572 131.504 88.1997 131.701 87.674L131.905 87.8054C131.813 88.4055 131.546 88.9531 131.104 89.4481C130.661 89.9387 130.107 90.184 129.441 90.184C128.718 90.184 128.099 89.9036 127.582 89.3429C127.069 88.7779 126.813 88.0201 126.813 87.0695C126.813 86.0401 127.076 85.2385 127.601 84.6647C128.131 84.0865 128.795 83.7974 129.592 83.7974C130.267 83.7974 130.821 84.0208 131.255 84.4676C131.688 84.91 131.905 85.5035 131.905 86.2482H127.746ZM127.746 85.8671H130.532C130.51 85.4816 130.464 85.21 130.394 85.0523C130.284 84.807 130.12 84.6143 129.901 84.4741C129.687 84.334 129.461 84.2639 129.224 84.2639C128.861 84.2639 128.534 84.4062 128.245 84.691C127.961 84.9713 127.794 85.3634 127.746 85.8671ZM137.691 87.7134C137.529 88.5063 137.211 89.1174 136.738 89.5466C136.265 89.9715 135.741 90.184 135.168 90.184C134.484 90.184 133.889 89.8971 133.38 89.3232C132.872 88.7494 132.618 87.9741 132.618 86.9972C132.618 86.0511 132.899 85.2823 133.459 84.691C134.024 84.0996 134.701 83.8039 135.49 83.8039C136.081 83.8039 136.567 83.9616 136.948 84.277C137.329 84.588 137.52 84.9122 137.52 85.2495C137.52 85.4159 137.465 85.5517 137.356 85.6568C137.25 85.7576 137.102 85.808 136.909 85.808C136.65 85.808 136.455 85.7247 136.324 85.5583C136.25 85.4663 136.199 85.2911 136.173 85.0326C136.151 84.7742 136.063 84.5771 135.91 84.4413C135.757 84.3099 135.544 84.2442 135.273 84.2442C134.835 84.2442 134.482 84.4062 134.215 84.7304C133.86 85.1597 133.683 85.7269 133.683 86.4322C133.683 87.1506 133.858 87.7857 134.208 88.3376C134.563 88.8852 135.041 89.159 135.641 89.159C136.07 89.159 136.455 89.0122 136.797 88.7187C137.038 88.5172 137.272 88.1515 137.5 87.6214L137.691 87.7134ZM140.191 80.6566V85.0589C140.677 84.5245 141.063 84.1828 141.347 84.0339C141.632 83.8806 141.917 83.8039 142.202 83.8039C142.543 83.8039 142.837 83.8981 143.082 84.0865C143.327 84.2748 143.509 84.5705 143.627 84.9735C143.711 85.2538 143.752 85.7663 143.752 86.511V88.6399C143.752 89.021 143.783 89.2816 143.844 89.4218C143.888 89.5269 143.962 89.6101 144.068 89.6715C144.173 89.7328 144.365 89.7635 144.646 89.7635V90H141.689V89.7635H141.827C142.107 89.7635 142.302 89.7218 142.412 89.6386C142.521 89.551 142.598 89.424 142.642 89.2575C142.655 89.1874 142.662 88.9816 142.662 88.6399V86.511C142.662 85.854 142.626 85.4225 142.556 85.2166C142.491 85.0107 142.383 84.8574 142.234 84.7567C142.085 84.6515 141.906 84.599 141.696 84.599C141.481 84.599 141.258 84.6559 141.025 84.7698C140.793 84.8837 140.515 85.1137 140.191 85.4597V88.6399C140.191 89.0516 140.213 89.3079 140.257 89.4086C140.305 89.5094 140.39 89.5948 140.513 89.6649C140.64 89.7306 140.857 89.7635 141.163 89.7635V90H138.18V89.7635C138.448 89.7635 138.658 89.7218 138.811 89.6386C138.899 89.5948 138.969 89.5116 139.021 89.3889C139.074 89.2663 139.1 89.0166 139.1 88.6399V83.1929C139.1 82.5051 139.083 82.0824 139.048 81.9247C139.017 81.767 138.967 81.6597 138.897 81.6028C138.831 81.5458 138.741 81.5174 138.627 81.5174C138.535 81.5174 138.386 81.5524 138.18 81.6225L138.088 81.3925L139.889 80.6566H140.191ZM146.772 85.0786C147.477 84.2288 148.149 83.8039 148.789 83.8039C149.117 83.8039 149.4 83.8872 149.636 84.0536C149.873 84.2157 150.061 84.4851 150.201 84.8618C150.298 85.1246 150.346 85.5276 150.346 86.0708V88.6399C150.346 89.021 150.377 89.2794 150.438 89.4152C150.486 89.5247 150.563 89.6101 150.668 89.6715C150.777 89.7328 150.977 89.7635 151.266 89.7635V90H148.289V89.7635H148.414C148.695 89.7635 148.889 89.7218 148.999 89.6386C149.113 89.551 149.192 89.424 149.236 89.2575C149.253 89.1918 149.262 88.9859 149.262 88.6399V86.1759C149.262 85.6284 149.19 85.2319 149.045 84.9866C148.905 84.737 148.666 84.6121 148.329 84.6121C147.808 84.6121 147.288 84.8968 146.772 85.4663V88.6399C146.772 89.0473 146.796 89.2991 146.844 89.3955C146.905 89.5225 146.988 89.6167 147.094 89.678C147.203 89.735 147.422 89.7635 147.751 89.7635V90H144.774V89.7635H144.905C145.212 89.7635 145.418 89.6868 145.523 89.5335C145.633 89.3758 145.687 89.0779 145.687 88.6399V86.4059C145.687 85.6831 145.67 85.2429 145.635 85.0852C145.604 84.9275 145.554 84.8202 145.484 84.7632C145.418 84.7063 145.328 84.6778 145.214 84.6778C145.092 84.6778 144.945 84.7107 144.774 84.7764L144.676 84.5398L146.489 83.8039H146.772V85.0786ZM154.555 83.8039C155.466 83.8039 156.197 84.15 156.749 84.8421C157.218 85.4334 157.452 86.1124 157.452 86.879C157.452 87.4178 157.323 87.9631 157.065 88.515C156.806 89.067 156.449 89.4831 155.994 89.7635C155.542 90.0438 155.039 90.184 154.482 90.184C153.576 90.184 152.855 89.8226 152.321 89.0998C151.869 88.491 151.644 87.8076 151.644 87.0498C151.644 86.4979 151.78 85.9503 152.051 85.4072C152.327 84.8596 152.688 84.4566 153.135 84.1982C153.582 83.9353 154.055 83.8039 154.555 83.8039ZM154.351 84.231C154.119 84.231 153.884 84.3011 153.648 84.4413C153.416 84.5771 153.227 84.818 153.083 85.164C152.938 85.5101 152.866 85.9547 152.866 86.4979C152.866 87.374 153.039 88.1296 153.385 88.7647C153.735 89.3999 154.195 89.7175 154.765 89.7175C155.19 89.7175 155.54 89.5422 155.816 89.1918C156.092 88.8414 156.23 88.2391 156.23 87.3849C156.23 86.3161 156 85.4751 155.54 84.8618C155.229 84.4413 154.833 84.231 154.351 84.231ZM160.274 80.6566V88.6399C160.274 89.0166 160.301 89.2663 160.353 89.3889C160.41 89.5116 160.496 89.6058 160.609 89.6715C160.723 89.7328 160.936 89.7635 161.247 89.7635V90H158.297V89.7635C158.573 89.7635 158.761 89.735 158.862 89.678C158.962 89.6211 159.041 89.5269 159.098 89.3955C159.155 89.2641 159.184 89.0122 159.184 88.6399V83.1732C159.184 82.4942 159.168 82.0781 159.138 81.9247C159.107 81.767 159.057 81.6597 158.987 81.6028C158.921 81.5458 158.835 81.5174 158.73 81.5174C158.616 81.5174 158.472 81.5524 158.297 81.6225L158.185 81.3925L159.979 80.6566H160.274ZM164.759 83.8039C165.67 83.8039 166.402 84.15 166.954 84.8421C167.422 85.4334 167.657 86.1124 167.657 86.879C167.657 87.4178 167.527 87.9631 167.269 88.515C167.01 89.067 166.653 89.4831 166.198 89.7635C165.747 90.0438 165.243 90.184 164.687 90.184C163.78 90.184 163.059 89.8226 162.525 89.0998C162.074 88.491 161.848 87.8076 161.848 87.0498C161.848 86.4979 161.984 85.9503 162.256 85.4072C162.532 84.8596 162.893 84.4566 163.34 84.1982C163.786 83.9353 164.26 83.8039 164.759 83.8039ZM164.555 84.231C164.323 84.231 164.089 84.3011 163.852 84.4413C163.62 84.5771 163.432 84.818 163.287 85.164C163.143 85.5101 163.07 85.9547 163.07 86.4979C163.07 87.374 163.243 88.1296 163.589 88.7647C163.94 89.3999 164.4 89.7175 164.969 89.7175C165.394 89.7175 165.745 89.5422 166.02 89.1918C166.296 88.8414 166.434 88.2391 166.434 87.3849C166.434 86.3161 166.204 85.4751 165.745 84.8618C165.434 84.4413 165.037 84.231 164.555 84.231ZM170.019 87.8054C169.651 87.6258 169.368 87.3761 169.171 87.0564C168.974 86.7322 168.876 86.3752 168.876 85.9854C168.876 85.3896 169.099 84.8771 169.546 84.4478C169.997 84.0186 170.573 83.8039 171.274 83.8039C171.848 83.8039 172.345 83.9441 172.765 84.2244H174.04C174.228 84.2244 174.338 84.231 174.369 84.2442C174.399 84.2529 174.421 84.2704 174.434 84.2967C174.461 84.3361 174.474 84.4062 174.474 84.507C174.474 84.6209 174.463 84.6997 174.441 84.7435C174.428 84.7654 174.404 84.7829 174.369 84.7961C174.338 84.8092 174.228 84.8158 174.04 84.8158H173.258C173.503 85.1312 173.626 85.5342 173.626 86.0248C173.626 86.5855 173.411 87.0651 172.982 87.4638C172.553 87.8624 171.977 88.0617 171.254 88.0617C170.956 88.0617 170.652 88.0179 170.341 87.9303C170.148 88.0967 170.017 88.2435 169.947 88.3705C169.881 88.4931 169.848 88.5983 169.848 88.6859C169.848 88.7603 169.883 88.8326 169.953 88.9027C170.028 88.9728 170.17 89.0232 170.38 89.0538C170.503 89.0714 170.809 89.0867 171.3 89.0998C172.202 89.1217 172.787 89.1524 173.054 89.1918C173.462 89.2488 173.786 89.3999 174.027 89.6452C174.272 89.8905 174.395 90.1927 174.395 90.5519C174.395 91.0469 174.163 91.5112 173.698 91.9449C173.015 92.5844 172.124 92.9042 171.024 92.9042C170.179 92.9042 169.465 92.7137 168.882 92.3326C168.554 92.1135 168.389 91.8858 168.389 91.6492C168.389 91.5441 168.413 91.439 168.462 91.3338C168.536 91.1718 168.689 90.9462 168.922 90.6571C168.952 90.6176 169.176 90.3811 169.592 89.9474C169.364 89.8116 169.202 89.6912 169.106 89.5861C169.014 89.4765 168.968 89.3539 168.968 89.2181C168.968 89.0648 169.029 88.8852 169.152 88.6793C169.279 88.4734 169.568 88.1821 170.019 87.8054ZM171.162 84.1193C170.838 84.1193 170.566 84.2485 170.347 84.507C170.128 84.7654 170.019 85.1619 170.019 85.6963C170.019 86.3884 170.168 86.925 170.466 87.3061C170.693 87.5952 170.983 87.7397 171.333 87.7397C171.666 87.7397 171.94 87.6149 172.154 87.3652C172.369 87.1155 172.476 86.7235 172.476 86.1891C172.476 85.4926 172.325 84.9472 172.023 84.553C171.799 84.2639 171.513 84.1193 171.162 84.1193ZM169.953 90C169.747 90.2234 169.592 90.4315 169.487 90.6242C169.381 90.8169 169.329 90.9943 169.329 91.1564C169.329 91.3667 169.456 91.5507 169.71 91.7084C170.148 91.9799 170.781 92.1157 171.609 92.1157C172.397 92.1157 172.978 91.9756 173.35 91.6952C173.727 91.4192 173.915 91.1236 173.915 90.8082C173.915 90.5804 173.803 90.4183 173.58 90.322C173.352 90.2256 172.901 90.1686 172.227 90.1511C171.241 90.1248 170.483 90.0745 169.953 90ZM174.661 83.9813H177.467V84.2244H177.329C177.132 84.2244 176.983 84.2683 176.882 84.3559C176.786 84.4391 176.737 84.5442 176.737 84.6712C176.737 84.8421 176.81 85.0786 176.954 85.3809L178.419 88.4165L179.766 85.0918C179.841 84.9122 179.878 84.7348 179.878 84.5595C179.878 84.4807 179.863 84.4216 179.832 84.3821C179.797 84.334 179.742 84.2967 179.668 84.2704C179.593 84.2398 179.462 84.2244 179.274 84.2244V83.9813H181.232V84.2244C181.07 84.242 180.945 84.277 180.857 84.3296C180.77 84.3821 180.673 84.4807 180.568 84.6253C180.529 84.6866 180.454 84.8552 180.345 85.1312L177.894 91.1367C177.657 91.7193 177.346 92.1595 176.961 92.4574C176.58 92.7553 176.212 92.9042 175.857 92.9042C175.598 92.9042 175.386 92.8297 175.22 92.6808C175.053 92.5319 174.97 92.361 174.97 92.1683C174.97 91.9843 175.029 91.8354 175.147 91.7215C175.27 91.612 175.436 91.5572 175.647 91.5572C175.791 91.5572 175.988 91.6054 176.238 91.7018C176.413 91.7675 176.523 91.8003 176.567 91.8003C176.698 91.8003 176.84 91.7324 176.994 91.5967C177.151 91.4609 177.309 91.198 177.467 90.8082L177.894 89.7635L175.732 85.2232C175.666 85.0874 175.561 84.9187 175.417 84.7172C175.307 84.5639 175.217 84.461 175.147 84.4084C175.047 84.3383 174.884 84.277 174.661 84.2244V83.9813Z" fill="#00B0F0"/>
</svg>
