<svg width="286" height="309" viewBox="0 0 286 309" fill="none" xmlns="http://www.w3.org/2000/svg">
<path d="M127.793 16.6024C127.215 17.5418 126.565 20.7216 126.276 23.7569L125.842 29.2492L121.434 31.345C118.977 32.5013 115.725 34.308 114.207 35.392C112.689 36.5483 111.172 37.4155 110.81 37.4155C110.521 37.4155 107.992 36.4038 105.318 35.1752C97.8022 31.7786 97.8022 31.7786 90.7922 43.8474C87.1788 49.9901 84.7217 54.9766 84.7217 56.2052C84.7217 57.795 85.5889 58.8068 89.7082 61.6975L94.6946 65.1664L94.6224 73.9831V82.7997L89.7082 86.4854C85.9502 89.2316 84.7217 90.6047 84.7217 91.9055C84.7217 94.1458 95.9955 113.803 97.8022 114.742C98.8862 115.32 100.476 114.959 105.173 112.935L111.172 110.334L115.941 113.586C118.615 115.32 121.867 117.127 123.24 117.561L125.698 118.428L126.493 125.004C126.998 129.991 127.504 131.87 128.516 132.592C129.455 133.243 133.069 133.532 141.958 133.532C156.845 133.532 156.556 133.676 157.351 124.643L157.857 118.428L160.386 117.561C161.759 117.127 165.011 115.32 167.685 113.586L172.455 110.334L178.525 112.935C184.018 115.32 184.668 115.465 186.114 114.525C186.981 113.947 190.45 108.672 193.774 102.818C198.544 94.5071 199.7 91.9055 199.122 90.966C198.76 90.3156 196.376 88.2198 193.774 86.2686L189.149 82.7275L189.076 74.0553V65.4554L193.774 61.842C196.376 59.8908 198.76 57.6505 199.049 56.9278C199.555 55.4825 198.688 53.748 191.534 41.3902C186.186 32.0677 185.68 31.8509 178.309 35.1752C175.635 36.4038 173.105 37.4155 172.744 37.4155C172.455 37.4155 170.576 36.3315 168.697 35.0307C166.818 33.8021 163.566 31.9231 161.542 30.9837L157.857 29.3215L157.351 23.8291C156.484 14.2898 157.712 15.0125 142.175 15.0125C129.094 15.0125 128.805 15.0125 127.793 16.6024ZM150.052 23.1065C150.269 24.046 150.63 26.8644 150.991 29.466L151.569 34.1635L158.146 37.4155C161.759 39.2222 166.023 41.7516 167.613 42.9801C169.275 44.281 171.082 45.365 171.732 45.365C172.383 45.365 175.057 44.4255 177.658 43.1969C180.332 42.0406 182.717 41.2457 183.006 41.3902C183.801 41.8961 191.172 54.7598 190.883 55.0489C190.739 55.1934 188.715 56.6388 186.403 58.3732C184.09 60.1076 181.922 61.9866 181.561 62.637C181.272 63.2874 181.272 65.5277 181.705 67.768C182.428 71.5982 182.067 80.7762 181.127 83.1611C180.693 84.4619 183.006 87.0635 188.282 91.2551L191.028 93.4231L187.27 99.9272C185.174 103.468 183.367 106.576 183.223 106.72C183.078 106.937 180.404 105.998 177.225 104.697C171.732 102.384 171.371 102.312 169.781 103.468C164.505 107.371 159.374 110.478 156.411 111.562C154.532 112.285 152.653 113.08 152.148 113.441C151.714 113.803 151.136 116.26 150.847 118.934C150.052 126.883 150.775 126.305 141.813 126.305H133.936L133.575 123.92C133.358 122.692 132.997 119.873 132.635 117.705C132.274 115.465 131.624 113.586 130.973 113.225C130.395 112.935 127.721 111.635 125.047 110.406C122.373 109.178 118.615 106.937 116.592 105.347C114.568 103.757 112.617 102.457 112.256 102.457C111.894 102.457 109.293 103.396 106.547 104.625C103.728 105.781 101.271 106.793 101.054 106.793C100.621 106.793 98.3803 103.324 94.9115 97.2533L92.5989 93.134L97.2963 89.6652C99.8979 87.7862 102.138 85.7627 102.427 85.1846C102.644 84.6787 102.427 82.1493 101.994 79.5477C101.271 75.2839 101.416 71.5259 102.5 65.0941C102.861 63.0706 102.572 62.5647 99.103 59.8186C97.0072 58.2287 94.6946 56.422 93.972 55.9161C92.6711 54.9766 92.7434 54.6153 96.3568 48.328C98.4526 44.6423 100.404 41.5348 100.693 41.3902C100.982 41.1734 103.367 41.9684 106.041 43.1969C108.715 44.3532 111.389 45.365 111.967 45.365C112.545 45.365 114.352 44.281 116.014 42.9801C117.604 41.7516 121.867 39.2222 125.481 37.4155L132.057 34.1635L132.635 30.1887C132.997 28.0207 133.358 25.13 133.575 23.8291L133.936 21.5166H141.813C149.474 21.5166 149.763 21.5888 150.052 23.1065Z" fill="url(#paint0_linear_230_8701)"/>
<path d="M132.997 57.1447C122.518 62.5648 119.483 74.9949 126.204 84.9679C129.6 90.0266 134.298 92.6283 140.729 92.9173C146.655 93.2787 150.63 91.9056 154.894 88.1477C161.181 82.6553 162.916 72.4655 158.796 64.9497C155.328 58.5178 149.185 54.9044 141.669 54.8322C138.417 54.7599 136.682 55.2658 132.997 57.1447ZM147.595 63.3598C154.677 67.1177 156.195 76.368 150.63 82.1494C145.644 87.3527 138.345 87.5695 133.43 82.6553C125.698 74.9226 130.901 61.9867 141.814 61.9867C143.62 61.9867 146.222 62.5648 147.595 63.3598Z" fill="url(#paint1_linear_230_8701)"/>
<path d="M54.7307 51.8691C41.0721 54.0372 30.0151 65.0219 27.6303 78.6805C27.0521 81.9326 26.9076 112.068 27.0521 180.506L27.2689 277.706L28.8588 281.826C32.0386 290.209 38.2537 296.857 46.2754 300.687L51.1173 303H141.814H232.51L237.424 300.687C242.916 298.086 249.42 292.304 252.239 287.535C253.251 285.8 254.696 282.259 255.419 279.585C256.647 275.105 256.719 269.612 256.719 177.615C256.719 92.556 256.575 79.8368 255.635 76.0789C252.817 65.311 245.012 56.9279 234.389 53.17C229.474 51.4355 211.697 50.4238 209.239 51.7246C207.288 52.8086 206.782 55.0489 208.083 56.8556C209.023 58.2287 209.818 58.3732 217.55 58.3732C227.812 58.3732 233.232 59.6018 238.436 63.2152C243.133 66.395 247.614 72.8991 248.77 78.1024C249.348 80.7763 249.493 109.105 249.348 179.783L249.131 277.706L247.18 281.681C244.506 287.101 239.953 291.582 234.316 294.256L229.619 296.496H141.814H54.008L49.5274 294.4C44.2519 292.015 38.5427 286.306 36.0856 281.175L34.4957 277.706L34.2789 179.061C34.1344 88.798 34.2067 80.1259 35.2907 76.5847C36.8083 71.7428 40.2049 67.0454 44.3242 63.9379C49.8165 59.7463 52.8518 58.9514 64.7037 58.4455C73.0868 58.0842 75.5439 57.7951 76.0498 56.9279C76.9892 55.4103 76.917 54.543 75.7607 52.8809C74.8212 51.6523 73.7372 51.5078 66.5104 51.3633C62.0298 51.291 56.7542 51.5078 54.7307 51.8691Z" fill="url(#paint2_linear_230_8701)"/>
<path d="M58.1275 140.903C57.4771 141.554 57.2603 145.89 57.2603 156.079C57.2603 169.449 57.3325 170.388 58.6333 171.111C59.5006 171.545 65.5711 171.834 73.4483 171.834C84.5775 171.834 86.9624 171.617 87.9018 170.678C88.8413 169.738 89.0581 167.353 89.0581 155.646C89.0581 145.817 88.8413 141.554 88.1909 140.903C86.9624 139.675 59.356 139.675 58.1275 140.903ZM81.9759 154.417C82.1204 158.753 82.1204 162.8 81.9759 163.451C81.7591 164.462 80.4582 164.607 72.8701 164.607H64.0534L64.198 162.584C64.2702 161.499 64.3425 157.452 64.4148 153.55L64.487 146.54H73.0869H81.7591L81.9759 154.417Z" fill="url(#paint3_linear_230_8701)"/>
<path d="M100.115 145.095C98.1638 145.89 97.3688 148.202 98.4529 150.153C99.2478 151.599 99.6091 151.599 162.627 151.599C211.046 151.599 226.295 151.382 226.945 150.732C228.174 149.503 228.029 146.829 226.728 145.601C225.789 144.661 217.478 144.517 163.711 144.444C129.6 144.444 100.982 144.733 100.115 145.095Z" fill="url(#paint4_linear_230_8701)"/>
<path d="M98.8865 161.138C97.3688 163.234 97.4411 164.101 99.031 165.546C100.26 166.703 105.029 166.775 152.798 166.775C202.663 166.775 205.265 166.703 206.349 165.474C207.939 163.74 207.866 162.222 206.277 160.777C205.048 159.62 200.278 159.548 152.437 159.548H99.9705L98.8865 161.138Z" fill="url(#paint5_linear_230_8701)"/>
<path d="M58.4165 190.334C57.4771 191.274 57.2603 193.659 57.2603 205.438C57.2603 219.097 57.3325 219.458 58.8501 220.542C60.151 221.482 62.8249 221.699 73.1592 221.699C83.4935 221.699 86.1674 221.482 87.4682 220.542C88.9859 219.458 89.0581 219.097 89.0581 205.511C89.0581 192.936 88.9136 191.418 87.7573 190.407C85.8061 188.6 60.151 188.6 58.4165 190.334ZM81.8313 205.438V214.472H73.2315H64.5593L64.3425 205.727C64.198 200.958 64.2702 196.838 64.4148 196.694C64.5593 196.549 68.6063 196.405 73.3037 196.405H81.8313V205.438Z" fill="url(#paint6_linear_230_8701)"/>
<path d="M99.32 195.393C97.3688 196.694 97.2965 198.645 99.0309 200.235C100.26 201.391 105.752 201.464 163.205 201.464C211.118 201.464 226.295 201.247 226.945 200.596C228.318 199.223 228.029 195.827 226.439 194.96C225.5 194.454 204.325 194.237 162.988 194.237C107.992 194.237 100.765 194.381 99.32 195.393Z" fill="url(#paint7_linear_230_8701)"/>
<path d="M98.8864 210.569C97.3687 212.087 97.441 213.46 99.1754 215.195C100.621 216.64 101.56 216.64 152.509 216.64C198.255 216.64 204.542 216.495 205.987 215.484C207.866 214.183 208.011 212.159 206.421 210.569C205.409 209.558 199.556 209.413 152.654 209.413C105.752 209.413 99.8981 209.558 98.8864 210.569Z" fill="url(#paint8_linear_230_8701)"/>
<path d="M58.1275 239.91C56.8989 241.139 56.8989 268.745 58.1275 269.974C59.356 271.202 86.9624 271.202 88.1909 269.974C88.8413 269.323 89.0581 265.059 89.0581 255.231C89.0581 243.524 88.8413 241.139 87.9018 240.199C86.9624 239.26 84.5775 239.043 72.8701 239.043C63.0417 239.043 58.7779 239.26 58.1275 239.91ZM81.8313 255.303V264.337H73.1592H64.487V255.303V246.27H73.1592H81.8313V255.303Z" fill="url(#paint9_linear_230_8701)"/>
<path d="M98.9584 245.403C97.3686 247.137 97.4408 248.149 99.1753 249.883C100.621 251.329 101.56 251.329 162.843 251.329C204.325 251.329 225.499 251.112 226.439 250.606C228.029 249.739 228.318 246.342 226.945 244.969C226.294 244.319 211.118 244.102 163.132 244.102C103.005 244.102 100.042 244.174 98.9584 245.403Z" fill="url(#paint10_linear_230_8701)"/>
<path d="M98.3804 260.796C97.8022 261.952 97.8022 262.819 98.3804 264.048L99.1753 265.782H152.581H206.06L206.927 264.264C207.505 263.108 207.505 262.241 206.927 261.012L206.132 259.278H152.726H99.2476L98.3804 260.796Z" fill="url(#paint11_linear_230_8701)"/>
<rect x="19" y="3" width="63" height="63" rx="31.5" stroke="#0A0D23" stroke-width="6"/>
<path d="M20.9688 34.5C20.9688 40.3078 22.6422 45.7219 25.4969 50.25H75.4047C78.2594 45.7219 79.9328 40.3078 79.9328 34.5C79.9328 28.6922 78.2594 23.2781 75.4047 18.75H25.4969C22.6422 23.2781 20.9688 28.6922 20.9688 34.5Z" fill="#FFCE31"/>
<path d="M75.5033 18.75C70.2861 10.4813 61.033 4.96875 50.5002 4.96875C39.9674 4.96875 30.7143 10.4813 25.4971 18.75H75.5033ZM25.4971 50.25C30.7143 58.5187 39.9674 64.0312 50.5002 64.0312C61.033 64.0312 70.2861 58.5187 75.5033 50.25H25.4971Z" fill="#ED4C5C"/>
<path d="M28.0562 31.2516H31.2062V33.0235H28.0562V31.2516ZM28.0562 44.2453H31.3046V45.9188H28.0562V44.2453Z" fill="#FFCE31"/>
<path d="M27.7607 41.4891C27.4654 41.6859 27.2686 41.8828 27.2686 41.9813C27.2686 42.0797 27.367 42.1781 27.5639 42.2766C27.7607 42.375 27.9576 42.5719 27.8592 42.7688C28.0561 42.5719 28.1545 42.375 28.1545 42.1781C28.1545 41.8828 27.9576 41.5875 27.7607 41.4891Z" fill="#FFCE31"/>
<path d="M28.5483 33.0234H30.8124V44.2453H28.5483V33.0234Z" fill="#FFCE31"/>
<path d="M33.1749 37.1578C32.6827 36.9609 31.7968 36.7641 30.8124 36.7641C30.5171 36.7641 30.1233 36.7641 29.7296 36.8625C28.3514 37.0594 27.2686 37.65 27.3671 38.0437L26.8749 36.9609C26.7764 36.4687 27.9577 35.8781 29.4343 35.5828C29.9264 35.4844 30.4186 35.4844 30.8124 35.4844C31.7968 35.4844 32.6827 35.5828 33.1749 35.7797V37.1578Z" fill="#FFCE31"/>
<path d="M28.5481 38.6344C27.9575 38.6344 27.4653 38.4375 27.4653 38.1422C27.4653 37.9453 27.6622 37.65 28.056 37.4531H28.6466L28.5481 38.6344ZM30.8122 37.7484C31.206 37.8469 31.5013 37.9453 31.6981 38.0437C31.7966 38.1422 31.4028 38.5359 30.8122 38.8313V37.7484Z" fill="#FFCE31"/>
<path d="M27.0719 40.8C26.9734 40.6031 27.6625 40.2094 28.5484 39.9141C28.9422 39.8156 29.2375 39.6188 29.7297 39.4219C30.9109 38.9297 31.8953 38.2406 31.6984 38.0438L31.8953 39.225C31.9938 39.4219 31.2063 40.0125 30.025 40.6031C29.6313 40.8 28.9422 41.0953 28.5484 41.1938C27.8594 41.3906 27.2688 41.7844 27.2688 41.8828L27.0719 40.8Z" fill="#FFCE31"/>
<path d="M52.6657 41.4891C52.961 41.6859 53.1579 41.8828 53.1579 41.9813C53.1579 42.0797 53.0595 42.1781 52.8626 42.2766C52.6657 42.4735 52.4688 42.7688 52.5673 42.8672C52.3704 42.6703 52.272 42.4735 52.272 42.2766C52.272 41.8828 52.4688 41.5875 52.6657 41.4891Z" fill="#FFCE31"/>
<path d="M49.6143 33.0234H51.8783V44.2453H49.6143V33.0234Z" fill="#FFCE31"/>
<path d="M47.2515 37.1578C47.7437 36.9609 48.6296 36.7641 49.614 36.7641C49.9093 36.7641 50.303 36.7641 50.6968 36.8625C52.0749 37.0594 53.1577 37.65 53.0593 38.0437L53.5515 36.8625C53.6499 36.3703 52.4687 35.7797 50.9921 35.4844H49.614C48.6296 35.4844 47.7437 35.5828 47.2515 35.7797V37.1578Z" fill="#FFCE31"/>
<path d="M51.8785 38.6344C52.4691 38.6344 52.9613 38.4375 52.9613 38.1422C52.9613 37.9453 52.7644 37.65 52.3706 37.4531H51.78L51.8785 38.6344ZM49.6144 37.7484C49.2206 37.8469 48.9253 37.9453 48.7285 38.0437C48.63 38.1422 49.0238 38.5359 49.6144 38.8313V37.7484Z" fill="#FFCE31"/>
<path d="M53.3548 40.8C53.4532 40.6031 52.7642 40.2094 51.8782 39.914C51.4845 39.8156 51.1892 39.6187 50.697 39.4219C49.5157 38.9297 48.5313 38.2406 48.7282 38.0437L48.5313 39.225C48.4329 39.4218 49.2204 40.0125 50.4017 40.6031C50.7954 40.8 51.4845 41.0953 51.8782 41.1937C52.5673 41.3906 53.1579 41.8828 53.0595 41.9812L53.3548 40.8ZM40.1642 24.9515C42.0345 24.9515 45.8735 25.3453 47.2517 26.7234C45.7751 30.2672 43.4126 28.7906 40.1642 28.7906C37.0142 28.7906 34.5532 30.2672 33.0767 26.7234C34.4548 25.3453 38.1954 24.9515 40.1642 24.9515Z" fill="#FFCE31"/>
<path d="M44.9876 28.8891C43.8063 28.2 42.0345 28.1016 40.1642 28.1016C38.2938 28.1016 36.522 28.2984 35.3407 28.8891L35.7345 30.5625C36.8173 30.8578 38.3923 31.0547 40.1642 31.0547C41.936 31.0547 43.4126 30.8578 44.5938 30.5625L44.9876 28.8891ZM46.661 24.6562C46.2673 24.3609 45.4798 24.0656 44.7907 24.0656C44.4954 24.0656 44.2001 24.0656 43.9048 24.1641C43.9048 24.1641 43.3142 23.3766 41.936 23.3766C41.4438 23.3766 41.0501 23.475 40.6563 23.6719V23.5734C40.5579 23.3766 40.361 23.1797 40.1642 23.1797C39.9673 23.1797 39.672 23.475 39.672 23.6719V23.7703C39.2782 23.5734 38.8845 23.475 38.3923 23.475C37.0142 23.475 36.4235 24.3609 36.4235 24.2625C36.1282 24.1641 35.8329 24.1641 35.5376 24.1641C31.0095 24.1641 33.2735 27.2156 33.2735 27.2156L33.7657 26.625C32.6829 25.2469 33.6673 24.4594 35.636 24.4594C35.9313 24.4594 36.1282 24.4594 36.3251 24.5578C35.636 25.5422 36.9157 26.4281 36.9157 26.4281L37.211 25.9359C36.522 25.4437 36.4235 23.7703 38.3923 23.7703C38.8845 23.7703 39.2782 23.8687 39.672 24.1641C39.672 24.2625 39.5735 25.6406 39.4751 25.8375L40.2626 26.5266L41.0501 25.8375C40.9517 25.5422 40.8532 24.2625 40.8532 24.1641C41.1485 23.9672 41.6407 23.7703 42.1329 23.7703C44.2001 23.7703 44.2001 25.4437 43.3142 25.9359L43.6095 26.4281C43.6095 26.4281 44.6923 25.5422 44.2001 24.5578C44.397 24.5578 44.6923 24.4594 44.8892 24.4594C47.2517 24.4594 47.3501 26.2313 46.7595 26.625L47.1532 27.2156C46.9563 27.2156 48.0392 25.8375 46.661 24.6562Z" fill="#FFCE31"/>
<path d="M39.967 21.1125V21.4078H39.6717V21.7031H39.967V22.6875H39.5732V22.9828H40.7545L40.8529 22.7859L40.7545 22.6875H40.3607V21.7031H40.6561V21.4078H40.3607V21.1125H39.967Z" fill="#FFCE31"/>
<path d="M33.0767 31.1531H40.1642V39.0281H33.0767V31.1531Z" fill="#FFCE31"/>
<path d="M35.242 32.8266V33.3187H35.4389V33.7125H34.9467V34.6969H35.242V36.8625H34.6514V37.9453H38.6873V36.8625H38.1951V34.6969H38.392V33.7125H37.8998V33.3187H38.1951V32.8266H37.2107V33.3187H37.4076V33.7125H36.9154V32.5312H37.2107V32.0391H36.1279V32.5312H36.4232V33.7125H35.9311V33.3187H36.1279V32.8266H35.242ZM46.3654 44.9344V40.0125H41.2467V44.9344L43.6092 46.0172H43.9045L46.3654 44.9344ZM43.6092 40.4062V42.0797L41.9357 40.4062H43.6092ZM41.542 40.5047L43.5107 42.4734L41.542 44.4422V40.5047ZM41.7389 44.8359L43.6092 42.9656V45.7219L41.7389 44.8359ZM43.9045 45.6234V42.8672L45.7748 44.7375L43.9045 45.6234ZM45.9717 44.4422L44.0029 42.4734L45.9717 40.5047V44.4422ZM43.9045 40.4062H45.5779L43.9045 42.0797V40.4062Z" fill="#FFCE31"/>
<defs>
<linearGradient id="paint0_linear_230_8701" x1="141.99" y1="133.532" x2="141.99" y2="15" gradientUnits="userSpaceOnUse">
<stop stop-color="#7DF1FE"/>
<stop offset="0.0001" stop-color="#4973D2"/>
<stop offset="1" stop-color="#47D7FE"/>
</linearGradient>
<linearGradient id="paint1_linear_230_8701" x1="141.831" y1="92.9731" x2="141.831" y2="54.8256" gradientUnits="userSpaceOnUse">
<stop stop-color="#7DF1FE"/>
<stop offset="0.0001" stop-color="#4973D2"/>
<stop offset="1" stop-color="#47D7FE"/>
</linearGradient>
<linearGradient id="paint2_linear_230_8701" x1="141.86" y1="303" x2="141.86" y2="51.134" gradientUnits="userSpaceOnUse">
<stop stop-color="#7DF1FE"/>
<stop offset="0.0001" stop-color="#4973D2"/>
<stop offset="1" stop-color="#47D7FE"/>
</linearGradient>
<linearGradient id="paint3_linear_230_8701" x1="73.1592" y1="171.834" x2="73.1592" y2="139.982" gradientUnits="userSpaceOnUse">
<stop stop-color="#7DF1FE"/>
<stop offset="0.0001" stop-color="#4973D2"/>
<stop offset="1" stop-color="#47D7FE"/>
</linearGradient>
<linearGradient id="paint4_linear_230_8701" x1="162.877" y1="151.599" x2="162.877" y2="144.444" gradientUnits="userSpaceOnUse">
<stop stop-color="#7DF1FE"/>
<stop offset="0.0001" stop-color="#4973D2"/>
<stop offset="1" stop-color="#47D7FE"/>
</linearGradient>
<linearGradient id="paint5_linear_230_8701" x1="152.649" y1="166.775" x2="152.649" y2="159.548" gradientUnits="userSpaceOnUse">
<stop stop-color="#7DF1FE"/>
<stop offset="0.0001" stop-color="#4973D2"/>
<stop offset="1" stop-color="#47D7FE"/>
</linearGradient>
<linearGradient id="paint6_linear_230_8701" x1="73.1592" y1="221.699" x2="73.1592" y2="189.042" gradientUnits="userSpaceOnUse">
<stop stop-color="#7DF1FE"/>
<stop offset="0.0001" stop-color="#4973D2"/>
<stop offset="1" stop-color="#47D7FE"/>
</linearGradient>
<linearGradient id="paint7_linear_230_8701" x1="162.807" y1="201.464" x2="162.807" y2="194.237" gradientUnits="userSpaceOnUse">
<stop stop-color="#7DF1FE"/>
<stop offset="0.0001" stop-color="#4973D2"/>
<stop offset="1" stop-color="#47D7FE"/>
</linearGradient>
<linearGradient id="paint8_linear_230_8701" x1="152.661" y1="216.64" x2="152.661" y2="209.413" gradientUnits="userSpaceOnUse">
<stop stop-color="#7DF1FE"/>
<stop offset="0.0001" stop-color="#4973D2"/>
<stop offset="1" stop-color="#47D7FE"/>
</linearGradient>
<linearGradient id="paint9_linear_230_8701" x1="73.1321" y1="270.895" x2="73.1321" y2="239.043" gradientUnits="userSpaceOnUse">
<stop stop-color="#7DF1FE"/>
<stop offset="0.0001" stop-color="#4973D2"/>
<stop offset="1" stop-color="#47D7FE"/>
</linearGradient>
<linearGradient id="paint10_linear_230_8701" x1="162.82" y1="251.329" x2="162.82" y2="244.102" gradientUnits="userSpaceOnUse">
<stop stop-color="#7DF1FE"/>
<stop offset="0.0001" stop-color="#4973D2"/>
<stop offset="1" stop-color="#47D7FE"/>
</linearGradient>
<linearGradient id="paint11_linear_230_8701" x1="152.654" y1="265.782" x2="152.654" y2="259.278" gradientUnits="userSpaceOnUse">
<stop stop-color="#7DF1FE"/>
<stop offset="0.0001" stop-color="#4973D2"/>
<stop offset="1" stop-color="#47D7FE"/>
</linearGradient>
</defs>
</svg>
