<svg width="21" height="21" viewBox="0 0 21 21" fill="none" xmlns="http://www.w3.org/2000/svg">
<path d="M5.84265 3.11929C6.4168 3.00294 7.00974 3.01683 7.57782 3.15994C8.1459 3.30305 8.67465 3.57174 9.12516 3.94622L9.15415 3.96765L9.17936 3.99286C9.80334 4.6244 10.0882 4.7492 10.242 4.7555C10.3681 4.76054 10.6013 4.68869 11.1534 4.13782L11.1711 4.11892L11.1912 4.10127C11.7711 3.61091 12.5854 3.15206 13.6027 3.09786C14.6301 3.04491 15.7721 3.40922 16.9898 4.39624C18.2693 5.43369 18.6513 6.63753 18.5971 7.73044C18.5466 8.78049 18.0966 9.67549 17.8243 10.1633L17.8231 10.1658C17.6525 10.4686 17.4773 10.7686 17.2974 11.0659C17.1587 11.3054 17.0604 11.4857 16.9823 11.6747C16.831 12.0428 16.7276 12.4992 16.6381 13.5202C16.449 15.6758 15.7305 17.3284 14.4775 18.1288C14.1334 18.3482 13.7363 18.4705 13.3241 18.381C12.9144 18.294 12.6169 18.0267 12.4089 17.7255C12.0119 17.1519 11.8114 16.267 11.7358 15.3052C11.6476 14.3371 11.5517 13.2908 11.2265 12.5546C11.0702 12.1991 10.8874 11.9836 10.6908 11.8714C10.5093 11.768 10.2307 11.705 9.76301 11.8248C9.60544 11.8739 9.19575 12.092 8.91086 13.4824V13.4862C8.80372 13.9929 8.75203 14.5324 8.70665 15.077L8.69279 15.2548C8.65497 15.7262 8.61463 16.2115 8.53648 16.6288C8.45202 17.0801 8.29823 17.6019 7.92006 17.9561C7.48769 18.3608 6.91665 18.4137 6.3204 18.2549L6.29393 18.2473L6.26746 18.2385C5.23884 17.8641 4.61486 16.9389 4.25181 16.0489C3.92156 15.2164 3.74352 14.3313 3.72616 13.4358V13.3752C3.72616 12.6315 3.72616 12.1349 3.5459 11.6407C3.38833 11.2083 3.07445 10.7621 2.51223 9.99945L2.50467 9.99063C1.97271 9.23933 1.87691 8.25735 1.90338 7.58295C1.96137 6.21019 2.63451 5.27107 3.29504 4.54751L3.29757 4.54373C3.97833 3.8173 4.86746 3.31967 5.84265 3.11929ZM13.5069 5.76395C13.3397 5.76395 13.1794 5.83036 13.0612 5.94856C12.943 6.06676 12.8766 6.22708 12.8766 6.39424C12.8766 6.5614 12.943 6.72171 13.0612 6.83991C13.1794 6.95812 13.3397 7.02452 13.5069 7.02452C13.8119 7.02452 14.0641 7.11528 14.2468 7.27663C14.4258 7.43672 14.5935 7.71405 14.6414 8.19432C14.6497 8.27668 14.6741 8.3566 14.7133 8.42952C14.7524 8.50244 14.8056 8.56693 14.8696 8.61931C14.9337 8.67169 15.0075 8.71094 15.0868 8.73481C15.166 8.75868 15.2492 8.7667 15.3316 8.75843C15.4139 8.75015 15.4938 8.72573 15.5668 8.68657C15.6397 8.64741 15.7042 8.59426 15.7565 8.53018C15.8089 8.46609 15.8482 8.39231 15.872 8.31306C15.8959 8.2338 15.9039 8.15062 15.8957 8.06827C15.8225 7.33336 15.5402 6.74215 15.0851 6.33625C14.6477 5.95723 14.0856 5.75339 13.5069 5.76395Z" fill="#F5F5F5"/>
</svg>
