<svg width="152" height="896" viewBox="0 0 152 896" fill="none" xmlns="http://www.w3.org/2000/svg">
<path fill-rule="evenodd" clip-rule="evenodd" d="M88 12C88 17.946 83.6754 22.8819 78 23.8341L78 218.166C83.6754 219.118 88 224.054 88 230C88 235.946 83.6754 240.882 78 241.834L78 436.166C83.6754 437.118 88 442.054 88 448C88 453.946 83.6754 458.882 78 459.834L78 654.166C83.6754 655.118 88 660.054 88 666C88 671.946 83.6754 676.882 78 677.834L78 872.166C83.6754 873.118 88 878.054 88 884C88 890.627 82.6274 896 76 896C69.3726 896 64 890.627 64 884C64 878.054 68.3246 873.118 74 872.166L74 677.834C68.3246 676.882 64 671.946 64 666C64 660.054 68.3246 655.118 74 654.166L74 459.834C68.3246 458.882 64 453.946 64 448C64 442.054 68.3246 437.118 74 436.166L74 241.834C68.3246 240.882 64 235.946 64 230C64 224.054 68.3246 219.118 74 218.166L74 23.8341C68.3246 22.8819 64 17.946 64 12C64 5.37258 69.3726 0 76 0C82.6274 0 88 5.37258 88 12ZM64 12L62.5455 12V11L64 11V12ZM64 448H62.5455V447H64V448ZM64 884H62.5455V883H64V884ZM88 666V665.5H89.4545V666.5H88V666ZM88 230V229.5H89.4545V230.5H88V230ZM0 11.5L5 14.3868L5 12H7.27273V11H5L5 8.61325L0 11.5ZM10.1818 12H13.0909V11H10.1818V12ZM16 12H18.9091V11H16V12ZM21.8182 12L24.7273 12V11L21.8182 11V12ZM27.6364 12L30.5455 12V11L27.6364 11V12ZM33.4546 12L36.3636 12V11L33.4546 11V12ZM39.2727 12L42.1818 12V11L39.2727 11V12ZM45.0909 12L48 12V11L45.0909 11V12ZM50.9091 12L53.8182 12V11L50.9091 11V12ZM56.7273 12L59.6364 12V11L56.7273 11V12ZM0 447.5L5 450.387L5 448H7.27273V447H5L5 444.613L0 447.5ZM10.1818 448H13.0909V447H10.1818V448ZM16 448H18.9091V447H16V448ZM21.8182 448H24.7273V447H21.8182V448ZM27.6364 448H30.5455V447H27.6364V448ZM33.4546 448H36.3636V447H33.4546V448ZM39.2727 448H42.1818V447H39.2727V448ZM45.0909 448H48V447H45.0909V448ZM50.9091 448H53.8182V447H50.9091V448ZM56.7273 448H59.6364V447H56.7273V448ZM0 883.5L5 886.387L5 884H7.27273V883H5L5 880.613L0 883.5ZM10.1818 884H13.0909V883H10.1818V884ZM16 884H18.9091V883H16V884ZM21.8182 884H24.7273V883H21.8182V884ZM27.6364 884H30.5455V883H27.6364V884ZM33.4546 884H36.3636V883H33.4546V884ZM39.2727 884H42.1818V883H39.2727V884ZM45.0909 884H48V883H45.0909V884ZM50.9091 884H53.8182V883H50.9091V884ZM56.7273 884H59.6364V883H56.7273V884ZM152 230L147 227.113V229.5H144.727V230.5H147V232.887L152 230ZM141.818 229.5H138.909V230.5H141.818V229.5ZM136 229.5H133.091V230.5H136V229.5ZM130.182 229.5H127.273L127.273 230.5H130.182L130.182 229.5ZM124.364 229.5H121.455L121.455 230.5H124.364V229.5ZM118.545 229.5H115.636L115.636 230.5H118.545V229.5ZM112.727 229.5H109.818L109.818 230.5H112.727V229.5ZM106.909 229.5H104L104 230.5H106.909V229.5ZM101.091 229.5H98.1818L98.1818 230.5H101.091V229.5ZM95.2727 229.5H92.3636L92.3636 230.5H95.2727V229.5ZM152 666L147 663.113V665.5H144.727V666.5H147V668.887L152 666ZM141.818 665.5H138.909V666.5H141.818V665.5ZM136 665.5H133.091V666.5H136V665.5ZM130.182 665.5H127.273L127.273 666.5H130.182L130.182 665.5ZM124.364 665.5H121.455L121.455 666.5H124.364V665.5ZM118.545 665.5H115.636L115.636 666.5H118.545V665.5ZM112.727 665.5H109.818L109.818 666.5H112.727V665.5ZM106.909 665.5H104L104 666.5H106.909V665.5ZM101.091 665.5H98.1818L98.1818 666.5H101.091V665.5ZM95.2727 665.5H92.3636L92.3636 666.5H95.2727V665.5Z" fill="#00B0F0"/>
</svg>
