<svg width="39" height="14" viewBox="0 0 39 14" fill="none" xmlns="http://www.w3.org/2000/svg">
<path id="Vector" d="M11.4198 13.4073L13.5154 1.1098H16.8673L14.7701 13.4073H11.4198ZM26.8803 1.3749C26.2163 1.12576 25.1756 0.858398 23.8762 0.858398C20.5639 0.858398 18.231 2.52632 18.211 4.91679C18.1924 6.68383 19.8767 7.66966 21.1481 8.25784C22.4529 8.86078 22.8915 9.24511 22.8852 9.78328C22.8768 10.6077 21.8433 10.9841 20.8797 10.9841C19.5382 10.9841 18.8255 10.7977 17.7246 10.3387L17.2926 10.1433L16.8222 12.8962C17.6052 13.2396 19.0528 13.5369 20.5561 13.5523C24.0796 13.5523 26.367 11.9034 26.393 9.35065C26.4055 7.95166 25.5125 6.88718 23.5786 6.0094C22.4071 5.44051 21.6895 5.06089 21.6971 4.48484C21.6971 3.97368 22.3045 3.42709 23.6169 3.42709C24.7129 3.41006 25.507 3.64909 26.1257 3.89823L26.426 4.04014L26.8803 1.3749ZM35.506 1.10961H32.9159C32.1136 1.10961 31.5131 1.3286 31.1608 2.12942L26.1826 13.3992H29.7025C29.7025 13.3992 30.2778 11.884 30.408 11.5512C30.7926 11.5512 34.212 11.5565 34.7008 11.5565C34.8011 11.9871 35.1087 13.3992 35.1087 13.3992H38.219L35.506 1.10924V1.10961ZM31.3965 9.05062C31.6738 8.34208 32.7321 5.61289 32.7321 5.61289C32.7123 5.64562 33.0073 4.90089 33.1765 4.43917L33.403 5.49944C33.403 5.49944 34.0448 8.43492 34.179 9.05043H31.3965V9.05062ZM8.57423 1.10961L5.2926 9.49601L4.94301 7.79178C4.33203 5.82717 2.42866 3.69865 0.300781 2.63305L3.30148 13.3877L6.84795 13.3838L12.125 1.10949L8.57423 1.10943" fill="#2367CC"/>
</svg>
